<?xml version="1.0" encoding="utf-8"?>
<!-- Generator: Adobe Illustrator 21.0.0, SVG Export Plug-In . SVG Version: 6.00 Build 0)  -->
<svg version="1.1" id="Vrstva_1" xmlns="http://www.w3.org/2000/svg" xmlns:xlink="http://www.w3.org/1999/xlink" x="0px" y="0px"
	 viewBox="0 0 500 250" style="enable-background:new 0 0 500 250;" xml:space="preserve">
<style type="text/css">
	.st0{fill:#666666;}
	.st1{fill:#666666;stroke:#FFFFFF;stroke-miterlimit:10;}
	.st2{fill:#FFFFFF;}
	.st3{font-family:'KohinoorBangla-Regular';}
	.st4{font-size:13.3668px;}
	.st5{font-size:35px;}
</style>
<rect class="st0" width="500" height="250"/>
<g>
	<path class="st1" d="M209.5,166.7H91.4c-6.3,0-11.5,5.2-11.5,11.5v7.6c0,6.3,5.2,11.5,11.5,11.5h118.1c6.3,0,11.5-5.2,11.5-11.5
		v-7.6C221,171.9,215.8,166.7,209.5,166.7z"/>
	<text transform="matrix(1.0031 0 0 1 107.231 186.3242)" class="st2 st3 st4">Více informací </text>
</g>
<text transform="matrix(1 0 0 1 15.2754 87.1484)"><tspan x="0" y="0" class="st2 st3 st5">Servis regulátorů </tspan><tspan x="84.2" y="42" class="st2 st3 st5">topení</tspan></text>
<g>
	<path class="st2" d="M306,174.1l4-20.7l1.8-19.7c-0.1-0.6,0.2-1.1,0.8-1.2c0.5-0.1,1.1,0.3,1.2,0.8l-1.8,20.5l-3.9,20.4
		c-0.1,0.5-0.5,1-1.1,1C306.4,175.2,306,174.7,306,174.1z"/>
</g>
<g>
	<path class="st2" d="M313.9,177.4l3.6-23.9l1.7-17.6c0-0.5,0.5-1,1-1c0.6,0,1,0.5,1,1l-1.7,17.9l-3.7,23.7c0,0.6-0.5,1-1.1,1
		C314.2,178.4,313.8,178,313.9,177.4z"/>
</g>
<g>
	<path class="st2" d="M313.3,118.6l3.5-22.7l3.1-22.8l0,0V73V73l0,0l0,0l-0.1-0.1c-1.2-0.3-3.4-0.5-2.8-2.3l6.6-17.1
		c0.5-0.9,3-0.6,3.6-0.5c1.3,0.1,3.5,0.6,3.6,2.3l1,16.6c0.1,1.8-2,1.7-3.2,1.9l-0.4,0.1h-0.1l-5.3,46.2c-0.1,0.5-0.5,1-1.1,0.9
		c-0.6-0.1-1-0.5-1-1.1l5.4-46.3c0.1-1.4,1.6-1.8,2.8-2l0.6-0.1l0.2-0.1l-0.4-9.1l-0.5-6.8l-0.1-0.1l-0.2-0.1c-1-0.3-2-0.4-3.1-0.3
		h-0.3l-0.1,0.1l-3,7.2l-2.9,8.5l0.5,0.1l0.3,0.1c1,0.3,1.9,0.9,2,2v0.6l-6.8,45.6c-0.1,0.5-0.6,0.9-1.2,0.8
		C313.5,119.7,313.2,119.2,313.3,118.6z"/>
</g>
<g>
	<path class="st2" d="M310.6,126.5c0.1-0.8,0.8-2.9-0.3-3.3c-1.2-0.5-2.9-2.4-1.6-3.6c0.8-0.8,2.3-0.8,3.3-0.9l12.6,0.5
		c1.4,0.1,2.8,0.1,3.1,1.7c0.5,2.1-1.8,3.1-3.3,4.2c-0.8,0.5-0.9,1.4-1.1,2.4c-0.1,0.5-0.8,0.9-1.3,0.8c-0.5-0.1-0.8-0.8-0.7-1.3
		c0.3-1.4,0.6-2.6,1.8-3.5c0.5-0.3,2.8-1.3,2.5-2v-0.1l0,0l0,0h-0.5l-0.9-0.1l-13.2-0.4l-0.6,0.1l0.1,0.1v0.1
		c0.4,0.5,1.3,0.4,1.6,1.1c0.9,1.5,0.6,3.1,0.3,4.6c-0.1,0.5-0.6,1-1.2,0.8C310.8,127.6,310.5,127.1,310.6,126.5z"/>
</g>
<path class="st2" d="M312.1,129.4c0.5-0.1,1,0,1.6,0.1c1.8,0.1,3.5,0,5.3,0.1c1.4,0.2,2.9,0.4,4.2,0.9c0.8,0.4,0.8,0.6,0.9,1.6v6.9
	c-0.1,12.6-0.1,25.5-2.5,37.9c-0.3,1.4-0.5,2.8-1,4.1c-0.6,1.2-2.4,1.3-3.5,1.4c-1.7,0.1-3.4-0.1-5.1-0.2v3.3c0.4,0,0.8,0.1,1.2,0.1
	c4.3,0.5,9.7,0.2,10.7-4c3.5-13.9,3.3-31.9,3.5-48.9c0-4.4-2.1-5.5-8.1-6.3c-1.2-0.1-4.2-0.1-5.4-0.2c-0.7-0.1-1.3-0.1-1.9-0.1
	V129.4z M300.1,179.1c0.1-2.7,0.3-5.4,0.6-8.1c1.9-13.2,5.9-26.1,8.6-39.2c0.2-1,0.4-1.8,1.3-2.3c0.5-0.2,1-0.3,1.5-0.3V126
	c-3.2,0.1-5.3,1.6-6,5.2c-3,15.1-9.1,33.6-9.3,47.9c-0.1,5.4,9.8,5.7,15.4,6.2v-3.3c-0.5-0.1-0.9-0.1-1.4-0.1
	c-2.9-0.3-5.7-0.5-8.5-1.4c-0.5-0.1-2-0.7-2.1-1.3V179.1z"/>
<path class="st2" d="M450.4,67.9L400,67v-3.7l53.7,1.4l4.8,116.5c-9.2-0.5-37.7,0.1-58.5,0.3v-3.3c19.5,0.2,38.9,0.1,53.2-0.1
	L450.4,67.9z M400,67l-53.1-1c0,33.8,1.5,77.1,1.5,110.9c14.4,0.9,33.1,1.3,51.6,1.4v3.3c-8.9,0.1-16.4,0.1-20.4-0.1
	c-11.1-0.5-26.2,0.3-36-1.6c-0.3-36.5-1.2-81.5-1.4-118.1l57.8,1.5V67z"/>
<path class="st2" d="M443.8,78.7c2.5-0.2,3.8-1.2,4.1-2.3v-1.4c-0.5-1.8-2.3-3.6-4.1-4.1v3.3c1,0.3,1.9,1.9,0,2.1V78.7z M440.1,72.8
	c-0.7,2.1,0,6.1,3,5.9c0.3-0.1,0.5-0.1,0.7-0.1v-2.5c-0.1,0-0.1,0-0.2,0c-0.8,0.1-1-1-0.8-1.6c0.2-0.5,0.6-0.6,1-0.5v-3.3
	C442.4,70.5,440.9,71,440.1,72.8L440.1,72.8z M353.5,78.8V75c1.2-0.1,0.9-2.5,0-2v-3.6c1.5-0.1,2.6,1,3.5,2.5
	C359.3,73.9,356.3,78,353.5,78.8z M353.5,69.3V73c-0.1,0.1-0.2,0.1-0.3,0.3c-0.3,0.5-0.6,1.6-0.1,1.7c0.2,0.1,0.3,0.1,0.5,0.1v3.8
	c-0.6,0.2-1.2,0.2-1.8,0c-3.1-1.4-2.7-7.5,0.3-9C352.6,69.5,353,69.4,353.5,69.3z"/>
<g>
	<path class="st2" d="M439,86.3l1.9,37.8c0,0.5-0.4,1.1-1,1.1l-22.2-0.8l-47.7,1.1l-10.8-0.5c-0.2-0.1-0.4-0.3-0.5-0.5l-1.2-15.8
		v-27c0-0.3,0.6-0.5,0.9-0.5l80,0.9c0.5,0.1,1,0.5,1,1.1c0,0.5-0.5,1-1.1,1l-48.6-0.9l-21.7-0.1l-6.8,0.1h-1.8l0.1,25.4l0.7,10.6
		l0.3,3.8l9.4,0.4l13.6-0.1l34-1l11.7,0.5l9.3,0.2l-1-15.3L437,86.3c0-0.5,0.4-1,1-1C438.5,85.2,439,85.6,439,86.3z"/>
</g>
<path class="st2" d="M463.3,59.4l2.9,34.6l1.5,55.3l-0.1,19.2l-11.3,8.7c-1,0.8-2,2.3-1.2,3.3c0.9,1,2.3,0.7,3.4,0.8
	c3.8-4.6,13.8-9.4,13.6-12.6l-0.8-50.2l-3.5-59c-0.1-1.3-1.2-2.3-2.5-2.3S463.2,58.2,463.3,59.4z"/>
<path class="st2" d="M450.3,169c0.8,2.5,0,7.4-3.7,7.2c-0.2-0.1-0.4-0.1-0.6-0.1v-3.6c0.4,0,1-0.3,0.7-0.9c-0.2-0.4-0.5-0.6-0.7-0.6
	v-4.3C447.7,166.4,449.3,166.9,450.3,169z M446,176.1c-9.1-0.7-4.6-8.5,0-9.4v4.3c-0.8-0.2-1.2,1.4-0.1,1.6c0,0,0.1,0,0.1-0.1V176.1
	L446,176.1z M356.6,174.1v-3.4c0.2,0.1,0.4,0,0.5-0.2c0.6-1,0.1-1.4-0.5-1.3v-3.7c3.5-0.7,6,5.5,3.7,7.4
	C359.3,173.8,357.9,174.1,356.6,174.1z M356.6,165.5v3.7c-0.5,0.1-1,0.5-0.7,1.1c0.1,0.2,0.4,0.3,0.7,0.4v3.4
	c-2.2-0.1-4.2-1.4-4.6-3.5v-1.4c0,0,0-0.1,0.1-0.1c-0.1-2.7,1.6-3.5,4.1-3.5C356.3,165.6,356.4,165.5,356.6,165.5z"/>
<path class="st2" d="M400.7,129.9l13.9,20.2l-13.9-0.1v-2.8l8.5,0.1l-8.5-12.4V129.9L400.7,129.9z M400.7,175.5V171l0.3,0.3
	l8.1-11.1l-8.3,0.1v-2.8l13.9-0.1l-13.5,18.6L400.7,175.5z M387.2,149.8l12.7-21.1l0.8,1.2v5l-0.7-0.9l-7.8,13.1l8.5,0.1v2.8
	L387.2,149.8L387.2,149.8z M400.7,157.6v2.8l-8.5,0.1l8.5,10.5v4.5l-14.3-17.8L400.7,157.6z"/>
<path class="st2" d="M398.5,162.4h4.2c1,0,1.7,0.6,1.7,1.4c0,0.8-0.8,1.3-1.7,1.3h-4.2c-1,0-1.7-0.5-1.7-1.3
	C396.8,163,397.5,162.4,398.5,162.4z"/>
<path class="st2" d="M398.3,140.8h4.2c0.9,0,1.6,0.6,1.6,1.4s-0.8,1.4-1.6,1.4h-4.2c-0.9,0-1.6-0.6-1.6-1.4S397.4,140.8,398.3,140.8
	z"/>
<path class="st2" d="M399.4,144.3l-0.2-4.2c-0.1-0.9,0.5-1.6,1.2-1.6c0.8,0,1.4,0.8,1.4,1.6l0.2,4.2c0.1,0.9-0.5,1.6-1.2,1.6
	C400.1,146,399.4,145.2,399.4,144.3z"/>
<path class="st2" d="M345.5,177.6c-2.6,3.2-16.6,20.4-19.5,23.4c-0.8,0.9-2.4,3.6,0.8,3.8l105.5,2.5c2-0.1,3.8-0.7,5.7-3.1
	l20.7-23.3c1.4-1,0-2.7-0.5-3.5c-0.5-0.9-1.1,0-2.3,0.3l-22.3,24.9l-0.6,0.3l-0.1,0.1L332,201.3l1-0.7c3.3-2,14-17.7,16.2-20.4
	c2.5-0.9-0.5-1.9-1.8-2.3C346.1,177.6,345.9,176.7,345.5,177.6z"/>
<path class="st2" d="M425.4,115.2V112h3.6v-8.6h-3.6v-3.1h5.3c0.1,0,0.3,0,0.5,0.1l0.3,0.1l0.3,0.2l0.1,0.1l0.1,0.1l0.1,0.1l0.1,0.3
	c0.1,0.1,0.1,0.3,0.1,0.5v11.9c0,0.1,0,0.3,0,0.5l-0.1,0.3l-0.1,0.3l-0.1,0.1l-0.1,0.1l-0.1,0.1l-0.1,0.1c-0.2,0.1-0.3,0.1-0.5,0.1
	h-0.3H425.4z M378.2,100.7l-3,0.1v3.2h3.1l0.3-0.1l0.3-0.1l0.2-0.1l0.1-0.1c0.1-0.1,0.2-0.3,0.3-0.4c0-0.1,0.1-0.3,0.1-0.4
	c0.1-0.2,0.1-0.4,0-0.7c0-0.1,0-0.2-0.1-0.3c-0.1-0.1-0.1-0.3-0.2-0.3l-0.3-0.3l-0.3-0.1c-0.1-0.1-0.3-0.1-0.5-0.1L378.2,100.7
	L378.2,100.7z M375.2,115.2h7.7l0.3-0.1l0.3-0.1l0.3-0.1l0.1-0.1l0.1-0.3c0.1-0.1,0.1-0.2,0.1-0.3c0.1-0.2,0.1-0.3,0.1-0.4
	c0-0.2,0-0.3-0.1-0.5c0-0.1-0.1-0.3-0.1-0.4l-0.1-0.2l-0.3-0.2l-0.3-0.1c-0.1-0.1-0.3-0.1-0.5-0.1l-0.1-0.1h-7.6V115.2L375.2,115.2z
	 M425.4,100.3v3.1h-3.6v8.6h3.6v3.2H420l-0.3-0.1l-0.3-0.1l-0.3-0.2l-0.2-0.2l-0.1-0.3l-0.1-0.3l-0.1-0.3v-11.9l0.1-0.3l0.1-0.3
	l0.1-0.3l0.2-0.3l0.1-0.1l0.1-0.1c0.2-0.1,0.3-0.1,0.5-0.1h0.3L425.4,100.3L425.4,100.3z M375.2,92.6v-3.1h7.6h0.1
	c0.2,0.1,0.4,0.1,0.6,0.2l0.3,0.1l0.1,0.1l0.1,0.3l0.1,0.3c0,0.1,0.1,0.3,0.1,0.5v9.8c0,0.1,0,0.3-0.1,0.5l-0.1,0.3l-0.1,0.1
	l-0.1,0.1c-0.1,0.1-0.2,0.2-0.3,0.3c-0.1,0.1-0.3,0.1-0.5,0.2l-0.3,0.1h-0.2c-0.1,0-0.3,0-0.4-0.1l-0.3-0.1l-0.3-0.2l-0.2-0.2
	l-0.2-0.3l-0.1-0.3l-0.1-0.3v-8.3H375.2L375.2,92.6z M404.2,103.9v8.1l-13.6,0.1l-0.3,0.1l-0.3,0.1l-0.3,0.2l-0.2,0.2l-0.1,0.3
	l-0.1,0.3c0,0.1-0.1,0.3-0.1,0.4c0,0.2,0.1,0.3,0.1,0.5l0.1,0.3l0.1,0.3c0.1,0.1,0.2,0.2,0.3,0.3l0.1,0.1l0.1,0.1l0.1,0.1l0.2,0.1
	h0.3H406l0.3-0.1l0.3-0.1l0.1-0.1l0.1-0.1l0.2-0.2l0.1-0.3l0.1-0.3c0.1-0.2,0.1-0.3,0.1-0.5v-11.3c0-0.2-0.1-0.3-0.1-0.5
	c-0.1-0.1-0.1-0.3-0.2-0.4l-0.1-0.1l-0.1-0.1l-0.2-0.1c-0.2-0.1-0.4-0.1-0.6-0.2h-0.2l-12.8,0.1l-0.3,0.1l-0.3,0.1l-0.3,0.1
	l-0.2,0.2l-0.2,0.3l-0.1,0.3c-0.1,0.1-0.1,0.3-0.1,0.5c0,0.1,0,0.3,0.1,0.4l0.1,0.3l0.1,0.3l0.2,0.2l0.3,0.2l0.3,0.1l0.3,0.1H404.2
	L404.2,103.9z M406,99.3c0.1,0,0.3-0.1,0.4-0.1c0.1-0.1,0.2-0.1,0.3-0.2c0.1-0.1,0.2-0.2,0.3-0.3l0.1-0.1l0.1-0.1l0.1-0.3
	c0.1-0.1,0.1-0.3,0.1-0.5v-6.8c0-0.1-0.1-0.3-0.1-0.4c-0.1-0.2-0.1-0.3-0.2-0.5l-0.1-0.1l-0.1-0.1l-0.2-0.2c-0.2,0-0.3-0.1-0.5-0.1
	h-0.3h-15.2l-0.3,0.1l-0.3,0.1l-0.3,0.2l-0.2,0.2l-0.1,0.3l-0.1,0.3c0,0.1-0.1,0.3-0.1,0.4v0.2l0.1,0.3c0.1,0.1,0.1,0.3,0.3,0.5
	c0.1,0.1,0.1,0.1,0.2,0.3l0.1,0.1l0.1,0.1l0.3,0.1c0.1,0.1,0.3,0.1,0.5,0.1h13.4l0.1,5.3v0.3l0.1,0.3l0.2,0.3l0.2,0.2l0.3,0.2
	l0.3,0.1c0.1,0.1,0.3,0.1,0.4,0.1H406L406,99.3z M411.3,111.4v2.5l0.1,0.3l0.1,0.3l0.1,0.1c0.1,0.1,0.3,0.3,0.4,0.4l0.3,0.1l0.3,0.1
	c0.2,0,0.5,0,0.7,0c0.1-0.1,0.3-0.1,0.4-0.1c0.1-0.1,0.2-0.1,0.3-0.2l0.1-0.1l0.1-0.1l0.1-0.1l0.1-0.1l0.1-0.3l0.1-0.3l-0.1-2.4
	v-0.3l-0.1-0.1l-0.1-0.3l-0.3-0.3c-0.1-0.1-0.2-0.1-0.3-0.2l-0.3-0.1c-0.3,0-0.5,0-0.8,0c-0.1,0-0.3,0.1-0.4,0.1
	c-0.1,0.1-0.2,0.1-0.3,0.2l-0.3,0.3l-0.1,0.1l-0.1,0.1l-0.1,0.1l-0.1,0.2V111.4z M375.2,100.8h-7.6l-0.3,0.1c-0.1,0-0.3,0.1-0.5,0.1
	l-0.1,0.1l-0.1,0.1l-0.2,0.2l-0.1,0.1l-0.1,0.3c0,0.1,0,0.3,0,0.5v11.4v0.3l0.1,0.3l0.1,0.1l0.1,0.1l0.1,0.1l0.1,0.1l0.1,0.1
	l0.3,0.1c0.1,0,0.3,0,0.5,0h7.5V112h-5.9v-8.1l5.9,0.1V100.8L375.2,100.8z M375.2,89.5v3.1h-7.7h-0.3l-0.3-0.1l-0.1-0.1l-0.1-0.1
	c-0.1-0.1-0.1-0.2-0.2-0.3c-0.1-0.1-0.2-0.3-0.3-0.5v-0.3c0-0.1,0-0.3,0-0.5l0.1-0.3l0.1-0.3l0.2-0.2c0.1-0.1,0.2-0.2,0.3-0.3
	l0.3-0.1l0.3-0.1L375.2,89.5z"/>
</svg>
