<?xml version="1.0" encoding="utf-8"?>
<!-- Generator: Adobe Illustrator 21.0.0, SVG Export Plug-In . SVG Version: 6.00 Build 0)  -->
<svg version="1.1" id="Vrstva_1" xmlns="http://www.w3.org/2000/svg" xmlns:xlink="http://www.w3.org/1999/xlink" x="0px" y="0px"
	 viewBox="0 0 500 250" style="enable-background:new 0 0 500 250;" xml:space="preserve">
<style type="text/css">
	.st0{fill:#666666;}
	.st1{fill:#666666;stroke:#FFFFFF;stroke-miterlimit:10;}
	.st2{fill:#FFFFFF;}
	.st3{font-family:'KohinoorBangla-Regular';}
	.st4{font-size:13.3668px;}
	.st5{font-size:35px;}
</style>
<rect class="st0" width="500" height="250"/>
<g>
	<path class="st1" d="M209.5,166.7H91.4c-6.3,0-11.5,5.2-11.5,11.5v7.6c0,6.3,5.2,11.5,11.5,11.5h118.1c6.3,0,11.5-5.2,11.5-11.5
		v-7.6C221,171.9,215.8,166.7,209.5,166.7z"/>
	<text transform="matrix(1.0031 0 0 1 107.231 186.3242)" class="st2 st3 st4">Více informací </text>
</g>
<text transform="matrix(1 0 0 1 78.2397 104.1484)" class="st2 st3 st5">Regulace</text>
<path class="st2" d="M341.7,170.7c0.1,3.6,3-5.9,3-2.7c27,1.7,72.5,1.5,98.1,1.2l0.8-111.2L343,56.2c0.1,24.1,1.1,60.3,1.5,89.6
	c0-3.1-3,5.5-3,2.2c-0.4-31.2-1.2-69.3-1.4-95.6L446.6,55l-0.3,116.9c-12.1-0.6-61.1,0.8-73,0.2
	C363.1,171.6,350.7,172.3,341.7,170.7z"/>
<path class="st2" d="M434.8,72.5l1.7,35.9c0.1,0.7-0.6,1.7-1.4,1.6l-22.6-0.6l-18.9,0.1v-2.7l18.9-0.5l12,0.4l8.9,0.2L432.5,93
	l-0.9-20.4c0-0.6,0.4-1.2,0.9-1.4l-39-0.5v-3.1l40.3,0.5c0.9,0,1.5,0.8,1.4,1.6c0,0.8-0.6,1.4-1.4,1.5
	C434.4,71.3,434.8,71.9,434.8,72.5z M393.6,109.4l-40.3,0.4c-0.6,0-1.3-0.6-1.4-1.4L351,68c0-0.4,0.4-0.7,0.9-0.8l10.3-0.1l31.4,0.4
	v3.1l-31.4-0.4H354l-0.1,23.4l0.6,10.1l0.3,3l22.9,0.4l15.8-0.5V109.4z"/>
<path class="st2" d="M446.6,59.6c1.7-1.3,7.3-4.9,9.9-7.6c0.8-0.8,2.2-3.3-0.6-3.5l-98.2-2.7c-1.9,0-15.3,5.9-17.2,6.9
	c-1.3,0.9,0,2.4,0.5,3.2c0.5,0.8,1.1-0.6,2.2-0.9l15-6.6l0.6-0.3l0.1-0.1l92.7,3.2l-0.9,0.6c-3,1.9-3.4,2.7-6.5,4.9
	c-0.4,0.8-0.4,2.2,0.7,2.5C446,59.6,446.1,60.4,446.6,59.6z"/>
<path class="st2" d="M454.1,51.4l2.1,30.9c-2,26.7-1.2,49-1.8,75.7c-0.9,2.4-6.5,9.2-10.3,11.7l2.4,2c3.6-2.7,11.5-10.5,11.3-13.5
	c-0.7-37.9,0.9-69.8,0.3-107.6c-0.1-1.2-1.3-2.2-2.5-2.1C454.4,48.5,454.1,50.1,454.1,51.4z"/>
<path class="st2" d="M395.2,117l13.8,19.9l-13.8-0.1v-2.7l8.4,0.1l-8.4-12.2V117L395.2,117z M395.2,164.8v-4.5l0.3,0.4l8-11
	l-8.3,0.1v-2.8l13.8-0.1l-13.4,18.5L395.2,164.8z M382,136.8l12.5-21l0.8,1.2v4.9l-0.6-0.9l-7.8,13l8.4,0.1v2.7L382,136.8L382,136.8
	z M395.2,146.9v2.8l-8.4,0.1l8.4,10.5v4.5L381,147L395.2,146.9z"/>
<path class="st2" d="M393,151.7h4.2c0.9,0,1.7,0.6,1.7,1.3s-0.7,1.4-1.7,1.4H393c-0.9,0-1.7-0.6-1.7-1.4S392.1,151.7,393,151.7z"/>
<path class="st2" d="M392.9,127.9h4.1c0.9,0,1.7,0.6,1.7,1.3s-0.7,1.4-1.7,1.4h-4.1c-0.9,0-1.7-0.6-1.7-1.4S391.9,127.9,392.9,127.9
	z"/>
<path class="st2" d="M393.9,131.3l-0.3-4.2c0-0.9,0.5-1.7,1.3-1.7c0.7,0,1.4,0.8,1.4,1.7l0.3,4.2c0,0.9-0.5,1.7-1.3,1.7
	C394.6,132.9,393.9,132.2,393.9,131.3z"/>
<path class="st2" d="M342.5,169.4c-1.9,2.9-11.8,25.1-14.5,27.8c-0.8,0.8-2.2,3.3,0.6,3.5l100.4,2.2c1.9-0.1,3.5-0.6,5.3-2.8
	l12-28.3c1.3-0.8-0.4-1.8-0.9-2.6c-0.5-0.8-1,0-2.1,0.4l-13.1,29.2l-0.6,0.3l-0.1,0.1l-97.6-1.6c2.3-5.1,9.9-20.6,13.5-27.1
	c2.3-0.8-0.2-0.4-1.4-0.8C343.1,169.4,343,168.6,342.5,169.4z"/>
<path class="st2" d="M420.4,100v-3.1h3.7l0.1-8.1h-3.7v-3h5.4c0.1,0,0.4,0,0.5,0.1l0.3,0.1l0.3,0.1l0.1,0.1l0.1,0.1l0.1,0.1l0.1,0.3
	c0.1,0.1,0.1,0.3,0.1,0.4l-0.1,11.2c0,0.2,0,0.4,0,0.5l-0.1,0.3l-0.1,0.2l-0.1,0.1l-0.1,0.1l-0.1,0.1l-0.1,0.1
	c-0.1,0-0.3,0.1-0.5,0.1l-0.3,0.1H420.4z M372.4,86.2l-3.2,0.1v3h3.2l0.4-0.1l0.3-0.1l0.3-0.2l0.1-0.1c0.1-0.1,0.1-0.2,0.2-0.4
	c0.1-0.1,0.1-0.3,0.1-0.4c0-0.2,0-0.4,0-0.6c-0.1-0.1-0.1-0.3-0.1-0.4c0-0.1-0.1-0.3-0.1-0.4l-0.3-0.2l-0.3-0.1
	c-0.1-0.1-0.4-0.1-0.5-0.1L372.4,86.2L372.4,86.2z M369.2,100h7.8l0.4-0.1l0.3-0.1l0.3-0.1l0.1-0.1l0.1-0.2c0.1-0.1,0.1-0.2,0.1-0.4
	c0.1-0.1,0.1-0.3,0.1-0.4s0-0.3-0.1-0.4c0-0.1-0.1-0.3-0.1-0.4l-0.1-0.1l-0.3-0.2l-0.3-0.1c-0.1-0.1-0.4-0.1-0.5-0.1l-0.1-0.1h-7.7
	V100L369.2,100z M420.4,85.8v3h-3.6l-0.1,8.1h3.7v3.1h-5.5l-0.3-0.1l-0.3-0.1l-0.3-0.1l-0.2-0.2l-0.1-0.2l-0.1-0.3l-0.1-0.3
	l0.1-11.3l0.1-0.3l0.1-0.3l0.1-0.3l0.2-0.3l0.1-0.1l0.1-0.1c0.1-0.1,0.3-0.1,0.4-0.1l0.4-0.1H420.4L420.4,85.8z M369.2,78.6v-3h7.8
	h0.2c0.2,0.1,0.4,0.1,0.6,0.1l0.3,0.1l0.1,0.1l0.1,0.2l0.1,0.3c0,0.1,0.1,0.3,0.1,0.4l-0.1,9.3c0,0.1,0,0.3-0.1,0.5l-0.1,0.3
	l-0.1,0.1l-0.1,0.1c-0.1,0.1-0.2,0.2-0.3,0.3c-0.2,0.1-0.4,0.1-0.6,0.2l-0.2,0.1h-0.2c-0.1,0-0.3-0.1-0.4-0.1l-0.3-0.1l-0.2-0.2
	l-0.2-0.1l-0.2-0.3l-0.1-0.3l-0.1-0.3l0.1-7.8H369.2L369.2,78.6z M398.8,89.2l-0.1,7.6l-13.8,0.1l-0.4,0.1l-0.2,0.1l-0.3,0.2
	l-0.2,0.2l-0.1,0.2l-0.1,0.3c0,0.1,0,0.2,0,0.4c0,0.1,0,0.3,0,0.4l0.1,0.3l0.1,0.2c0.1,0.1,0.2,0.2,0.4,0.3l0.1,0.1l0.1,0.1l0.1,0.1
	h0.1l0.4,0.1h15.5l0.3-0.1l0.4-0.1l0.1-0.1l0.1-0.1l0.2-0.2l0.1-0.2l0.1-0.3c0-0.1,0.1-0.3,0.1-0.5l0.1-10.7c0-0.1-0.1-0.3-0.1-0.4
	c-0.1-0.1-0.1-0.3-0.2-0.4l-0.1-0.1l-0.1-0.1l-0.3-0.1c-0.2-0.1-0.4-0.1-0.6-0.1l-0.2-0.1l-13,0.1l-0.3,0.1l-0.4,0.1l-0.2,0.2
	l-0.2,0.2l-0.2,0.2l-0.1,0.3c-0.1,0.1-0.1,0.2-0.1,0.4c0,0.1,0,0.3,0.1,0.4l0.1,0.3l0.1,0.2l0.2,0.2l0.2,0.2l0.4,0.1h0.3H398.8
	L398.8,89.2z M400.6,84.8c0.1,0,0.2,0,0.4-0.1c0.1-0.1,0.3-0.1,0.4-0.1c0.1-0.1,0.2-0.2,0.3-0.3l0.1-0.1l0.1-0.1l0.1-0.3
	c0.1-0.1,0.1-0.3,0.1-0.4l0.1-6.4c-0.1-0.1-0.1-0.3-0.1-0.4c-0.1-0.1-0.1-0.3-0.2-0.4l-0.1-0.1l-0.1-0.1l-0.3-0.1
	c-0.1-0.1-0.3-0.1-0.4-0.1h-0.4h-15.5l-0.4,0.1l-0.2,0.1l-0.3,0.1l-0.2,0.2l-0.1,0.2l-0.1,0.3c0,0.1,0,0.3,0,0.4v0.1v0.3
	c0.1,0.1,0.1,0.3,0.3,0.4c0.1,0.1,0.1,0.1,0.2,0.2l0.1,0.1l0.1,0.1l0.3,0.1c0.1,0,0.3,0,0.4,0h13.8l-0.1,5l0.1,0.3l0.1,0.3l0.2,0.2
	l0.2,0.2l0.2,0.1l0.3,0.1c0.1,0,0.3,0,0.4,0H400.6L400.6,84.8z M406,96.3v2.3V99l0.1,0.3l0.1,0.1c0.1,0.1,0.2,0.2,0.4,0.4l0.2,0.1
	l0.3,0.1c0.2,0.1,0.4,0.1,0.7,0c0.1,0,0.2,0,0.4-0.1c0.1-0.1,0.3-0.1,0.4-0.2l0.1-0.1l0.1-0.1l0.1-0.1l0.1-0.1l0.1-0.3l0.1-0.4v-2.3
	l-0.1-0.3l-0.1-0.1l-0.1-0.3l-0.2-0.2c-0.1-0.1-0.2-0.1-0.4-0.2l-0.3-0.1c-0.3-0.1-0.5-0.1-0.8-0.1c-0.1,0.1-0.2,0.1-0.4,0.1
	c-0.1,0-0.2,0.1-0.4,0.1l-0.3,0.2l-0.1,0.1l-0.1,0.1l-0.1,0.1L406,96V96.3z M369.2,86.3h-7.8l-0.3,0.1c-0.1,0-0.3,0.1-0.4,0.1
	l-0.1,0.1l-0.1,0.1l-0.2,0.2l-0.1,0.1l-0.1,0.3c-0.1,0.1-0.1,0.3-0.1,0.5L360,98.6l0.1,0.3l0.1,0.3l0.1,0.1l0.1,0.1l0.1,0.1l0.1,0.1
	l0.1,0.1l0.3,0.1c0.2,0.1,0.4,0.1,0.5,0.1h7.7v-3.1h-6l0.1-7.6h6V86.3L369.2,86.3z M369.2,75.6v3h-7.8l-0.3-0.1l-0.3-0.1l-0.1-0.1
	l-0.1-0.1c-0.1-0.1-0.1-0.2-0.2-0.3c-0.1-0.1-0.1-0.3-0.2-0.4l-0.1-0.3c0-0.1,0-0.3,0-0.4l0.1-0.3l0.1-0.2l0.2-0.2
	c0.1-0.1,0.2-0.2,0.4-0.3l0.3-0.1h0.4L369.2,75.6z"/>
<path class="st2" d="M355.4,118h22.3c0.3,0,0.6,0.3,0.6,0.6V129c0,0.3-0.3,0.6-0.6,0.6h-22.3c-0.3,0-0.6-0.3-0.6-0.6v-10.4
	C354.8,118.3,355.1,118,355.4,118z"/>
<path class="st2" d="M412.3,118h22.4c0.3,0,0.5,0.3,0.5,0.6V129c0,0.3-0.2,0.6-0.5,0.6h-22.4c-0.3,0-0.6-0.3-0.6-0.6v-10.4
	C411.7,118.3,412,118,412.3,118z"/>
<path class="st2" d="M348.5,143.7c1.4,2.9,3.7,2.4,6.6,0.9c2.9-1.4,6.9-4,8.9-6.6l0.2-0.4l0.1-0.1l-0.1-0.1l-0.3-0.1
	c-0.8-0.3-1.2-1.2-0.9-2c0.3-0.8,1.2-1.2,2-0.9c2.3,1.1,3,3,1.6,5.3c-3,4.4-9.3,7.4-14,9c-3.2,1.1-5.6-1.5-6.9-4
	c-0.3-0.8,0.7-1.1,1.5-1.4C347.9,143.2,348.1,142.9,348.5,143.7z"/>
<path class="st2" d="M306.5,167.4c3.9,0.3,7.4,0.4,8,4.9c0,0.9-0.7,1.6-1.6,1.6c-0.9,0-1.5-0.7-1.5-1.6c-0.3-2.2-3.3-1.7-4.9-1.8
	c-0.9,0-1.6-0.7-1.6-1.5C304.9,168.1,305.7,167.4,306.5,167.4z"/>
<path class="st2" d="M292.7,207.1l1.1-27.4c2.2-9.9,14.3-11.7,21.7-16.6l25.6-16.3c8-4.9,16.2-12.9,26.1-13.2c3.5-0.1,6,2.6,6.8,5.7
	c0.7,2.8-1.1,6.3-2.6,8.4c-4.2,6.3-8.8,11.3-15.5,14.9c-3.5,1.8-5.5-1.8-6-4.4c-0.1-0.9,0.6-1.7,1.4-1.7c0.8-0.1,1.6,0.6,1.7,1.4
	c0.1,0.4,0.1,1.7,0.9,1.8c2.7,0.3,6.5-3.6,8-5.1c3.5-3.4,8.4-8.6,9.1-13.8c0.2-1.6-1.1-3.5-2.5-4c-3-0.9-7,0.9-9.4,2.3l-16.4,10.4
	l-24.8,15.8l-14.8,7.8c-4.6,2.4-6.3,5.9-6.8,11.2l-0.2,23c-0.1,0.9-0.8,1.5-1.7,1.5C293.3,208.7,292.6,208,292.7,207.1z"/>
<path class="st2" d="M353.7,162.2L328.9,182c-3.5,2.6-11.6,10.4-17.3,9.1c-2.1-0.4-2.5-2.3-2.7-4.1c0-0.9,0.6-1.6,1.5-1.6
	c0.9,0,1.6,0.7,1.6,1.6c0.1,0.8,0.1,1.5,1.2,1.1c7-2.7,12.5-7.6,18.4-12.2l19.9-16c0.6-0.6,1.6-0.6,2.2,0.1
	C354.3,160.7,354.3,161.7,353.7,162.2z"/>
</svg>
