<?xml version="1.0" encoding="utf-8"?>
<!-- Generator: Adobe Illustrator 21.0.0, SVG Export Plug-In . SVG Version: 6.00 Build 0)  -->
<svg version="1.1" id="Vrstva_1" xmlns="http://www.w3.org/2000/svg" xmlns:xlink="http://www.w3.org/1999/xlink" x="0px" y="0px"
	 viewBox="0 0 500 250" style="enable-background:new 0 0 500 250;" xml:space="preserve">
<style type="text/css">
	.st0{fill:#666666;}
	.st1{fill:#666666;stroke:#FFFFFF;stroke-miterlimit:10;}
	.st2{fill:#FFFFFF;}
	.st3{font-family:'KohinoorBangla-Regular';}
	.st4{font-size:13.3668px;}
	.st5{font-size:35px;}
	.st6{fill:#FFFFFF;stroke:#FFFFFF;stroke-width:1.1999;stroke-miterlimit:10;}
	.st7{fill:none;stroke:#FFFFFF;stroke-width:1.1999;stroke-miterlimit:10;}
	.st8{fill:#FFFFFF;stroke:#FFFFFF;stroke-width:1.0001;stroke-miterlimit:10;}
</style>
<rect class="st0" width="500" height="250"/>
<g>
	<path class="st1" d="M195.9,182.7H77.9c-6.3,0-11.5,5.2-11.5,11.5v7.6c0,6.3,5.2,11.5,11.5,11.5h118.1c6.3,0,11.5-5.2,11.5-11.5
		v-7.6C207.4,187.9,202.2,182.7,195.9,182.7z"/>
	<text transform="matrix(1.0031 0 0 1 93.6484 202.3242)" class="st2 st3 st4">Více informací </text>
</g>
<text transform="matrix(1 0 0 1 57.4023 68.1484)"><tspan x="0" y="0" class="st2 st3 st5">Kotelny a  </tspan><tspan x="-18.9" y="42" class="st2 st3 st5">vyměníkové  </tspan><tspan x="22.1" y="84" class="st2 st3 st5">stanice</tspan></text>
<path class="st6" d="M315.7,161c-0.2-19.2-0.7-47.3-0.4-66.5c-3.7-0.4-1.4-0.1-5.1-0.4c-0.6-0.7-0.7-1.7-0.7-4.2
	c10.9,0.5,13.9,1,20.6,0.9l0.3,3.7l-5.4,0.4l1.3,65.9h2.7l-1.7-63.9c1.7-0.1,2.5,0,3.8-0.1c2.2,0.1,2.6-1.6,2.6-2.8l-0.1-6.1
	c-7.5,0.1-12,0-26.4-0.3c0,3.6,0.2,3,0.2,6.6c0,1.3,1,1.2,3,1.4c1.3,0.1,0.8,0.2,1.9,0.2c0.3,18.6,0.4,46.3,0.6,65
	C313.9,161,314.7,161,315.7,161z"/>
<polygon class="st6" points="273.4,126.4 284.6,106 295.3,127.4 292.1,126.8 284.6,109.5 275.6,126.4 "/>
<path class="st6" d="M261.2,126.4c-0.1-19.2,0.1-1.8,0.5-21c-3.8-0.4-2.7,0-6.6-0.4c-0.5-0.7-0.7-1.7-0.7-4.1
	c10.9,0.4,9.6,0.8,16.3,0.7l0.3,3.7l-5.4,0.5l0.4,20.3h2.7l-0.8-18.4c1.7-0.1,2.5,0,3.9,0c2.2,0.1,2.5-1.7,2.5-2.8l-0.1-6.2
	c-7.5,0.1-7.7,0.2-22-0.1c0,3.7,0.2,3,0.1,6.6c0,1.2,1,1.2,3,1.4c1.3,0.1,2.2,0.2,3.3,0.1c0.4,18.7-0.4,0.8-0.1,19.5
	C259.4,126.4,260.4,126.4,261.2,126.4z"/>
<g>
	<path class="st2" d="M277.3,125.6c5.9,0.3,11.8,0.5,17.8,0.6c0.3,11.7,1.7,23.8,2,35.5c-6.4-0.1-13.1-0.1-19.8-0.3v-2.2
		c5.8,0.1,11.7,0.1,17.5,0.2c-0.4-9.9-1.1-20.2-1.5-30.2l-0.1-1.2c-5.2-0.1-10.6-0.3-15.9-0.4V125.6z M258.6,125
		c6.3,0.2,12.5,0.4,18.7,0.6v2.1c-5.7-0.1-11.4-0.2-16.8-0.4c-0.2,10.5-0.4,21.1-0.6,31.7c5.8,0,11.6,0.1,17.5,0.2v2.2
		c-6.6-0.1-13.2-0.1-19.4-0.2C258.1,149.3,258.4,137,258.6,125z"/>
	<path class="st7" d="M258.6,125c12.2,0.4,24.3,1,36.5,1.3c0.3,11.7,1.7,23.8,2,35.5c-12.7-0.1-26.6-0.4-39.2-0.5
		C258.1,149.3,258.4,137,258.6,125L258.6,125z M293.3,129.3c0.4,9.9,1.1,20.2,1.5,30.2c-11.6-0.1-23.5-0.4-35-0.4
		c0.2-10.6,0.4-21.2,0.6-31.7c10.7,0.3,22.1,0.4,32.8,0.8L293.3,129.3z"/>
</g>
<polygon class="st6" points="296.2,159.5 328.9,159.5 328.9,161.7 296.2,161.7 "/>
<path class="st6" d="M293.8,140.8c0.8-5.3,1.4-10.3,6.8-12.6c3.9-1.6,8.8-1,11.7,2.1c2.3,2.4,2.3,5.2,2.7,8.3c0,0.6-0.5,1.1-1.1,1.1
	c-0.6,0-1.1-0.5-1.1-1.1c-0.3-3-0.6-5.3-3.3-7.1c-3.3-2.4-8.4-2.2-11.1,0.9c-1.9,2.3-2,5.5-2.4,8.4c0,0.6-0.5,1.1-1.1,1.1
	C294.3,141.9,293.8,141.4,293.8,140.8z"/>
<polygon class="st6" points="250.7,158.6 344.1,93.2 345.4,95.1 252,160.4 "/>
<path class="st6" d="M425.4,127.6l-1.9-1.4c0.2-3.9,0.4-7.4,0.4-10.3c12.2-0.1,47.3,0.6,59.5,0.4c0.2,12,0.4,35.9,0.6,48
	c-11.3-0.1-41.8-1-57.4-1.3c-1.9,0,0.6-2.3-0.9-2.3c13,0.2,45.4,1.2,56.3,1.3c-0.2-10.6-0.3-32.8-0.5-43.3
	c-10.7,0.2-45.1-1-55.9-0.9v1.2L425.4,127.6z"/>
<polygon class="st6" points="352.4,159.9 427.8,160.7 427.9,163 352.4,162.2 "/>
<path class="st8" d="M468.5,148.6h8.1c0.2,0,0.4,0.1,0.4,0.3v6.8c0,0.2-0.1,0.4-0.4,0.4h-8.1c-0.2,0-0.4-0.1-0.4-0.4v-6.8
	C468.1,148.8,468.2,148.6,468.5,148.6z"/>
<path class="st8" d="M468.5,133.7c2.7,0.2,5.4,0.9,8.1,0.5c0.2,0,0.4,0.1,0.4,0.4c0,2.1,0,4.2,0,6.3c0,0.1-0.1,0.3-0.4,0.3
	c-2.7,0-5.4,0-8.1,0c-0.2,0-0.4-0.1-0.4-0.3c0-2.3,0-4.5,0-6.8C468.1,133.9,468.2,133.7,468.5,133.7z"/>
<path class="st8" d="M468.5,123.2c2.7,0.1,5.4-0.4,8.1,0.9c0.1,0.1,0.4,0.1,0.4,0.4c0,2.1,0,3,0,5.1c0,0.1-0.1,0.4-0.4,0.4
	c-2.7,0-5.4,0-8.1,0c-0.2,0-0.4-0.2-0.4-0.4c0-2.3,0-3.8,0-6.1C468.1,123.3,468.2,123.2,468.5,123.2z"/>
<path class="st8" d="M450,133.9h8.1c0.2,0,0.4,0.1,0.4,0.4l-0.4,6.6c0,0.2-0.1,0.4-0.4,0.4l-7.8,0.2c-0.2,0-0.4-0.1-0.4-0.4v-6.8
	C449.7,134,449.8,133.9,450,133.9z"/>
<path class="st8" d="M450,148.5c2.7,0.1,6.9-1.8,8.1,0.5c0.1,0.1,0.4,0.1,0.4,0.3c0,2.2,0,4.6,0,6.7c0,0.2-0.1,0.4-0.4,0.4
	c-2.6-0.6-5.4-0.4-8.1-0.4c-0.2,0-0.4-0.1-0.4-0.4c0-2.2,0-4.5,0-6.8C449.7,148.6,449.8,148.5,450,148.5z"/>
<path class="st8" d="M450,122c2.7,0.1,5.5-0.4,8.1,0.9c0.2,0.1,0.4,0.1,0.4,0.4c0,2.1,0,2.6,0,4.8c0,0.1-0.1,0.3-0.4,0.3
	c-2.7,0-5.4-0.1-8.1,0.4c-0.2,0.1-0.4-0.1-0.4-0.3c0-2.3,0-3.8,0-6.1C449.7,122.1,449.8,121.9,450,122z"/>
<path class="st8" d="M431.9,121.7h8.1c0.2,0,0.4,0.1,0.4,0.4l-0.4,6.6c0,0.2-0.1,0.4-0.4,0.4l-7.8,0.2c-0.2,0-0.4-0.1-0.4-0.3V122
	C431.5,121.8,431.7,121.7,431.9,121.7z"/>
<path class="st8" d="M431.9,134.9c2.7,0.2,6.6-1.2,7.9,1.2c0.1,0.1,0.4,0.1,0.4,0.3c0,2.2-0.6,3.9-0.6,6c0,0.2-0.1,0.4-0.4,0.4
	c-0.6-0.1-1.1,0.6-1.7,0.5c-2.5-4.2-4-5.5-5.9-7.9C431.4,135.2,431.7,134.9,431.9,134.9z"/>
<path class="st6" d="M352.3,160.5c0.9-5.8,1.2-12,3.7-17.4c7.4-16.1,25.8-23.8,42.6-24.2c14.4-0.4,28.7,6.3,37.2,18.1
	c3.3,4.8,5.3,10.6,7.2,16.3c0.7,2.2,1.1,5.1,1.6,8.6c0,0.6-1.3,1.1-1.9,1.1c-0.6,0-1.1-0.5-1.1-1.1c-3.6-23.3-15.6-41.6-42.8-40.8
	c-26.2,0.7-41.5,14.3-44.1,39.4c0,0.6-0.5,1.1-1.1,1.1S352.3,161.1,352.3,160.5z"/>
<g>
	<g>
		<path class="st2" d="M376.1,161.1c0.5-2.7,0.8-5.6,2-8.1c4.2-8.6,13.2-13.1,22.5-12.8c11.5,0.3,19.7,9.7,22.7,20.1l0.1,0.3
			l0.1,0.2c0.1,0.3,0.1,0.6,0,0.9l-0.2,0.3l0,0l0,0l-0.9,0.3l-0.4-0.1l-0.2-0.1c-0.3-0.2-0.4-0.6-0.4-0.9c-1.9-6.9-5.7-13-12.2-16.5
			c-7.8-4.1-17.6-2.7-24.1,3.1c-2,1.7-3.7,3.9-4.8,6.3c-1.2,2.2-1.4,4.7-1.8,7.1c0,0.6-0.5,1.1-1.1,1.1
			C376.6,162.2,376.1,161.6,376.1,161.1L376.1,161.1z M422.3,162.2L422.3,162.2L422.3,162.2L422.3,162.2L422.3,162.2z M422.3,162.3
			L422.3,162.3L422.3,162.3L422.3,162.3z"/>
		<path class="st7" d="M376.1,161.1c0.5-2.7,0.8-5.6,2-8.1c4.2-8.6,13.2-13.1,22.5-12.8c11.5,0.3,19.7,9.7,22.7,20.1l0.1,0.3
			l0.1,0.2c0.1,0.3,0.1,0.6,0,0.9l-0.2,0.3l0,0l0,0l-0.9,0.3l-0.4-0.1l-0.2-0.1c-0.3-0.2-0.4-0.6-0.4-0.9c-1.9-6.9-5.7-13-12.2-16.5
			c-7.8-4.1-17.6-2.7-24.1,3.1c-2,1.7-3.7,3.9-4.8,6.3c-1.2,2.2-1.4,4.7-1.8,7.1c0,0.6-0.5,1.1-1.1,1.1
			C376.6,162.2,376.1,161.6,376.1,161.1L376.1,161.1z M422.3,162.2L422.3,162.2L422.3,162.2L422.3,162.2L422.3,162.2z M422.3,162.3
			L422.3,162.3L422.3,162.3L422.3,162.3z"/>
	</g>
</g>
<path class="st6" d="M356.1,143.3c-0.4-8.6,1.9-10.9,3-16.3c1-4.7,3.3-9.1,3.5-13.9l1.1-37.4c0.1-2.4,0.2-5.1,2.6-6.3
	c3.5-1.7,7.6-0.4,8.1,3.7v5.7c-0.3,8.5-0.1,17.1,0.4,25.6c0.4,6.7,1.2,13.2,2.4,19.9c0.3,0.5,0.1,1.2-0.4,1.4
	c-0.6,0.3-1.7,0-1.9-0.6c-1.4-6.9-2.1-13.7-2.2-20.7l-0.4-25.8c0-0.4,0.1-1.1,0.1-2c0.1-2.1,0.1-4.8-1.4-5.5
	c-1.2-0.5-3.5-0.3-4.4,0.8c-0.9,0.9-0.7,3-0.8,3.9c-0.7,15,1.4,25.1-1.1,41.5c-0.4,2.6-1.2,5.7-2.1,9c-1.7,5.4-1.9,8.6-2.4,13.4
	c0,0.6-2.3,3.8-2.9,3.8C356.6,143.4,356.1,143.9,356.1,143.3z"/>
<g>
	<path class="st6" d="M389.4,144.4l-0.1,16.3c0,0.6-0.4,1.1-1.1,1.1c-0.6,0-1.1-0.5-1.1-1.1l0.1-16.3c0-0.6,0.5-1.1,1.1-1.1
		C389,143.4,389.4,143.9,389.4,144.4z"/>
</g>
<g>
	<path class="st6" d="M410.4,144.1l0.5,8.3l0.4,8.3c0,0.6-0.4,1.2-1,1.2c-0.6,0.1-1.2-0.4-1.2-1l-0.4-8.3l-0.5-8.4
		c0-0.6,0.4-1.1,1.1-1.2C409.9,143,410.4,143.4,410.4,144.1z"/>
</g>
<g>
	<path class="st6" d="M400,141.5l0.6,19c0.1,0.6-0.4,1.1-1,1.1c-0.6,0.1-1.1-0.4-1.2-1l-0.6-19c0-0.6,0.4-1.1,1.1-1.2
		C399.5,140.4,400,140.9,400,141.5z"/>
</g>
<g>
	<path class="st6" d="M365.9,72.6l0.1,0.1l0.3,0.1c1.7,0.6,4.2,1.2,5.4-0.5c0.3-0.6,0.9-0.8,1.4-0.5c0.6,0.3,0.8,0.9,0.5,1.4
		c-2,2.8-5.9,3-8.7,1.2c-0.6-0.4-0.9-0.9-1.2-1.6c-0.1-0.6,0.4-1.2,1-1.2C365.4,71.7,365.8,72.1,365.9,72.6z"/>
</g>
</svg>
