<?xml version="1.0" encoding="utf-8"?>
<!-- Generator: Adobe Illustrator 21.0.0, SVG Export Plug-In . SVG Version: 6.00 Build 0)  -->
<svg version="1.1" id="Vrstva_1" xmlns="http://www.w3.org/2000/svg" xmlns:xlink="http://www.w3.org/1999/xlink" x="0px" y="0px"
	 viewBox="0 0 500 250" style="enable-background:new 0 0 500 250;" xml:space="preserve">
<style type="text/css">
	.st0{fill:#666666;}
	.st1{fill:#666666;stroke:#FFFFFF;stroke-miterlimit:10;}
	.st2{fill:#FFFFFF;}
	.st3{font-family:'KohinoorBangla-Regular';}
	.st4{font-size:13.3668px;}
	.st5{font-size:35px;}
	.st6{fill:#FFFFFF;stroke:#FFFFFF;stroke-width:1.1999;stroke-miterlimit:10;}
	.st7{fill:#FFFFFF;stroke:#FFFFFF;stroke-width:1.0001;stroke-miterlimit:10;}
	.st8{fill:none;stroke:#FFFFFF;stroke-width:1.1999;stroke-miterlimit:10;}
</style>
<rect class="st0" width="500" height="250"/>
<g>
	<path class="st1" d="M206.9,183.7H88.9c-6.3,0-11.5,5.2-11.5,11.5v7.6c0,6.3,5.2,11.5,11.5,11.5h118.1c6.3,0,11.5-5.2,11.5-11.5
		v-7.6C218.4,188.9,213.2,183.7,206.9,183.7z"/>
	<text transform="matrix(1.0031 0 0 1 104.6484 203.3242)" class="st2 st3 st4">Více informací </text>
</g>
<text transform="matrix(1 0 0 1 68.4023 69.1484)"><tspan x="0" y="0" class="st2 st3 st5">Kotelny a  </tspan><tspan x="-18.9" y="42" class="st2 st3 st5">vyměníkové  </tspan><tspan x="22.1" y="84" class="st2 st3 st5">stanice</tspan></text>
<path class="st6" d="M388.7,139.9l-2.5-1.9c0.3-5.1,0.5-9.8,0.6-13.6c16-0.2,62.4,0.8,78.5,0.6c0.3,15.8,0.5,47.4,0.8,63.2
	c-14.9-0.2-55.1-1.3-75.6-1.7c-2.5,0,0.8-3-1.1-3c17.2,0.3,59.8,1.5,74.2,1.7c-0.3-14-0.4-43.2-0.7-57.1
	c-14.1,0.3-59.5-1.3-73.6-1.1v1.6L388.7,139.9z"/>
<polygon class="st6" points="292.4,182.5 391.8,183.6 391.9,186.6 292.4,185.6 "/>
<path class="st7" d="M445.4,167.6h10.7c0.3,0,0.5,0.2,0.5,0.4v9c0,0.3-0.2,0.5-0.5,0.5h-10.7c-0.3,0-0.5-0.2-0.5-0.5v-9
	C444.9,167.8,445.1,167.6,445.4,167.6z"/>
<path class="st7" d="M445.4,148c3.6,0.3,7.1,1.1,10.7,0.7c0.3,0,0.5,0.2,0.5,0.5c0,2.8,0,5.5,0,8.4c0,0.2-0.2,0.4-0.5,0.4
	c-3.6,0-7.1,0-10.7,0c-0.3,0-0.5-0.2-0.5-0.4c0-3,0-6,0-9C444.9,148.2,445.1,148,445.4,148z"/>
<path class="st7" d="M445.4,134.1c3.6,0.2,7.1-0.6,10.7,1.2c0.2,0.2,0.5,0.2,0.5,0.5c0,2.8,0,4,0,6.7c0,0.2-0.2,0.5-0.5,0.5
	c-3.6,0-7.1,0-10.7,0c-0.3,0-0.5-0.3-0.5-0.5c0-3,0-5,0-8.1C444.9,134.3,445.1,134.1,445.4,134.1z"/>
<path class="st7" d="M421.1,148.2h10.7c0.3,0,0.6,0.2,0.5,0.5l-0.5,8.6c0,0.3-0.2,0.5-0.5,0.5l-10.2,0.3c-0.3,0-0.5-0.2-0.5-0.5
	v-8.9C420.6,148.4,420.8,148.2,421.1,148.2z"/>
<path class="st7" d="M421.1,167.5c3.6,0.2,9.1-2.4,10.7,0.7c0.2,0.2,0.5,0.2,0.5,0.4c0,2.8,0,6.1,0,8.8c0,0.3-0.2,0.6-0.5,0.5
	c-3.4-0.8-7.1-0.5-10.7-0.5c-0.3,0-0.5-0.2-0.5-0.5c0-2.9,0-6,0-8.9C420.6,167.6,420.8,167.5,421.1,167.5z"/>
<path class="st7" d="M421.1,132.5c3.6,0.2,7.2-0.6,10.7,1.2c0.3,0.2,0.5,0.2,0.5,0.5c0,2.8,0,3.4,0,6.3c0,0.2-0.2,0.4-0.5,0.4
	c-3.5,0-7.1-0.1-10.7,0.5c-0.3,0.1-0.5-0.2-0.5-0.4c0-3,0-5,0-8.1C420.6,132.7,420.8,132.4,421.1,132.5z"/>
<path class="st7" d="M397.2,132.2h10.7c0.3,0,0.5,0.2,0.5,0.5l-0.5,8.6c0,0.3-0.2,0.5-0.5,0.5l-10.2,0.3c-0.3,0-0.5-0.2-0.5-0.4v-9
	C396.7,132.3,396.9,132.2,397.2,132.2z"/>
<path class="st7" d="M397.2,149.6c3.6,0.3,8.7-1.5,10.4,1.5c0.1,0.2,0.5,0.2,0.5,0.4c0,2.8-0.9,5.1-0.9,7.9c0,0.3-0.2,0.5-0.5,0.5
	c-0.9-0.2-1.4,0.8-2.3,0.7c-3.3-5.5-5.2-7.2-7.8-10.4C396.5,149.9,396.9,149.6,397.2,149.6z"/>
<path class="st6" d="M292.3,183.3c1.2-7.7,1.6-15.8,4.8-22.9c9.8-21.2,34.1-31.3,56.1-31.9c19-0.6,37.9,8.4,49,23.8
	c4.4,6.3,7,14,9.5,21.4c0.9,2.8,1.4,6.7,2.1,11.4c0,0.8-1.7,1.4-2.6,1.4c-0.8,0-1.4-0.7-1.4-1.4c-4.7-30.7-20.6-54.9-56.5-53.8
	c-34.5,0.9-54.8,18.8-58.2,51.9c0,0.8-0.7,1.4-1.4,1.4S292.3,184.1,292.3,183.3z"/>
<g>
	<g>
		<path class="st2" d="M323.6,184.1c0.7-3.6,1-7.4,2.7-10.7c5.5-11.3,17.4-17.3,29.6-16.9c15.2,0.4,25.9,12.8,29.9,26.5l0.1,0.4
			l0.1,0.3c0.2,0.4,0.2,0.9,0,1.2l-0.3,0.4l0,0l0,0l-1.1,0.4l-0.6-0.1l-0.3-0.2c-0.4-0.3-0.5-0.8-0.6-1.2
			c-2.5-9.1-7.5-17.2-16.1-21.7c-10.2-5.4-23.2-3.6-31.8,4.1c-2.7,2.3-4.8,5.1-6.4,8.3c-1.5,2.8-1.8,6.2-2.4,9.4
			c0,0.8-0.7,1.4-1.4,1.4S323.6,184.8,323.6,184.1L323.6,184.1z M384.6,185.6L384.6,185.6L384.6,185.6L384.6,185.6L384.6,185.6z
			 M384.6,185.7L384.6,185.7L384.6,185.7L384.6,185.7z"/>
		<path class="st8" d="M323.6,184.1c0.7-3.6,1-7.4,2.7-10.7c5.5-11.3,17.4-17.3,29.6-16.9c15.2,0.4,25.9,12.8,29.9,26.5l0.1,0.4
			l0.1,0.3c0.2,0.4,0.2,0.9,0,1.2l-0.3,0.4l0,0l0,0l-1.1,0.4l-0.6-0.1l-0.3-0.2c-0.4-0.3-0.5-0.8-0.6-1.2
			c-2.5-9.1-7.5-17.2-16.1-21.7c-10.2-5.4-23.2-3.6-31.8,4.1c-2.7,2.3-4.8,5.1-6.4,8.3c-1.5,2.8-1.8,6.2-2.4,9.4
			c0,0.8-0.7,1.4-1.4,1.4S323.6,184.8,323.6,184.1L323.6,184.1z M384.6,185.6L384.6,185.6L384.6,185.6L384.6,185.6L384.6,185.6z
			 M384.6,185.7L384.6,185.7L384.6,185.7L384.6,185.7z"/>
	</g>
</g>
<path class="st6" d="M297.3,160.6c-0.6-11.3,2.5-14.4,4-21.5c1.3-6.2,4.4-12,4.6-18.3l1.4-49.3c0.2-3.2,0.3-6.7,3.4-8.4
	c4.6-2.3,10.1-0.6,10.7,4.9v7.5c-0.4,11.2-0.2,22.5,0.6,33.8c0.6,8.8,1.6,17.5,3.2,26.2c0.4,0.7,0.1,1.5-0.6,1.9
	c-0.8,0.4-2.3,0-2.6-0.8c-1.8-9.1-2.8-18-2.9-27.3l-0.6-34.1c0-0.5,0.1-1.4,0.2-2.7c0.2-2.8,0.1-6.4-1.9-7.3c-1.6-0.7-4.6-0.4-5.8,1
	c-1.1,1.2-0.9,4-1,5.1c-0.9,19.7,1.9,33-1.4,54.7c-0.5,3.4-1.5,7.5-2.8,11.9c-2.2,7.1-2.6,11.4-3.2,17.7c0,0.9-3,5-3.8,5
	C297.9,160.7,297.3,161.4,297.3,160.6z"/>
<g>
	<path class="st6" d="M341.2,162.1l-0.1,21.4c0,0.9-0.6,1.4-1.4,1.4c-0.8,0-1.4-0.7-1.4-1.4l0.1-21.4c0-0.8,0.7-1.4,1.4-1.4
		C340.6,160.7,341.2,161.4,341.2,162.1z"/>
</g>
<g>
	<path class="st6" d="M368.9,161.7l0.7,10.9l0.6,10.9c0,0.9-0.6,1.5-1.3,1.5c-0.8,0.1-1.5-0.6-1.5-1.3l-0.6-10.9l-0.7-11
		c0-0.8,0.6-1.4,1.4-1.5C368.3,160.2,368.9,160.8,368.9,161.7z"/>
</g>
<g>
	<path class="st6" d="M355.2,158.3l0.8,25.1c0.1,0.8-0.6,1.4-1.3,1.4c-0.9,0.1-1.4-0.6-1.5-1.3l-0.8-25.1c0-0.9,0.6-1.4,1.4-1.5
		C354.5,156.8,355.2,157.5,355.2,158.3z"/>
</g>
<g>
	<path class="st6" d="M310.3,67.4l0.2,0.2l0.4,0.2c2.3,0.9,5.5,1.5,7.1-0.7c0.4-0.8,1.2-1,1.9-0.7c0.8,0.4,1,1.2,0.7,1.9
		c-2.7,3.7-7.8,3.9-11.5,1.6c-0.9-0.6-1.2-1.1-1.5-2.1c-0.1-0.8,0.6-1.5,1.3-1.5C309.5,66.3,310.1,66.8,310.3,67.4z"/>
</g>
</svg>
