<?xml version="1.0" encoding="utf-8"?>
<!-- Generator: Adobe Illustrator 21.0.0, SVG Export Plug-In . SVG Version: 6.00 Build 0)  -->
<svg version="1.1" id="Vrstva_1" xmlns="http://www.w3.org/2000/svg" xmlns:xlink="http://www.w3.org/1999/xlink" x="0px" y="0px"
	 viewBox="0 0 500 250" style="enable-background:new 0 0 500 250;" xml:space="preserve">
<style type="text/css">
	.st0{fill:#666666;}
	.st1{fill:#666666;stroke:#FFFFFF;stroke-miterlimit:10;}
	.st2{fill:#FFFFFF;}
	.st3{font-family:'KohinoorBangla-Regular';}
	.st4{font-size:13.3668px;}
	.st5{font-size:35px;}
	.st6{fill:none;stroke:#FFFFFF;stroke-width:1.1999;stroke-miterlimit:10;}
	.st7{fill:#FFFFFF;stroke:#FFFFFF;stroke-width:1.1999;stroke-miterlimit:10;}
</style>
<rect class="st0" width="500" height="250"/>
<g>
	<path class="st1" d="M212.9,165.7H94.9c-6.3,0-11.5,5.2-11.5,11.5v7.6c0,6.3,5.2,11.5,11.5,11.5h118.1c6.3,0,11.5-5.2,11.5-11.5
		v-7.6C224.4,170.9,219.2,165.7,212.9,165.7z"/>
	<text transform="matrix(1.0031 0 0 1 110.6484 185.3242)" class="st2 st3 st4">Více informací </text>
</g>
<text transform="matrix(1 0 0 1 69.3975 105.1484)" class="st2 st3 st5">Kanalizace</text>
<g>
	<path class="st2" d="M364.6,43.7c13.1,0.2,26.1,0.5,32.7,0.7c0.3,12.4,1.9,26.7,2.2,39.2c-7,0-21-0.2-34.9-0.2v-2.4
		c12.6,0.1,25.1,0.2,31.3,0.2c-0.4-10.6-1.1-22.9-1.6-33.6v-1.2c-5.7-0.2-17.6-0.3-29.6-0.5V43.7z M332.2,43
		c6.5,0.2,19.5,0.5,32.4,0.7v2.2c-12.3-0.1-24.7-0.2-30.5-0.4c-0.2,11.3-0.5,24-0.7,35.3c6.1,0,18.7,0.1,31.2,0.2v2.4
		c-13.3-0.1-26.6-0.2-33.3-0.2C331.5,70.4,331.9,55.9,332.2,43z"/>
	<path class="st6" d="M332.2,43c12.9,0.4,52.1,1.1,65.1,1.5c0.3,12.4,1.9,26.7,2.2,39.2c-13.6-0.1-54.6-0.4-68.2-0.5
		C331.5,70.4,331.9,55.9,332.2,43L332.2,43z M394.2,47.7c0.5,10.6,1.2,23,1.6,33.6c-12.3-0.1-50.2-0.3-62.5-0.4
		c0.2-11.3,0.5-24,0.7-35.3c11.4,0.3,48.7,0.5,60.1,0.9V47.7z"/>
</g>
<polygon class="st7" points="387.3,82.6 388.3,100.2 388.6,101.5 385.8,101.5 385.8,100.3 384.9,82.7 384.5,81.3 387.3,81.3 "/>
<path class="st7" d="M387,105.2c1.9,0,3.4-1.2,3.4-2.8c0-1.5-1.5-2.7-3.4-2.7c-1.8,0-3.3,1.2-3.3,2.7
	C383.8,103.9,385.2,105.2,387,105.2z"/>
<g>
	<path class="st7" d="M336.7,129.8c1.1,12-0.4,27.3,9.7,36.2c6.6,5.9,16.8,6.4,25.1,5c9.9-1.6,17-8.2,20-17.8c2-6.9,2-13.9,2.3-21
		c0-0.7,0.6-1.2,1.2-1.2c0.7,0,1.2,0.6,1.2,1.2c-0.5,11.3-0.6,22.4-7.6,31.8c-7,9.3-19.2,10.9-30.1,9.8c-7-0.7-14.9-4.7-18.3-11.2
		c-2.7-5.4-4.4-11.3-5.3-17.2l-0.7-15.6c0-0.7,0.6-1.2,1.2-1.2C336.1,128.6,336.7,129.1,336.7,129.8z"/>
</g>
<g>
	<g>
		<path class="st2" d="M365.7,124.7l26,0.7c1.2,0,3,2.6,3.2,2.8c1.1,1.1,2.8,1.7,3.5,3.1c0.4,0.7-0.5,1.6-1.2,1.6l-30.2-1.2
			l-1.3-0.1v-2.5l1.5,0.1l18.3,0.7l8,0.3l-0.2-0.2l-2.1-2.2l-24.6-0.7h-0.9V124.7z M342.4,124l23.3,0.7v2.5l-24.5-0.7l-3.4,2.2
			l10.1-0.1l17.9,0.6v2.5l-32.1-0.5c-0.7,0-1.2-0.6-1.3-1.2v-0.2c0-0.2,0.2-0.5,0.4-0.7l7.9-5.1C341.2,123.5,342,123.5,342.4,124z"
			/>
		<path class="st6" d="M342.4,124l49.4,1.5c1.2,0,3,2.6,3.2,2.8c1.1,1.1,2.8,1.7,3.5,3.1c0.4,0.7-0.5,1.6-1.2,1.6l-30.2-1.2
			l-33.4-0.6c-1,0-1.9-1.4-0.9-2.1l7.9-5.1C341.2,123.5,342,123.5,342.4,124L342.4,124z M341.3,126.4l-3.4,2.2l10.1-0.1l19.3,0.7
			l18.3,0.7l8,0.3l-0.2-0.2l-2.1-2.2l-24.6-0.7L341.3,126.4z"/>
	</g>
</g>
<path class="st7" d="M363.9,82.4l0.5,42.3c0,0.6-0.6,1.1-1.1,1.1c-0.7,0-1.2-0.6-1.2-1.1l-0.4-42.5c0-0.6,0.6-1.1,1.2-1.1
	C363.4,81.2,363.9,81.7,363.9,82.4z"/>
<path class="st7" d="M369.5,82.4l0.5,42.3c0,0.6-0.6,1.1-1.1,1.1c-0.7,0-1.1-0.6-1.1-1.1l0.3-42.5c1.9-1.3,0-1.2,0.4-1.1
	C369.1,81.2,369.6,81.7,369.5,82.4z"/>
<path class="st7" d="M353.5,171.6l-2,6.4l-3.4,10.6l-7.1,21.7c6.1,0.2,12.5,0.3,19,0.5l26.2-0.2c-4.3-14.5-8.5-25.5-12.5-38.3
	c-0.2-0.7,0.1-1.3,0.7-1.5c0.6-0.2,1.2,0.1,1.4,0.7l12.7,39.8c0.2,0.7-0.2,1.6-1,1.6l-39.8-0.7l-8.6-0.5c-0.3-0.1-0.7-0.5-0.6-0.8
	l12.9-39.8c0.2-0.6,0.7-1,1.4-0.8C353.2,170.4,353.6,171.1,353.5,171.6z"/>
</svg>
