<?xml version="1.0" encoding="utf-8"?>
<!-- Generator: Adobe Illustrator 21.0.0, SVG Export Plug-In . SVG Version: 6.00 Build 0)  -->
<svg version="1.1" id="Vrstva_1" xmlns="http://www.w3.org/2000/svg" xmlns:xlink="http://www.w3.org/1999/xlink" x="0px" y="0px"
	 viewBox="0 0 500 250" style="enable-background:new 0 0 500 250;" xml:space="preserve">
<style type="text/css">
	.st0{fill:#666666;}
	.st1{fill:#666666;stroke:#FFFFFF;stroke-miterlimit:10;}
	.st2{fill:#FFFFFF;}
	.st3{font-family:'KohinoorBangla-Regular';}
	.st4{font-size:13.3668px;}
	.st5{font-size:35px;}
</style>
<rect class="st0" width="500" height="250"/>
<g>
	<path class="st1" d="M205.9,177.7H87.9c-6.3,0-11.5,5.2-11.5,11.5v7.6c0,6.3,5.2,11.5,11.5,11.5h118.1c6.3,0,11.5-5.2,11.5-11.5
		v-7.6C217.4,182.9,212.2,177.7,205.9,177.7z"/>
	<text transform="matrix(1.0031 0 0 1 103.6484 197.3242)" class="st2 st3 st4">Více informací </text>
</g>
<text transform="matrix(1 0 0 1 92.3047 61.1484)"><tspan x="0" y="0" class="st2 st3 st5">Čištění </tspan><tspan x="-50.3" y="42" class="st2 st3 st5">klimatizace a</tspan><tspan x="-28.6" y="84" class="st2 st3 st5">kanalizace</tspan></text>
<path class="st2" d="M432.2,86.3l-14.7-13.8l4.3-3.5c5.9,4.8,10.8,10.3,17,14.5c1.2,0.9,2.2,2.2,3.5,3c-4,4-4.5,10.2-4.5,15
	c-1.1,0-9.6,8.6-10.8,9.6c-3.1,2.6-5.9,5.5-8.9,8.3l-4.8-4.3l11.6-10.1l-8.1,3.3l-8.1,3.5l-2.4-5.7l19.4-7.8
	c-5.5-0.2-10.9-1-16.3-0.6l-5.2,0.4l-0.4-6.5c1.9-0.1,3.9-0.4,5.8-0.4c7.1,0.4,14.3,0.8,21.5,1.4l-24.7-9.1l1.6-6.3L432.2,86.3z"/>
<path class="st2" d="M444.3,100.4c-2,0.3-5.5,0.3-6.8,2.3c-0.7,1,0.4,2.3,1.2,3c2.3,2.2,5.7,3.2,8.8,3.5c6,0.6,9.9,0.4,15.8-1.2
	c0.5-0.1,4-1.1,4.5-2.5c0.1-0.2,0-0.6-0.1-0.7c-3.7-3-4.6-2.9-9.4-4.5c-0.7-0.1-1.1-0.8-0.9-1.4c0.1-0.7,0.8-1.2,1.4-0.9
	c3.8,1.2,11.2,1.9,13.5,6.3c0.6,1.3-0.1,3.2-1.3,4c-4.8,3.2-11.1,3.7-16.7,3.8c-5.7,0-12.7-0.4-17.1-4.5c-1.9-1.7-3.2-4.7-1.1-6.8
	c2.2-2.2,5.4-2.4,8.4-2.9c0.6-0.1,1.3,0.5,1.3,1.2C445.5,99.8,445,100.4,444.3,100.4z"/>
<g>
	<path class="st2" d="M436.8,158.4c9.3,1.9,19.9,5.7,29.2,1.4c1.9-0.9,2.9-2.2,4.2-3.7c0.4-0.6,1.3-0.8,1.9-0.4
		c0.6,0.4,0.8,1.3,0.4,1.9c-3.4,3.8-6.9,6.1-12.2,6.6c-8.4,0.6-16.1-1.5-24.2-3.2c-0.8-0.1-1.2-0.9-1-1.7
		C435.3,158.6,436,158.2,436.8,158.4z"/>
</g>
<path class="st2" d="M435.6,140c2.7,1.2,5.2,2.2,7.8,3.3c7.2,3,11.9,1.2,19,0.9c2.6-0.1,5.5-1.2,6.1-3.1c0.2-0.6,0.5-1.2,1.2-1.2
	s1.2,0.6,1.2,1.2c-0.1,1.9-0.7,4-2.6,5c-4.5,2.4-16.8,3-21.7,1.7c-1.7-0.4-13.7-4.7-12.7-7.1C434.2,140,435,139.7,435.6,140z"/>
<path class="st2" d="M436.5,105.3c2.5,20.6-0.4,48,1.7,71.5c10,6.5,19.1,7.6,30.1,0.6c-0.5-23,0.4-46.6-0.1-69.6
	c-0.1-0.6-0.3-1.1-0.4-1.6c1.2,0,2.4,0,3.5,0c-0.1,0.5-0.3,1-0.4,1.5c0.5,24,2.4,47.2,1.5,71.9c-11.7,10.4-24.2,7.8-36.9-0.8
	c-0.6-24.5-1.2-49-1.8-73.5c-0.6-2.7,0.8-1.6,3.2-1.6C436.8,104.3,436.6,104.8,436.5,105.3z"/>
<path class="st2" d="M447,102.5c-0.3-1.7-0.5-3.4-0.6-5.1c-0.1-0.7-0.1-1.4-0.1-2.2c0-1,0.1-1.9,0.3-3l0.3-1
	c0.2-0.4,0.4-0.9,0.6-1.3l0.6-0.7l0.7-0.6l0.9-0.4l0.9-0.2c0.5-0.1,0.9-0.1,1.4-0.1l0.9,0.1c0.6,0.1,1.1,0.2,1.7,0.4l0.9,0.5
	l0.9,0.6c0.4,0.4,0.7,0.7,1.1,1.2c0.3,0.4,0.6,0.9,0.9,1.4c0.2,0.5,0.4,1,0.6,1.5c0.4,1.2,0.6,2.3,0.9,3.5c0.6,3.2,0.8,6.2,0.6,9.4
	l-3.4-2.9c-0.2-3.2-0.6-10.9-3.5-12.4c-5.4-2.7-5.8,4-5.5,7.7c0.1,1.2,0.3,2.2,0.4,3.4l-1.4,1.5L447,102.5z"/>
<path class="st2" d="M450.7,92.5c1.2,0,2.2,1.4,2.2,3c-0.1,1.6-1.2,3-2.4,3s-2.2-1.4-2.1-3C448.5,93.9,449.6,92.5,450.7,92.5z"/>
<path class="st2" d="M450.5,93.5c0.1,0,0.1,0.1,0.3,0.1c1.1,0.9,0.9,3.3-0.4,4c-0.3,0.1-0.4,0.1-0.6-0.1c-0.9-0.9-0.7-2.9,0.2-3.7
	C450.2,93.5,450.3,93.5,450.5,93.5z"/>
<path class="st2" d="M295.8,77.6c1.7,28.2,2.6,56.3,5.1,84.4c0.5,6,4.8,15.2,10.9,18.1c15.5,7.4,36.3,7.8,51.6-0.1
	c16.9-8.9,3.5-52.5,8.5-67c1.9-5.5,5.8-6.8,11.2-7.7c1.4,0,2.6,1.2,2.6,2.6c0,1.4-1.2,2.5-2.6,2.5c-2.1,0.4-4.6,0.5-5.8,2.7
	c-5.6,11.5,2.1,38.7-1.3,53.9c-2.5,11-9,19.7-24.1,22.5c-14.1,2.6-26,0.4-39.5-3.5c-9.2-2.7-15.9-14.2-16.4-22.7l-5.3-85.6
	c-0.1-1.4,1.1-2.6,2.4-2.6C294.6,75,295.7,76.2,295.8,77.6z"/>
<path class="st2" d="M313.1,77.1c0.5,19.3,0.4,38.5,1.4,57.7c0.5,9.4,3.2,30.2,16.5,32.1c6.8,0.9,17.1,0.3,21.7-5.8
	c6-7.8,2.7-24,2.6-32.5c0-9.5-1.1-21.7,5.9-29.3c5.6-6,13-5.8,20.5-6.9c1.4,0,2.6,1.2,2.6,2.5c0,1.4-1.2,2.6-2.6,2.6
	c-6.3,0.9-14.2,0.6-18,6.9c-3.2,5.3-3.2,11.8-3.3,17.8c-0.2,12.1,0.4,25.8-1.2,35.8c-1.9,11.3-16.3,13.9-24.8,14.4
	c-11.8,0.7-21.7-10.1-23-20.7c-2.7-24.7-2.1-49.6-3.5-74.4c-0.1-1.4,1.1-2.6,2.5-2.6C311.8,74.6,313,75.8,313.1,77.1z"/>
<path class="st2" d="M301.1,75.1c5.5,0.1,10.9-0.7,15-4c1-0.8,1.7-1.9,2.3-3c0.1-0.3,0.4-0.6,0.6-1.1l-18,0.1v-4h20.7
	c3.6,0.1,0.9,5.4,0.2,6.7c-3.8,6.8-12.2,8.9-19.6,8.9c-0.4,0-0.9,0-1.3,0V75.1z M283.1,67.2c0.6,2.5,1.9,5,4.7,5.8
	c3.9,1,8.6,1.9,13.3,2.2v3.7c-7,0-16.1-0.3-20.3-6.7c-1.4-2-1.7-4.1-1.9-6.4c0-0.1,0-0.3,0-0.4c0-1.1,0.9-1.9,1.9-1.9l20.3-0.1v4
	H283.1z"/>
<path class="st2" d="M392.6,88.4c-1.5,0.3-2.8,0.8-3.9,1.4v-4.5c1.7-0.6,3.5-0.9,5.3-1.2c0.1-0.1,0.4-0.1,0.6-0.1
	c1.1,0,1.9,0.9,1.9,1.9l0.1,30.4c-0.1,3.4-5.1,1.2-6.6,0.6c-0.4-0.2-0.9-0.4-1.3-0.6V112c0.8,0.7,1.7,1.2,2.7,1.5
	c0.4,0.1,0.8,0.4,1.3,0.6L392.6,88.4z M388.7,89.9c-1.9,1.2-3,3.1-3.6,6.2c-0.9,4.9-0.6,12,3.3,15.7c0.1,0.1,0.1,0.1,0.3,0.2v4.5
	c-9-4.9-9.8-18.6-5.3-26.9c1.2-2.2,3.1-3.5,5.3-4.2V89.9z"/>
</svg>
