<?xml version="1.0" encoding="utf-8"?>
<!-- Generator: Adobe Illustrator 21.0.0, SVG Export Plug-In . SVG Version: 6.00 Build 0)  -->
<svg version="1.1" id="Vrstva_1" xmlns="http://www.w3.org/2000/svg" xmlns:xlink="http://www.w3.org/1999/xlink" x="0px" y="0px"
	 viewBox="0 0 500 250" style="enable-background:new 0 0 500 250;" xml:space="preserve">
<style type="text/css">
	.st0{fill:#666666;}
	.st1{fill:#666666;stroke:#FFFFFF;stroke-miterlimit:10;}
	.st2{fill:#FFFFFF;}
	.st3{font-family:'KohinoorBangla-Regular';}
	.st4{font-size:13.3668px;}
	.st5{font-size:35px;}
</style>
<rect class="st0" width="500" height="250"/>
<g>
	<path class="st1" d="M212.9,166.7H94.9c-6.3,0-11.5,5.2-11.5,11.5v7.6c0,6.3,5.2,11.5,11.5,11.5h118.1c6.3,0,11.5-5.2,11.5-11.5
		v-7.6C224.4,171.9,219.2,166.7,212.9,166.7z"/>
	<text transform="matrix(1.0031 0 0 1 110.6484 186.3242)" class="st2 st3 st4">Více informací </text>
</g>
<text transform="matrix(1 0 0 1 52.4399 83.1484)"><tspan x="0" y="0" class="st2 st3 st5">Konzultace a</tspan><tspan x="-32.4" y="42" class="st2 st3 st5">technická pomoc</tspan></text>
<path class="st2" d="M431.8,188c13.1-1.8,25.5-3.5,39-5.3c2.7-0.4,4.1-0.9,2.2-4.3c-5.6-11-14.8-24.4-22.2-36.6
	c-6.1,4.8-12.7,6.6-19,5.5V143c6,1.3,12.4-0.5,18.1-5.3c11.6-12.5,5-44.4-1.6-58.5c-3.2-7-9.3-15-16.6-19.2v-4.7
	c8.5,4.3,15.8,13.4,19.9,22.3c4.3,9.4,14.3,46.9,2.5,60.8l0.2,0.9c5.6,15,22.3,27.4,25.9,42.7c0.7,3.3,1,3.6-1.7,3.8
	c-16,1.2-31.5,3.5-46.9,6V188L431.8,188z M431.8,123.6c4-1.7,7.7-7.1,8.4-12.9l-2.6-0.4c-0.7,3.8-3.1,6.8-5.8,7.8V123.6L431.8,123.6
	z M431.8,87c1.8-0.4,4-2.5,3.9-4.8c-0.1-2.1-2.2-3.5-3.9-3.8V87L431.8,87z M431.8,69.3c0.9-0.9,0.6-1.3,0-1.4V69.3z M427,188.7
	c1.7-0.2,3.2-0.4,4.8-0.6v3.9c-1.6,0.3-3.2,0.6-4.8,0.8V188.7L427,188.7z M431.8,147.3c-1.7-0.3-3.2-0.8-4.8-1.4v-4.7
	c1.6,0.8,3.2,1.4,4.8,1.8V147.3L431.8,147.3z M427,53.6c1.7,0.4,3.2,1,4.8,1.8V60c-1.6-0.9-3.2-1.7-4.8-2.2V53.6L427,53.6z
	 M431.8,67.9v1.4c-0.3,0.2-0.6,0.5-1.1,0.9l-3.7,3.2v-3.8c0.5-0.6,1.1-1.1,1.8-1.4C429.1,68,430.9,67.7,431.8,67.9L431.8,67.9z
	 M431.8,78.4V87c-0.1,0-0.2,0.1-0.4,0.1c-1.8,0.1-3.4-1.6-3.5-4s1.3-4.5,3.1-4.7C431.3,78.4,431.5,78.4,431.8,78.4L431.8,78.4z
	 M431.8,118.2v5.4c-1.6,0.6-3.2,0.8-4.8,0.1v-5.9C428.5,118.8,430.2,118.9,431.8,118.2L431.8,118.2z M427,101.7V90.5
	c0.1,0,0.1-0.1,0.1-0.1c0.6,1.7,0.8,3.6,1.2,5.3c0.3,1.5,0.7,3.2,1.8,4.3c-0.8,0.8-1.7,1.6-2.4,2.4
	C427.4,102.2,427.2,101.9,427,101.7z M414.7,190.3c1.1-0.1,2.2-0.1,3.4-0.2c1.2-0.9,0.5-0.9,1.4-2.2l-1.8-17.6
	c-1.1-4.2,4.2-3.7,4.2-0.5c1.1,6.5,1.1,19.2,3.3,19.3c0.6-0.1,1.2-0.2,1.8-0.3v4c-4.1,0.7-8.2,1.4-12.3,2.1V190.3L414.7,190.3z
	 M427,145.9c-3.7-1.6-7.3-4.4-10.2-8.3c-0.7-1-1.4-2-2.1-3.1v-7.3c1.3,2.4,2.8,4.8,4.4,7.2c2.4,3,5,5.3,7.9,6.8V145.9L427,145.9z
	 M414.7,54.3c4.2-1.7,8.4-1.8,12.3-0.7v4.3c-4-1.2-8.1-1.2-12.3,0.8V54.3L414.7,54.3z M427,69.6v3.8l-0.4,0.4
	c-0.4,0.6-4.5,0.9-1.9-1.9C425.6,71.3,426.2,70.4,427,69.6L427,69.6z M427,90.5v11.2c-1.1-1.4-1.5-2.7-2.2-5c-0.4-1-0.5-4.2-0.9-5.2
	C424.9,91.2,426,90.8,427,90.5L427,90.5z M427,117.8v5.9c-2.3-0.9-4.5-3.5-6-8.2l3.1-1.4C424.9,116,425.9,117.2,427,117.8L427,117.8
	z M414.7,91.2v-7.3c1.7-0.1,3.7,1.2,3.9,3.2c0.1,2.1-1.7,4-3.5,4.1C414.9,91.2,414.8,91.2,414.7,91.2L414.7,91.2z M414.7,78.8v-3.5
	C416.5,76,416.7,79,414.7,78.8z M408.1,190.8c2.2-0.1,4.3-0.3,6.6-0.5v4.5c-1.4,0.3-2.9,0.5-4.2,0.8
	C406,196.7,404.9,190.8,408.1,190.8L408.1,190.8z M414.7,134.5c-7.8-12.3-12.3-26.1-14.5-40.5c-1.4-11.9-1.4-24.2,6.3-34.1
	c2.7-2.7,5.5-4.5,8.3-5.7v4.4c-1.9,0.9-3.7,2.1-5.5,3.7c-6.8,8.7-6.6,20.6-5.4,31.1c1.9,11.9,5.2,23.3,10.9,33.6V134.5L414.7,134.5z
	 M414.7,75.2c-0.2-0.1-0.4-0.1-0.6-0.1c-1.5-0.3-2.8-0.3-4.2-0.4c-3.5-0.5-3,2.9-0.4,3c1.4,0.1,2.7,0.2,4.2,0.9
	c0.4,0.1,0.6,0.2,0.9,0.3V75.2L414.7,75.2z M414.7,83.9c-0.1,0-0.1,0-0.1,0c-1.8,0.1-4,1.7-3.8,3.7c0.1,1.9,2.2,3.5,4,3.5V83.9
	L414.7,83.9z M368.9,196v-3.6c2.6,0.2,5.2,0.4,7.8,0.6c0.2-6.3,1.4-11.8,0.9-18.1c-0.2-3,5.2-4.4,4.1-1.4
	c-0.2,6.2-0.4,12.5-0.6,18.6c0,0.1,0.1,0.9,0.1,0.9c2.3,0.2,4.5-0.2,6.7-0.1c3.4,0,7.1,4.8-0.4,4.2
	C381.2,196.9,375.1,196.5,368.9,196L368.9,196z M368.9,149.3v-4.1c2.8-1.7,5.3-4.4,7.6-8.2c7.3-13.8,9.1-29,7.2-44.4
	c-1.5-8.4-3.5-15.5-9-22.1c-1.8-2.1-3.7-3.8-5.8-5.1V61c1.7,0.9,3.5,2.1,5.4,3.7c2.8-4.9,11.4-22.3,0.7-24.3
	c-2.2-0.1-4.2,0.6-6.1,1.7v-3.8c2-0.9,4.1-1.4,6.5-1.2c5.8,0.9,9.2,4.5,9.6,10.8c-0.3,7.2-3.7,14.3-7.4,20.4l1.9,2.4
	c4.9,7.8,7.2,16,8.3,24.9c1.2,15.3-0.9,29.7-8,43.3C376.6,143.9,372.9,147.4,368.9,149.3L368.9,149.3z M368.9,91.4
	c1.7-0.4,3.7-2.5,3.7-4.1c0-1.7-2-2.2-3.7-2.3V91.4L368.9,91.4z M368.9,77.9c0.8-0.3,1.6-0.5,2.4-0.6c2.6-0.2,4-1.8-0.7-2.3
	c-0.6-0.1-1.2-0.1-1.7,0V77.9z M368.9,38.1V42c-1.3,0.9-2.5,1.9-3.7,3c-0.7,0.8-1.4,1.6-2.2,2.4c-0.1,0.1-0.1,0.2-0.2,0.3l0,0
	l-0.2,0.2c-0.5,0.7-1.1,1.4-1.6,2.2c-0.6,0.9-1.2,1.9-1.8,2.9c-0.5,0.9-1,1.9-1.5,3l-0.1,0.1v-7c0.2-0.3,0.4-0.6,0.6-0.9
	c0.1-0.1,0.1-0.1,0.2-0.3l-0.5-0.6l-0.3-0.3v-6c1.4,0.8,2.8,1.8,4,3l0.4-0.4C364.1,41.2,366.3,39.3,368.9,38.1L368.9,38.1z
	 M368.9,61v4.4c-3.3-2.1-7.1-3.3-11.3-3.9v-3.7l0.9,0.1C362.8,58.5,365.8,59.4,368.9,61L368.9,61z M368.9,75v2.9
	c-0.9,0.3-1.8,0.7-2.7,1.2c-4.3,2-3-2.7-1.2-3.2C366.3,75.5,367.6,75.2,368.9,75L368.9,75z M368.9,84.9v6.4c-0.1,0-0.3,0-0.4,0
	c-1.8,0-3.2-1.4-3.2-3.2c0-1.8,1.4-3.2,3.2-3.2C368.6,84.9,368.7,84.9,368.9,84.9L368.9,84.9z M368.9,145.2v4.1
	c-3.5,1.8-7.3,2.4-11.3,2.1v-3.6C361.6,148.2,365.4,147.4,368.9,145.2L368.9,145.2z M368.9,192.4v3.6c-3.7-0.2-7.5-0.5-11.3-0.8
	v-3.9C361.3,191.7,365,192.2,368.9,192.4L368.9,192.4z M357.6,128v-4.5c2.3,0,4.3-1,5.3-3.6l3.2,1.3l-0.1,0.5
	C364,125.8,360.8,127.7,357.6,128L357.6,128z M357.6,110.9v-3.5c0.6,0.1,1.4,0.3,1.9,0.6L358,111
	C357.8,110.9,357.7,110.9,357.6,110.9L357.6,110.9z M357.6,99.1V97l0.8,0.4c-0.1,0.4-0.3,0.7-0.4,1.1
	C357.8,98.6,357.7,98.9,357.6,99.1z M357.6,40.7v6l-0.9-1c-3.7-3.1-7.6-4.2-12.1-3.7v-3.5C349.1,38,353.7,38.6,357.6,40.7
	L357.6,40.7z M357.6,48.9v7c-0.2,0.6-0.5,1.2-0.7,1.8l0.7,0.1v3.7c-0.8-0.1-1.7-0.2-2.6-0.3c-3.9,0-7.3,0.6-10.4,1.6v-3.9
	c2.3-0.6,4.7-1.1,7.3-1.4h1.3c0.4-1.1,0.9-2.1,1.4-3.2c0.5-1.1,1.1-2.2,1.7-3.2C356.6,50.4,357.1,49.6,357.6,48.9L357.6,48.9z
	 M357.6,97v2.2c-0.3,0.6-0.6,1.3-0.9,1.9c-0.9,1.7-1.8,3.6-1.5,5.5c0,0.1,0.5,0.3,0.6,0.4c0.6,0.1,1.2,0.3,1.7,0.4v3.5
	c-0.6-0.2-1.2-0.3-1.9-0.4c-0.6-0.2-1.3-0.4-1.9-0.6l-0.5-0.4l-0.5-0.4l-0.4-0.6l-0.3-0.6l-0.2-0.6l-0.1-0.9
	c-0.1-1.3,0.1-2.4,0.5-3.6c0.7-2,1.7-3.7,2.5-5.7c0.1-0.4,0.3-0.7,0.4-1.2L357.6,97L357.6,97z M357.6,123.5v4.5
	c-5.3,0.4-11.1-3.8-12.5-9.7l3.3-0.9C349.5,120.6,353.8,123.4,357.6,123.5L357.6,123.5z M357.6,147.8v3.6c-4.2-0.3-8.6-1.6-13-3.7
	v-4.2C349,145.9,353.4,147.4,357.6,147.8L357.6,147.8z M357.6,191.4v3.9c-4.3-0.3-8.6-0.6-13-0.9V190
	C348.9,190.4,353.2,190.9,357.6,191.4L357.6,191.4z M344.5,91.4v-6.2c0.2,0,0.4,0,0.6,0c1.9,0,3.4,1.4,3.4,3.1
	c0,1.7-1.5,3.1-3.4,3.1C345,91.4,344.7,91.4,344.5,91.4L344.5,91.4z M344.5,79.4v-3.2c1.2,0.2,2.2,0.6,3.4,1.2
	c0.9,0.6-0.5,4-1.4,3.2C345.8,80.2,345.2,79.8,344.5,79.4z M344.5,38.5V42c-0.6,0.1-1.4,0.2-2.2,0.4c-6,1.4-10.4,6.2-12.1,12
	l-0.3,1.7l-0.1,1.9l0.1,2.1l0.4,2.2l0.7,2.4l0.6,1.4l1.2-1.2c3.9-3,7.4-5,11.4-6.2v3.9c-14.4,4.8-20,19.4-20.9,35.6
	c0,14.2,3.5,31,14.3,41c2.2,1.5,4.5,3,6.6,4.1v4.2c-1.6-0.8-3.3-1.7-5-2.7l-0.8-0.5c-0.9,16.2-9.8,25.1-14.8,39.2
	c-0.7,2.2-1.2,4.3,1.2,4.5c6.6,0.5,13,1.2,19.4,1.8v4.4c-8.4-0.6-16.9-1.2-25.4-1.8c-1.7-0.8-3-1.7-2.6-3c6-21.4,19.4-31,19-47.5
	l-1.2-0.9l-1.2-1.2l-1.1-1.2l-1-1.2c-8.2-11.7-11.9-25.1-11.9-39.2c0.6-11.1,3.1-20.2,9.8-29.1l0.2-0.3v-0.1l-0.6-1.4L328,66
	l-0.5-1.4l-0.4-1.4l-0.3-1.4l-0.2-1.3l-0.1-1.2l-0.1-1.2l0.1-1.2l0.1-1.2l0.4-2.2l0.6-2c2.1-4.9,5.2-8.5,9.9-11
	c-0.4-1.1-0.7-2.1-1.1-3.1c1-1.2,1.9-2.4,3.2-1.2c0.4,1,0.6,1.9,1,3C341.9,38.9,343.2,38.7,344.5,38.5L344.5,38.5z M344.5,76.2
	c-2.2-0.4-4.5-0.1-6.7-0.2c-1.2-0.1-2.2,1.9-1.1,1.8c2.5-0.1,4.8-0.2,7.8,1.6V76.2L344.5,76.2z M344.5,85.2
	c-1.7,0.1-3.9,0.8-3.9,2.4c0,1.5,2.2,3.5,3.9,3.8V85.2z"/>
</svg>
