<?xml version="1.0" encoding="utf-8"?>
<!-- Generator: Adobe Illustrator 21.0.0, SVG Export Plug-In . SVG Version: 6.00 Build 0)  -->
<svg version="1.1" id="Vrstva_1" xmlns="http://www.w3.org/2000/svg" xmlns:xlink="http://www.w3.org/1999/xlink" x="0px" y="0px"
	 viewBox="0 0 500 250" style="enable-background:new 0 0 500 250;" xml:space="preserve">
<style type="text/css">
	.st0{fill:#666666;}
	.st1{fill:#FFFFFF;}
	.st2{fill:#666666;stroke:#FFFFFF;stroke-miterlimit:10;}
	.st3{font-family:'KohinoorBangla-Regular';}
	.st4{font-size:13.3668px;}
	.st5{font-size:35px;}
</style>
<rect class="st0" width="500" height="250"/>
<path class="st1" d="M305,54.8l45.4-8.5l45.7-8.6c1.5,0,2.7,1.2,2.7,2.7c0,1.5-1.2,2.7-2.7,2.7l-44.3,8.4L305,60.2
	c-1.4,0-2.7-1.2-2.7-2.7C302.4,56,303.6,54.8,305,54.8z"/>
<path class="st1" d="M348.7,210.3l106-26.6c1.4-0.2,2.8,0.8,3,2.3c0.2,1.4-0.9,2.8-2.3,3l-48,13.2L350,215.5c-1.5,0.4-3-0.6-3.2-2
	C346.4,212,347.3,210.6,348.7,210.3z"/>
<path class="st1" d="M399.4,39.5l45.6,117.4l12.4,27.1c0.6,1.4-0.1,3-1.4,3.5c-1.4,0.6-2.9-0.1-3.5-1.4l-26.1-58.6l-32-86.1
	c-0.5-1.4,0.2-3,1.6-3.5C397.3,37.4,398.8,38.1,399.4,39.5z"/>
<path class="st1" d="M307.6,57.3l3.2,141.8c0,1.5-1.2,2.7-2.7,2.7c-1.4,0.1-2.7-1.2-2.7-2.6l-3.2-141.8c-0.1-1.5,1.1-2.7,2.6-2.7
	C306.4,54.7,307.6,55.8,307.6,57.3z"/>
<path class="st1" d="M307.8,58.3l14.3,148.4c0.1,1.1-0.7,2-1.9,2.2c-1.1,0.1-2.1-0.7-2.2-1.8L303.8,58.8c-0.1-1.2,0.7-2.2,1.8-2.2
	C306.8,56.4,307.8,57.2,307.8,58.3z"/>
<path class="st1" d="M307.5,57.5l24.3,151.1c0.1,1.2-0.6,2.2-1.7,2.4c-1.1,0.1-2.2-0.6-2.3-1.7L303.4,58.1c-0.2-1.2,0.6-2.2,1.7-2.4
	C306.3,55.6,307.3,56.3,307.5,57.5z"/>
<path class="st1" d="M310.4,198.2c4.5,2.5,8.8,5.5,13.6,7.6c5.1,2.2,10.7,3.3,16,5c1.4,0.4,2.3,1.9,1.9,3.3
	c-0.4,1.4-1.8,2.3-3.2,1.9c-5.5-1.8-11.3-3-16.6-5.3c-5.5-2.4-10.4-5.9-15.6-8.9c-1-1.1-1-2.8,0.1-3.8
	C307.7,197.1,309.4,197.1,310.4,198.2z"/>
<path class="st1" d="M308,56.7l22.3,80.4l15.6,65.4c0.9,2.6,2,5.8,4,7.8c1.3,0.2,2.3,1.3,2.3,2.7c0,1.5-1.2,2.7-2.7,2.7
	c-2.4-0.4-4-1.7-5.3-3.8c-9.1-16.2-11.7-37.6-15.7-55.2L314,98.3l-11.3-40.5c-0.3-1.4,0.6-2.9,2.1-3.2
	C306.3,54.4,307.7,55.3,308,56.7z"/>
<path class="st1" d="M336.2,77.7l4.8,4l0.4,0.4l0.5-0.6l8.4-18.6c0.4-1.1,1.7-1.6,2.7-1.2c1.1,0.4,1.6,1.6,1.2,2.7l-8.7,19.2
	c-3.6,5.9-8,0.4-11.7-2.7c-0.9-0.7-1.1-1.9-0.4-2.9C334,77.2,335.3,77,336.2,77.7z"/>
<path class="st1" d="M347,112.9l6.2,4.3l0.4,0.2l0.1-0.1l9.2-22.8c0.4-1,1.6-1.5,2.6-1.1s1.5,1.6,1.2,2.7l-8.8,22.2
	c-1.1,1.9-2.4,3.7-4.9,3.1c-3.2-0.8-5.9-3.5-8.4-5.3c-0.9-0.7-1.1-1.9-0.4-2.9C344.8,112.4,346.1,112.2,347,112.9z"/>
<path class="st1" d="M358.5,142.6c1.7,1.2,3.1,2.4,5.1,3l0.4,0.1h0.1l0.3-0.6l5.2-18.7c0.4-1,1.6-1.5,2.6-1.1
	c1.1,0.4,1.6,1.6,1.2,2.7l-5.2,18.7c-2.5,6-8.4,1.7-12.1-0.8c-0.9-0.7-1.1-1.9-0.4-2.9C356.3,142.1,357.6,141.8,358.5,142.6z"/>
<path class="st1" d="M388.2,50.8v-5.4c0.3,0.1,0.5,0.1,0.8,0.1c3.2,0.4,4.9-5.3,3.7-7.6c-0.8-1.6-2.6-2.3-4.5-2.4v-5.4
	c4.2,0.3,8.4,2.5,9.7,6.6C400.2,43.7,394.7,51.3,388.2,50.8z M368.6,163l6.8-1.9l8.6,23l-15.3,6.4v-2.9l11.9-5l-6.8-18.4l-5.1,1.4
	V163L368.6,163z M388.2,30.2v5.4c-1.5-0.1-3.1,0.2-4.2,0.9c-0.1,0.1-0.5,0.4-0.6,0.6l0,0l0,0c0.1,3.1,1.4,7.6,4.8,8.4v5.4
	c-1.5-0.1-3.2-0.7-4.7-1.9c-3.9-2.8-5.1-7-5.5-11.5c0-0.2,0-0.4,0-0.6l0,0l0,0c0-0.4,0.1-0.7,0.3-1.1
	C379.7,31.7,383.9,30,388.2,30.2L388.2,30.2z M368.6,155.6v-2.8h0.1h-0.1v-7.4l3.6,9.1L368.6,155.6L368.6,155.6z M368.6,55.8V50
	c0.1-0.1,0.3-0.1,0.4-0.2c2.2-1.4,0.9-4.5-0.4-6v-6.4c4.2,2,7.4,5.8,6.8,11C375,52.3,372.1,54.9,368.6,55.8z M353.4,167.3l15.2-4.3
	v2.8l-11.8,3.3l7,20.7l4.8-2.1v2.9l-6.5,2.8L353.4,167.3L353.4,167.3z M368.6,37.4v6.4c-0.1-0.1-0.1-0.2-0.2-0.3
	c-1.4-1.5-3-2-4.9-2.3c-0.2,0-0.5,0-0.7-0.1c-1.7,0.7-2.6,2-2.2,4.6c0.6,4.1,4.4,6.4,8.1,4.3v5.8c-2.7,0.7-5.8,0.4-8.2-1.1
	c-5.5-3.4-7.1-11.9-2.7-16.7c2-2.2,4.7-2.4,7.4-2.9c1.2,0,2.2,0.7,2.5,1.8C368,37.1,368.3,37.2,368.6,37.4L368.6,37.4z M368.6,145.4
	v7.4l-6-15.9l-15.6,3.6v-2.8l17.2-3.9L368.6,145.4L368.6,145.4z M368.6,152.8l-17.8,5.7l-3.8-12.7v9.4l2,6.8l19.6-6.3V152.8
	L368.6,152.8z M347,129.1v-2.7l11.1-2.5l-6.6-18l-4.5,1V104l6.1-1.3l8.6,23L347,129.1L347,129.1z M347,91.6v-4.5l1.3,4.2L347,91.6
	L347,91.6z M347,57.9c2.8-1.6,5-4.5,5.5-7.5c0.9-4.8-1.9-7.9-5.5-9.6v6.9c0.3,0.7,0.3,1.5,0,2.4V57.9z M347,40.8v6.9l0,0
	c-0.9-2.2-3.2-2.9-5.3-3.2c-0.4,0.1-0.7,0.3-1.2,0.3c-5,0.4-1.5,7.3,1.4,8.7c2.1,1,4.5-1.2,5.2-3.5v7.8c-2.2,1.3-4.9,1.7-7.3,0.5
	c-1.8-0.8-3.5-2.3-4.7-4.2v-13c0.9-0.8,1.9-1.2,3.1-1.5c0.5-0.5,1.2-0.9,1.9-0.9C342.3,39.1,344.8,39.7,347,40.8L347,40.8z
	 M347,87.1v4.5l-12,3v-2.7l9.9-2.5l-5.6-17.6l-4.3,0.8v-2.7l6.2-1.1L347,87.1L347,87.1z M347,104v2.8l-11.1,2.4l5.8,18.3l5.3-1.2
	v2.7l-7.2,1.7l-4.8-15.5v-8.6L347,104L347,104z M347,137.7v2.8l-1.5,0.3l1.5,5v9.4l-4.9-16.3L347,137.7z M335,41.3v13
	c-2.6-3.7-3.6-8.6-0.8-12.1C334.4,41.8,334.7,41.6,335,41.3L335,41.3z M335,69.8v2.7l-9.9,1.7l5.2,18.8l4.8-1.2v2.7l-6.6,1.7
	l-6.7-24.2L335,69.8L335,69.8z M335,106.7v8.6l-2.5-8L335,106.7L335,106.7z M320.5,63.9c7.4-0.8,14.6-8.9,9.5-15.8
	c-2.4-3.2-5.8-4.6-9.5-4.9v5.3c2,0.2,3.9,1.1,5.2,2.7c2.3,3-1.5,6.7-5.2,7.3V63.9z M320.5,43.1v5.3c-1.5-0.2-3.1-0.1-4.5,0.1
	c-1.7,3-2.2,6.6,0.8,9.1c1,0.9,2.4,1.1,3.7,0.8v5.3c-2.5,0.3-5.1-0.3-7.2-2c-5.5-4.6-4.6-11.4-1.4-16.9c0.3-0.4,0.6-0.6,1-0.8
	c0.3-0.3,0.6-0.5,1-0.6C316,43.1,318.4,42.9,320.5,43.1z"/>
<path class="st1" d="M369.5,173.6l2.9,2.4l1.8,1.6l0.1,0.1l0.4-0.9l7.9-24.6c0.4-1,1.6-1.5,2.7-1.1c1,0.4,1.5,1.6,1.1,2.7l-7.9,24.6
	c-0.9,2-2.2,4.3-4.8,3.6c-2.5-0.7-4.8-3.6-6.7-5.2c-0.9-0.6-1.1-1.9-0.4-2.8C367.3,173.1,368.6,173,369.5,173.6z"/>
<g>
	<path class="st2" d="M209.5,166.7H91.4c-6.3,0-11.5,5.2-11.5,11.5v7.6c0,6.3,5.2,11.5,11.5,11.5h118.1c6.3,0,11.5-5.2,11.5-11.5
		v-7.6C221,171.9,215.8,166.7,209.5,166.7z"/>
	<text transform="matrix(1.0031 0 0 1 107.231 186.3242)" class="st1 st3 st4">Více informací </text>
</g>
<text transform="matrix(1 0 0 1 34.3037 74.1484)"><tspan x="0" y="0" class="st1 st3 st5">Technické </tspan><tspan x="0" y="42" class="st1 st3 st5">kontroly kotlů</tspan></text>
</svg>
