<?xml version="1.0" encoding="utf-8"?>
<!-- Generator: Adobe Illustrator 21.0.0, SVG Export Plug-In . SVG Version: 6.00 Build 0)  -->
<svg version="1.1" id="Vrstva_1" xmlns="http://www.w3.org/2000/svg" xmlns:xlink="http://www.w3.org/1999/xlink" x="0px" y="0px"
	 viewBox="0 0 500 250" style="enable-background:new 0 0 500 250;" xml:space="preserve">
<style type="text/css">
	.st0{fill:#666666;}
	.st1{fill:#666666;stroke:#FFFFFF;stroke-miterlimit:10;}
	.st2{fill:#FFFFFF;}
	.st3{font-family:'KohinoorBangla-Regular';}
	.st4{font-size:13.3668px;}
	.st5{font-size:35px;}
</style>
<rect class="st0" width="500" height="250"/>
<g>
	<path class="st1" d="M209.5,166.7H91.4c-6.3,0-11.5,5.2-11.5,11.5v7.6c0,6.3,5.2,11.5,11.5,11.5h118.1c6.3,0,11.5-5.2,11.5-11.5
		v-7.6C221,171.9,215.8,166.7,209.5,166.7z"/>
	<text transform="matrix(1.0031 0 0 1 107.231 186.3242)" class="st2 st3 st4">Více informací </text>
</g>
<text transform="matrix(1 0 0 1 18.3037 69.1484)"><tspan x="0" y="0" class="st2 st3 st5">Servis kotlů a  </tspan><tspan x="0" y="42" class="st2 st3 st5">tepelných čerpadel</tspan></text>
<path class="st2" d="M317.2,177.2l37.1-31.9l15.8-14.2l0.4-0.4c0.1-0.2,0.2-0.4,0.4-0.6c1.9-1.7,3.9,1,2.4,2.7
	c-5,6.3-10.4,10.4-16.8,15.3l-36.7,31.5c-0.7,0.7-1.8,0.7-2.5,0C316.5,179,316.5,177.9,317.2,177.2z"/>
<path class="st2" d="M382.4,133.8l0.5,0.1l0.1,0.5l-0.1,1.2l-0.4,0.5l0.1-0.1l0.1-0.1c0,0.1-0.1,0.1-0.1,0.2c0,0,0,0-0.1,0.1v-0.1
	h0.1h-0.1V133.8z M380.4,133.1l0.4-0.1l1.6,0.7v2.3l0,0v0.1v-0.1v0.1c0,0-0.1,0.1-0.1,0.1l-0.1,0.1l-1.7,1.4V133.1z M380.4,133.1
	l0.2-0.1L380.4,133.1L380.4,133.1L380.4,133.1z M380.8,133l0.4-0.1l-0.6,0.1H380.8z M322.8,184.2l56.4-50.2l0.4-0.4l0.3-0.2l0.1-0.1
	l-0.1,0.1v-0.1l0.1-0.1l-0.1,0.1l0.4-0.2v-0.1v4.7l-55.1,49c-0.7,0.6-1.9,0.6-2.5,0C322.1,186.1,322.1,184.9,322.8,184.2
	L322.8,184.2z M380.4,133.1L380.4,133.1l-0.1,0.1L380.4,133.1L380.4,133.1L380.4,133.1z"/>
<path class="st2" d="M329.9,190.5l33.8-29l20-19.4c0.7-0.7,1.8-0.8,2.6-0.1c0.7,0.6,0.8,1.8,0.1,2.5l-24,23l-30,25.6
	c-0.7,0.6-1.9,0.6-2.5,0C329.2,192.4,329.2,191.2,329.9,190.5z"/>
<path class="st2" d="M454.5,54l16.6-9.1c3-1.4,7.1,3.5,7.2,6c0,0.6-0.2,1.3-0.6,1.8l-16.6,21.6c-1.5,1.9-3.7,0.4-5.3-0.6l-0.9-0.5
	l-0.4-0.2v-0.1l0,0l0,0v-3.5c1.1,0.1,2.2,0.7,3.2,1.4l0.9,0.6l0.1,0.1l9.2-11.6l6.7-9.1l-0.1-0.1l-0.3-0.5c-0.6-0.7-1.2-1.2-2-1.6
	l-0.3-0.1l-0.1-0.1l-11.5,5.8l-6,3.5V54z M389.3,114.3l28.6-24.1l28.2-24.8l0,0l0.1-0.1l0,0l0,0l-0.1-0.2l-0.2-0.3
	c-0.9-1.3-3.2-4-1-5.5l9.6-5.2v3.7l-6.5,3.7l0.4,0.5l0.4,0.5c1.1,1.5,1.5,3.2,0.4,4.8l-0.7,0.7l-57,49c-0.8,0.6-1.9,0.5-2.5-0.3
	C388.4,116,388.5,114.9,389.3,114.3L389.3,114.3z M454.5,73v-0.1l0,0l0,0v-3.5c-0.9-0.1-1.7,0.1-2.4,0.8l-55.9,51.5
	c-0.7,0.6-0.8,1.8-0.1,2.5c0.6,0.7,1.7,0.8,2.4,0.1l28.1-25.8l27.9-25.6l0,0L454.5,73z"/>
<path class="st2" d="M452.3,65l11.7-9.6c0.7-0.7,1.9-0.7,2.5,0c0.7,0.6,0.7,1.8,0.1,2.5L455,67.3c-0.6,0.8-1.7,0.9-2.5,0.2
	C451.7,66.9,451.6,65.7,452.3,65z"/>
<path class="st2" d="M377.4,121.2c0.9-0.7,4-2.7,3.2-4.2c-1-2.1-0.9-6.2,2.1-6.4c1.9-0.1,3.7,1.4,5,2.4l15,14.2
	c1.6,1.6,3.4,3.1,2.2,5.5c-1.7,3.3-5.8,2-8.6,1.7c-1.6-0.2-2.6,0.9-3.8,1.7c-0.8,0.6-1.9,0.4-2.4-0.4c-0.6-0.9-0.4-1.9,0.4-2.5
	c2-1.4,3.6-2.6,6.2-2.4c0.9,0.1,4.3,1.4,5,0.3h0.1l0,0l-0.6-0.6l-1.1-1L384.3,115l-0.8-0.5v0.1l0,0c-0.1,1.1,1.1,1.9,0.9,3.2
	c-0.6,2.8-2.6,4.5-4.7,6.2c-0.7,0.6-1.9,0.5-2.5-0.3C376.6,122.9,376.6,121.8,377.4,121.2z"/>
<path class="st2" d="M350.5,136.7c4.5-4,9.2-7.8,14-11.6c5.6-4.3,12.9-5.8,17.6-0.6c1.4,1.5,5.1,4.5,6.5,6
	c6.6,7.2,5.5,13.8,0.8,19.2c-12.7,14.5-25.7,26.8-38.9,37.4v-4.2c3.1-2.5,6.1-5.1,9.1-7.8c4.8-4.2,9.3-8.5,13.8-13
	c4.7-4.7,9.2-9.6,13.6-14.5c0.9-1.1,1.7-2.2,2.2-3.4c0.6-1.4,0.9-2.7,0.7-4.2c-0.3-2.6-1.6-4.6-3.2-6.6c-2.2-2.4-4.8-4.2-7-6.6
	c-0.7-0.8-1.4-1.3-2.4-1.7c-3.7-1.5-7.8,0.4-10.9,2.7c-4.2,3.4-8.5,6.8-12.6,10.4c-1.2,0.9-2.3,1.9-3.4,3V136.7z M310.8,176.3
	c11.9-13.4,25.2-27,39.7-39.6v4.4c-5.8,5.2-11.5,10.5-17.1,16.1c-6.9,6.9-13.6,14-20.1,21.2c-0.6,0.7-1,1.3-1.4,2.1
	c-0.6,1.4-0.8,2.5-0.9,4c0.1,4.6,2.3,8.8,5.1,12.4c0.4,0.4,0.9,0.9,1.3,1.4c0.4,0.4,0.9,0.7,1.4,1c4.1,2.2,9.1,0.5,12.7-1.9
	c3.6-2.5,7.1-5.1,10.7-7.8c2.8-2.2,5.6-4.4,8.4-6.7v4.2c-5.7,4.6-11.4,8.9-17.1,13c-5.8,4-13.9,5.3-18.6,0.1c-3.7-4-6.8-9.7-7-15.2
	v-1C307.9,181.3,308.7,178.5,310.8,176.3z"/>
<path class="st2" d="M309.2,180.9c6-1.2,10.9,4.2,14.3,8.5c2.1,2.7,8.3,11.3,2.4,13.7c-0.9,0.3-1.9-0.3-2.2-1.2
	c-0.2-0.9,0.3-1.9,1.1-2.2v-0.6c-1.7-5.9-6.8-12.4-12.7-14.8c-0.5-0.2-1-0.2-1.6-0.1c-0.9,0.3-1.9-0.1-2.3-1.1
	C307.9,182.3,308.3,181.3,309.2,180.9z"/>
</svg>
