<?xml version="1.0" encoding="utf-8"?>
<!-- Generator: Adobe Illustrator 21.0.0, SVG Export Plug-In . SVG Version: 6.00 Build 0)  -->
<svg version="1.1" id="Vrstva_1" xmlns="http://www.w3.org/2000/svg" xmlns:xlink="http://www.w3.org/1999/xlink" x="0px" y="0px"
	 viewBox="0 0 500 250" style="enable-background:new 0 0 500 250;" xml:space="preserve">
<style type="text/css">
	.st0{fill:#666666;}
	.st1{fill:#666666;stroke:#FFFFFF;stroke-miterlimit:10;}
	.st2{fill:#FFFFFF;}
	.st3{font-family:'KohinoorBangla-Regular';}
	.st4{font-size:13.3668px;}
	.st5{font-size:35px;}
</style>
<rect class="st0" width="500" height="250"/>
<g>
	<path class="st1" d="M209.5,166.7H91.4c-6.3,0-11.5,5.2-11.5,11.5v7.6c0,6.3,5.2,11.5,11.5,11.5h118.1c6.3,0,11.5-5.2,11.5-11.5
		v-7.6C221,171.9,215.8,166.7,209.5,166.7z"/>
	<text transform="matrix(1.0031 0 0 1 107.231 186.3242)" class="st2 st3 st4">Více informací </text>
</g>
<text transform="matrix(1 0 0 1 19.3037 68.1484)"><tspan x="0" y="0" class="st2 st3 st5">Solární kolektory </tspan><tspan x="0" y="42" class="st2 st3 st5">a fotovoltaika</tspan></text>
<g>
	<path class="st2" d="M350.3,68.9c-1.4,2.2-2.9,4-3.4,6.5c-0.4,2.3-0.7,5.2-2.2,7.1c-0.5,0.6-1.2,0.6-1.8,0.2
		c-0.4-0.4-0.4-1.1,0-1.5c0.1-0.1,0.1-0.1,0.2-0.2l0.1-0.1l0.3-0.8c1-2.6,1-5.6,2.2-8l2.6-4c0.2-0.6,0.8-0.8,1.4-0.5
		C350.3,67.7,350.5,68.4,350.3,68.9z"/>
</g>
<g>
	<path class="st2" d="M331.2,64.5v15.6c0,0.6-0.5,1-1,1c-0.6,0-1-0.5-1-1V64.5c0-0.6,0.5-1,1-1C330.7,63.5,331.2,64,331.2,64.5z"/>
</g>
<g>
	<path class="st2" d="M317.2,82.6c0.1,0.1,0.1,0.3,0.1,0.6c0,0.2-0.1,0.3-0.1,0.5V82.6L317.2,82.6z M317.2,83.7L317.2,83.7
		L317.2,83.7L317.2,83.7z M317.1,82.5L317.1,82.5l0.1,1.1c0,0.1-0.1,0.1-0.1,0.1V82.5L317.1,82.5z M317.2,83.7L317.2,83.7
		L317.2,83.7L317.2,83.7L317.2,83.7L317.2,83.7z M317.1,83.8L317.1,83.8L317.1,83.8L317.1,83.8z M308.7,68.9l7.7,12.8l0.3,0.5
		l0.1,0.1c0.1,0.1,0.1,0.1,0.2,0.2v1.3l0,0l-0.1,0.1l-0.3,0.1l-0.5,0.1h0.1h-0.1h-0.2l0,0c-0.8-0.3-1.4-1.3-1.8-2l-7.5-12.5
		c-0.2-0.6,0.1-1.1,0.6-1.3C307.9,68.2,308.5,68.4,308.7,68.9L308.7,68.9z M317.1,83.8L317.1,83.8L317.1,83.8L317.1,83.8L317.1,83.8
		z"/>
</g>
<g>
	<path class="st2" d="M292,81.4l14.4,11c0.5,0.3,0.6,1,0.2,1.5c-0.3,0.4-1,0.6-1.5,0.2L295,86.9l-4.7-4.4c-0.3-0.5-0.1-1.2,0.3-1.5
		S291.8,80.9,292,81.4z"/>
</g>
<g>
	<path class="st2" d="M281.1,100.5l17.7,4.7c0.6,0.1,0.9,0.7,0.8,1.3c-0.1,0.6-0.7,0.9-1.3,0.8l-18.1-4.9c-0.5-0.2-0.7-0.8-0.5-1.4
		C280,100.5,280.6,100.2,281.1,100.5z"/>
</g>
<g>
	<path class="st2" d="M282.7,122.4l14.5-5.9c0.5-0.2,1.1,0,1.3,0.6c0.2,0.6,0,1.1-0.6,1.4l-14.5,5.9c-0.6,0.2-1.1-0.1-1.3-0.6
		C281.9,123.2,282.2,122.6,282.7,122.4z"/>
</g>
<g>
	<path class="st2" d="M291.4,139.6L303,130c0.8-0.6,1.5-0.8,2.4-1c0.6,0,1,0.5,1,1c0,0.6-0.5,1-1,1c-1.5,0.6-2.7,1.7-3.9,2.6l-9,7.6
		c-0.4,0.3-1.1,0.2-1.4-0.3C290.8,140.5,290.9,139.9,291.4,139.6z"/>
</g>
<g>
	<path class="st2" d="M345.6,89.6c-7.7-5.3-17.4-4.2-25.4,0.3c-4.3,2.5-8.1,6.2-11,10.2c-3.4,4.8-2.8,11.7-1.7,17.2
		c0.6,3.5,2.3,6.2,5.1,8.3c0.5,0.3,0.7,1,0.4,1.5c-0.3,0.5-1,0.6-1.5,0.3c-3.3-2.5-5.3-5.4-6-9.7c-1.2-6.1-1.6-13.5,2.1-18.8
		c4.1-5.8,9.8-10.6,16.5-13.1c5.5-2,11.5-2.6,17.1-1c2.2,0.7,3.9,1.9,5.8,3.2c0.4,0.3,0.5,1,0.1,1.5C346.6,89.9,346,90,345.6,89.6z"
		/>
</g>
<path class="st2" d="M383.4,167.3l30.5-39l34.4-38.8c0.7-0.6,2,0.3,2.3,1l34.7,75.2c1,2.7,4,8.1,2.4,11.3c-0.4,0.8-1.3,1.2-2.2,1.1
	l-50.1-2.7l-42.3,1.9c-1,0-1.9-0.9-1.9-1.9s0.8-1.9,1.9-1.9l20.9-1.2l21.6-0.6l25.1,1.4l23.3,1.3l-0.1-0.6l-5.1-11.4l-1.8-4.2
	l-15.1-31.1l-13.9-30.2l-11.5,13.4l-47,58.6c-0.6,0.9-4.4,1.6-5.3,1.1C383.2,169.4,382.9,168.2,383.4,167.3z"/>
<g>
	<path class="st2" d="M361.1,78.9l86.1,5.6c0.6,0,1,0.5,1,1c-0.1,0.6-0.5,1-1.1,1L361,80.9c-0.6-0.1-1-0.6-1-1.1
		C360.1,79.3,360.5,78.8,361.1,78.9z"/>
</g>
<g>
	<path class="st2" d="M439.3,85.5l0.1,0.1l0.1,0.2l0.1,0.2c0.4,1.5-0.3,5.5,2.1,5.8c2.5,0.3,3.1-4.2,3.4-5.6c0.1-0.6,0.6-1,1.2-1
		c0.6,0.1,1,0.6,0.9,1.2c-0.7,2.7-1.7,8-5.8,7.4c-0.9-0.1-1.6-0.5-2.1-1V85.5z M439.3,85.5L439.3,85.5L439.3,85.5L439.3,85.5z
		 M357.8,80.5c-0.3,2.2-0.6,6.5,2.5,6.9c1.4,0.2,2.8-0.6,3.8-1.7c-0.1-0.4-0.1-0.9-0.2-1.5c0-1.3,0-5.3,2.2-5.1
		c2.6,0.3,1.6,4.7,0.8,6c-0.1,0.2-0.2,0.4-0.3,0.6c0.6,0.9,1.6,1.5,3.1,1.4c1.6,0,3.1-0.8,4-2.1l0.5-0.8c0-0.8,0.1-1.5,0.4-2.2
		c0.3-1,1.9-1.9,2.4-0.5c0.3,1,0,2.2-0.6,3.2c0.1,1.5,0.6,3.3,2,3.6c2.4,0.6,4.8,0,6-1.6c-0.1-0.6-0.1-1.1-0.1-1.7
		c0.1-1,0.6-4.2,2.4-3.3c1.5,0.8,0.8,3.8,0.1,5.3c0.6,1.4,1.9,2.5,3.4,2.4c1.5-0.1,2.7-1.1,3.6-2.3c-0.3-1.3-0.3-2.7,0.8-3.5
		c0.9-0.6,2.4-0.1,2.5,1c0.1,1-0.3,2-0.8,2.9c0.8,1.6,2.2,2.9,4.1,2.1c1.1-0.5,1.7-1.8,2-3.1c-0.2-1.2-0.2-2.4,0.1-3.6
		c0.5-1.4,2.2-0.4,2.2,0.6c0.1,1,0,1.9-0.2,2.8l0.1,0.7c0.6,1.9,2.5,4.8,4.9,3.8c1-0.3,1.9-1.3,2.5-2.3c0.1-1.5,0.6-2.8,1.7-4
		c0.8-0.8,1.9-0.3,2.1,0.7c0.1,1.3-0.8,2.7-1.7,4c0.2,1.1,1,2.1,1.9,2.5l0.4,0.1l0.4,0.1h0.3l0,0l0.1-0.1l0.1-0.1
		c1.1-1,2.1-2.2,2.8-3.5c-0.3-0.8-0.6-1.7-0.7-2.4c-0.2-1.7,2.4-2.3,3.3-1.1c0.8,1,0.4,2.2-0.2,3.5c0.6,1.2,1.4,2.4,2.5,3.1l0.1,0.1
		h0.1l0,0l0.1-0.1l0.1-0.1c0.6-0.5,1.3-1.1,1.7-1.8c-0.1-0.4-0.1-0.8,0-1.4c0.2-1,1.6-4,3.3-3.5c2,0.7-0.3,4.1-0.9,4.9
		c0.6,0.6,1.7,0.8,2.4,1.2c0.5,0.3,0.9,0.9,1.5,0.8c2.8-0.8,2.9-3.9,3.8-6.1l0.1-0.1l0.1-0.1l0.2-0.2l-0.1,0.1l0.1-0.1l0.1-0.1
		l0.5-0.1h0.2l0,0l0,0l0.1,0.1l0.2,0.1l0,0l0.2,0.1v0.1h0.1v7.4c-0.6-0.6-0.9-1.4-1.2-2.2c-1.4,2.4-4,4.4-6.7,2.5
		c-0.8-0.6-1.8-1-2.6-1.5c-1,1.4-2.4,2.7-4,2.2c-1.2-0.4-2.3-1.6-3.2-2.9c-0.6,0.7-1.1,1.3-1.5,1.7c-1.3,1.7-2.8,2.4-4.9,1.5
		c-1.3-0.6-2.1-1.5-2.6-2.6c-0.1,0.1-0.1,0.2-0.2,0.3c-2.6,2.8-6.6,1.9-8.5-1.2c-0.1-0.3-0.3-0.6-0.5-0.9c-1.4,2.2-3.6,3.4-6.6,1.9
		c-0.6-0.3-1.3-1-1.9-1.9c-1.7,1.6-4.2,2.5-6.1,2c-1.3-0.4-2.5-1.4-3.3-2.6c-2.2,1.7-6.2,2.4-8.4,1.1c-1-0.6-1.8-1.7-2.3-3.1
		c-0.1,0.1-0.1,0.1-0.1,0.1c-2.5,2.4-7.2,2.6-9.4,0.3c-2.2,1.9-5.5,3-7.8,0.6c-2.3-2.5-2-5.3-1.5-8.4c0.2-0.6,0.8-0.8,1.3-0.6
		C357.8,79.3,358,79.9,357.8,80.5L357.8,80.5z M439.3,85.5L439.3,85.5L439.3,85.5L439.3,85.5L439.3,85.5z"/>
</g>
<path class="st2" d="M359,103l-24.2,26.7c-5.6,5.8-12.6,10.7-16.3,18.2c-0.6,1.3-2.4,5.8,0.6,5.4c1.6-0.2,3.6-0.9,4.8-2l47.4-46.2
	c3.3-2.9,11-3.1,12.4,1.1c1.8,5.3-3.5,12-6.5,15.9l-24.9,29.6c-0.5,0.8-1.9,4.7-0.2,5.4c4.4,2,8.2-2.9,10.7-5.6l24-26.3l11.2-13.9
	l0.3-0.6l0.1-0.1c0.1-0.3,0.2-0.6,0.4-0.8c0.6-0.6,1.5-0.6,2.1,0c0.6,0.8,0.5,1.6-0.1,2.4l-12,14.9l-18,19.5
	c-5,5.4-10.3,15.4-19.1,13.3c-5.6-1.3-2.7-9.7-0.6-12.5l25.4-31c1.5-2.4,7.2-9.4,0.6-10.1c-1.5-0.2-3,0.3-4.1,1.4l-46.1,44.8
	c-2.3,2.3-8.2,5.4-11.1,2.4c-3.5-3.6,1.1-10.7,3.3-13.5l13.8-14l23.8-26.4c0.6-0.6,1.5-0.7,2.1-0.2S359.5,102.4,359,103z"/>
<path class="st2" d="M356.8,88.4l64.6,5.3c2,0.3,5.7,0.7,5.6,3.5c0,2.1-2.2,4-3.3,5.3l-47.4,54c-5.6,5.6-8.5,11.8-15.4,15.6
	c-0.9,0.6-2.4,0.5-4.1,0.3v-4.8c2.5-0.2,4.5-0.8,6.5-2.6l40.1-42.8L422.8,99l1.2-1.5l0.1-0.3l-0.1-0.1l-1.1-0.3l-15.4-1.4l-50.6-4.2
	V88.4z M355.8,88.3l1,0.1v2.9l-0.8-0.1c0.3,0.5,0.4,1.2,0,1.7l-32.4,34l-34,37.7c-0.4,0.6,0,0.4,0.6,0.5l21.3,1.7l21.8-0.1l22,1
	c0.5-0.1,0.9-0.1,1.3-0.1v4.8c-1.7-0.2-3.5-0.6-4.7-0.6l-59.3-2.6c-2.4-0.1-7.9-0.1-6.4-4.2c0.4-1.2,0.9-2.4,1.7-3.3l33.4-36.7
	l32.1-33.6c0.2-0.3,0.5-0.4,0.8-0.6c-0.2-0.3-0.3-0.6-0.3-1C354.2,88.9,354.9,88.2,355.8,88.3z"/>
</svg>
