<?xml version="1.0" encoding="utf-8"?>
<!-- Generator: Adobe Illustrator 21.0.0, SVG Export Plug-In . SVG Version: 6.00 Build 0)  -->
<svg version="1.1" id="Vrstva_1" xmlns="http://www.w3.org/2000/svg" xmlns:xlink="http://www.w3.org/1999/xlink" x="0px" y="0px"
	 viewBox="0 0 500 250" style="enable-background:new 0 0 500 250;" xml:space="preserve">
<style type="text/css">
	.st0{fill:#666666;}
	.st1{fill:#666666;stroke:#FFFFFF;stroke-miterlimit:10;}
	.st2{fill:#FFFFFF;}
	.st3{font-family:'KohinoorBangla-Regular';}
	.st4{font-size:13.3668px;}
	.st5{font-size:35px;}
</style>
<rect class="st0" width="500" height="250"/>
<g>
	<path class="st1" d="M209.5,166.7H91.4c-6.3,0-11.5,5.2-11.5,11.5v7.6c0,6.3,5.2,11.5,11.5,11.5h118.1c6.3,0,11.5-5.2,11.5-11.5
		v-7.6C221,171.9,215.8,166.7,209.5,166.7z"/>
	<text transform="matrix(1.0031 0 0 1 107.231 186.3242)" class="st2 st3 st4">Více informací </text>
</g>
<text transform="matrix(1 0 0 1 42.3037 97.1484)" class="st2 st3 st5">Vodoinstalace</text>
<path class="st2" d="M374.1,101l30.8,1c0,31.9,0,63.8-0.1,95.6c-9.4,0.1-18.8,1.4-28.2,1.4c-0.9,0-1.7,0-2.6,0v3.5
	c1.1,0.1,2.2,0.1,3.2,0.1c10.4,0.1,22.1,0.2,31.2-0.9c0.3-34.4,0.5-68.9,0.7-103.3l-35.2-0.7V101z M343.3,100l30.9,1v-3.4l-34-0.8
	V201c11.4,0.1,22.7,1.3,34,1.6V199c-10.3-0.2-20.6-1.2-30.9-1.2V100z"/>
<path class="st2" d="M288,126l26.2,1.3l26.2,1.2c0.9,0.1,1.7,0.9,1.7,1.8c-0.1,0.9-0.9,1.7-1.8,1.6l-26.2-1.3l-26.2-1.2
	c-0.9-0.1-1.7-0.9-1.6-1.8C286.4,126.7,287.2,125.9,288,126z"/>
<path class="st2" d="M287.8,160.4h53.6c0.9,0,1.7,0.8,1.7,1.7s-0.8,1.7-1.7,1.7h-53.6c-0.9,0-1.7-0.7-1.7-1.7
	S286.9,160.4,287.8,160.4z"/>
<path class="st2" d="M408.6,130.1l46.6,1.7c4.2,0.5,7.9,4.3,9.1,8.3c2.6,8.6,2.4,19.4,1.5,28.4c-0.3,2.6-3,4.8-5.3,5.5
	c-5.8,1.7-13.8,1.9-19.4-0.3c-1.7-0.6-3-1.6-4-3l-0.9-1.7l-0.6-1.9l-0.2-1.8l-0.1-0.1l-1-0.4l-27.6-2c-0.9-0.1-1.6-0.9-1.5-1.8
	c0.1-0.9,0.9-1.7,1.8-1.6l28.2,2.2c1.3,0.3,3.1,1,3.5,2.4c0.9,3.2,0.8,6,4.6,6.8c5,0.9,14.1,2.7,18.4-1.4c1.4-1.3,1.2-4.5,1.2-5.8
	c0.1-7.4,0.9-16.8-2.7-23.5c-1.2-2.3-3.3-4.3-6-4.6l-45.7-2c-0.9,0-1.7-0.8-1.6-1.7C406.8,130.8,407.6,130,408.6,130.1z"/>
<path class="st2" d="M437.6,164c4.6,0.5,9.1,0.8,13.8,0.8c4.5,0,8.9-0.4,13.4-0.8c0.9-0.1,1.8,0.5,1.9,1.4c0.1,0.9-0.6,1.8-1.5,1.9
	c-4.5,0.5-9.1,1.5-13.7,1.5c-5,0-9.9-1-14.8-1.5c-0.9-0.3-1.4-1.2-1.2-2.1C435.8,164.2,436.7,163.7,437.6,164z"/>
<path class="st2" d="M446.7,178.9c12.5,12.3,21,18.9,15,32.5c-4.5,10.1-27.9,11.7-23.3-6.3C439.2,201.9,446.6,186.6,446.7,178.9z"/>
<path class="st2" d="M294.4,127c0.3-1.9,0.6-4.6,3.1-4.5c6.3,0,6.7,7.8,6.9,12.5c0.6,9.9,1.1,20.8-2.8,30.2
	c-0.8,1.9-2.8,3.3-4.9,2.5c-2.1-0.7-3-2.9-4-4.6c-0.5-1.2,0-2.4,1.1-3c1.2-0.5,2.4-0.1,3,1.1l0.7,1.3l0.3,0.4l0.2-0.7
	c2.1-9.1,2.5-17.6,2-26.9c-0.1-2.5-0.4-5-1.2-7.4l-0.1-0.1c-0.1,1.2-1.2,1.9-2.4,1.8C295,129.4,294.2,128.2,294.4,127z"/>
<path class="st2" d="M311.3,127.6c0.6-3.5,4.8-5.3,7.4-2.1c3.6,4.5,2.4,13.3,2.4,18.4c-0.1,7.6-0.2,15.1-3.2,22.2
	c-0.8,1.9-2.9,3.4-5,2.6c-2-0.8-2.9-2.9-3.9-4.7c-0.5-1.1-0.1-2.4,1.1-3c1.1-0.5,2.4,0,3,1.1l0.6,1.4l0.3,0.4l0.3-0.6
	c2.2-9,2.6-17.6,2.4-26.8c-0.1-2.5-0.3-5-1-7.3l-0.1-0.4c-0.4,0.9-1.3,1.4-2.3,1.3C312,129.9,311.1,128.8,311.3,127.6z"/>
<path class="st2" d="M325.4,128.2c0.4-3.1,3.9-5.5,6.6-2.7c2.7,2.7,2.4,7.8,2.5,11.4c0.1,9.6,0,19-2.2,28.4
	c-0.6,2.5-3.5,3.9-5.8,2.7c-1.4-0.7-2.2-2.1-3-3.4c-0.6-1-0.2-2.4,0.9-3c1-0.6,2.4-0.2,3,0.8l0.6,0.9l0.1,0.2l0.1-0.1l1.4-6.2
	l0.4-20.4l-0.5-6.4l-0.2-0.7c-0.4,0.6-1.2,0.9-1.9,0.9C326.2,130.5,325.3,129.4,325.4,128.2z"/>
<path class="st2" d="M375.2,68.4c4.4,0.2,8.7,1.1,12.5,2.5c7.1,2.6,13.5,8.6,15.3,14.9c0.4,1.1,1,4,1.1,5.8V92
	c0,0.7-0.1,1.3-0.5,1.4c-1.2,0.4-6.6,0-8.6-0.2L375.2,93v-2.9l25.8,0.7c-0.3-9.4-6.9-15.8-16.1-18.4c-3-0.9-6.3-1.4-9.6-1.3V68.4z
	 M344.6,91.3c1.4-9.4,11.4-19.4,20.4-21.8c3.2-0.9,6.8-1.2,10.3-1.1v2.7c-4.5,0.1-8.9,1.2-13,3.3c-5.5,2.9-10.9,8.6-12.8,15
	l25.8,0.7V93l-26.6-0.3C347.4,92.9,344.6,93.3,344.6,91.3z"/>
<path class="st2" d="M377,49.6L377,49.6c2.7,0,4.8,2.7,4.8,5.9v14.1c0,0.2,0,0.5-0.1,0.7h3.1c0-0.2,0-0.5,0-0.7V55.5
	c0-5-3.5-9-7.8-9l0,0c-4.4,0-8,4-8,9v14.1c0,0.2,0.1,0.5,0.1,0.7h3.1c0-0.2,0-0.5,0-0.7V55.5C372.2,52.3,374.4,49.6,377,49.6z"/>
<path class="st2" d="M394.5,63.1v-3.3l10.9,3.9l0.1-13.4l-11,2.8v-3.2l14.2-3.5l-0.2,21.8L394.5,63.1z M344.6,43.6l26.3,8.5v3.2
	L347.7,48v14.8l23.2-5.1v3.2l-26.3,5.8V43.6L344.6,43.6z M394.5,49.8v3.2l-11,2.7l11,4v3.3l-11-4v-6.5L394.5,49.8z"/>
</svg>
