<?xml version="1.0" encoding="utf-8"?>
<!-- Generator: Adobe Illustrator 21.0.0, SVG Export Plug-In . SVG Version: 6.00 Build 0)  -->
<svg version="1.1" id="Vrstva_1" xmlns="http://www.w3.org/2000/svg" xmlns:xlink="http://www.w3.org/1999/xlink" x="0px" y="0px"
	 viewBox="0 0 500 250" style="enable-background:new 0 0 500 250;" xml:space="preserve">
<style type="text/css">
	.st0{fill:#666666;}
	.st1{fill:#666666;stroke:#FFFFFF;stroke-miterlimit:10;}
	.st2{fill:#FFFFFF;}
	.st3{font-family:'KohinoorBangla-Regular';}
	.st4{font-size:13.3668px;}
	.st5{font-size:35px;}
</style>
<rect class="st0" width="500" height="250"/>
<g>
	<path class="st1" d="M209.5,166.7H91.4c-6.3,0-11.5,5.2-11.5,11.5v7.6c0,6.3,5.2,11.5,11.5,11.5h118.1c6.3,0,11.5-5.2,11.5-11.5
		v-7.6C221,171.9,215.8,166.7,209.5,166.7z"/>
	<text transform="matrix(1.0031 0 0 1 107.231 186.3242)" class="st2 st3 st4">Více informací </text>
</g>
<text transform="matrix(1 0 0 1 42.3037 97.1484)" class="st2 st3 st5">Plynové kotle</text>
<path class="st2" d="M392.6,95.2l44.4,1.6c0,34.4,1.9,92.3,1.9,126.6c-10.2,0-21.9,0.6-32.1,0.6c-3.4,0-8.4-0.1-14.3-0.4v4.3
	c6.1,0,11.4,0,15,0.1c11.3,0.1,26.6,1.7,36.6,0.5c0-0.6,0-1.2,0-1.8v-6.2c-0.1-37.5-2.5-93.1-2.3-127.7l-49.2-1.4V95.2z M346.2,93.4
	l46.4,1.7v-3.7L342.9,90l0.4,137.7c9.8,0.1,32.6,0.1,49.3,0.2v-4.3c-14.8-0.7-34.6-2-43.3-2L346.2,93.4z"/>
<path class="st2" d="M368.6,203.5c1,3.3,0,9.3-4.7,8.8C347.1,210.6,363.8,192.9,368.6,203.5z"/>
<path class="st2" d="M425.9,201.9c2.4,0.2,4.3,1.2,4.2,3.8c-0.2,3.4-6.1,6.3-8.7,4C418.9,207.6,422.2,200.3,425.9,201.9z"/>
<path class="st2" d="M393,169.2l3.2,0.1l3.8-0.1v-0.4l0.1-1.3l0.1-3.1l-0.1-2.2l-0.5-0.1L393,162v-3.6l8,0.3
	c3.1,0.6,2.7,2.9,2.7,5.7c0,1.2,0.9,8.2-2,8.4H393V169.2z M386,161.8l0.4,7.3l0.9-0.1h1.6l4,0.2v3.7l-7.3-0.1
	c-5.2,0-3.3-9.1-3.4-11.9c0-0.2,0.1-0.4,0.1-0.6c-0.1-0.1-0.1-0.2-0.1-0.4c0-1,0.9-1.8,1.9-1.8l8.7,0.3v3.6L386,161.8z"/>
<path class="st2" d="M394.6,195l17.3,0.2c1.6,0,2.1,1.9,1.6,3.1c-1.6,3.9-4.6,9.4-7.3,12.3c-0.7,0.8-1.1,2-2,2.5
	c-1.3,0.6-3.2,0.3-4.8,0.4c-1.4,0.1-3,0.2-4.8,0.3v-4l4.8,0.1l2.6-0.1l1.2-1.2l3.2-5.1l1.7-2.7l1.1-1.9l-3.2,0.1l-6,0.1h-5.3V195z
	 M383.6,210.6c-2.1-4.5-5.7-7.9-7.4-12.5c-0.4-1.3,0.9-2.7,2.1-3.1c0.4-0.1,0.9-0.2,1.4-0.1l14.9,0.1v4.2h-4.5l-9.9-0.6l0.1,0.1
	l1.2,1.9l1.7,2.2l3.6,6.5c1.6,0.3,2.8,0.5,4.6,0.6h2.6h0.7v4c-3,0.1-6.3,0-8.6-0.9C385.2,212.6,383.7,211.4,383.6,210.6z"/>
<path class="st2" d="M336.5,77.6l-2.9,34.9l0.9,82l0.1,16l11.4,13.8c1,0.9,1.9,1.5,1.1,2.5c-0.9,1-2.4,1.1-3.3,0.2
	c-3.9-4.8-14.1-13.3-13.9-20.5l-1.8-69.6l3.5-59.8c0.1-1.3,1.3-2.3,2.6-2.2C335.6,75.1,336.6,76.3,336.5,77.6z"/>
<path class="st2" d="M404.2,25c-6.8,0.7-17.6-0.4-22.1,6.5c-1.2,1.8-1.6,3.9-1.7,6L379.8,72c0.8,7,10.5,9.8,15.6,5.5
	c1.7-1.4,3-4.2,3.2-6.5l-0.3-22.6c-0.1-5,3.5-8.5,8.4-9.1c5.5-0.7,12,1.6,17.4,0c6.3-1.9,5.5-11.8,5.9-16.5c0-1.3,1.1-2.4,2.4-2.4
	c1.3,0,2.4,1.1,2.4,2.4c-0.6,6.6-0.1,15.1-6.2,19.4c-6.9,5-16-0.9-23.3,2.4c-1.5,0.6-2.2,2.1-2.2,3.7c0.2,9.6,4,23.6-3.5,31.7
	c-5.3,5.7-17.9,5.5-22.1-1.2c-4.7-7.3-2.5-18.7-2.3-26.3c0.2-8.1-1.7-20.6,5.7-26.9c6.5-5.5,15.5-4.7,23.3-5.6
	c1.4,0,2.4,1.1,2.4,2.4C406.6,23.9,405.5,25,404.2,25z"/>
<path class="st2" d="M343.6,92c-2.7-4.7-7.5-7.3-10.4-11.7c-0.4-0.7-1.1-2.1-1.2-3.3v-0.4c0-1,0.5-1.7,1.9-1.8l44.6,0.3v4l-10.4-0.6
	l-29.4,1l1,0.9c3.3,3.2,6,5.8,8.4,9.9c0.4,1.3-0.2,2.7-1.4,3.1S344.1,93.2,343.6,92L343.6,92z M398.7,75.3L424,76
	c2.1,0.2,4.6,3.5,5.8,4.8l10.9,10.3c1.2,0.6,1.7,2,1.2,3.2c-0.6,1.2-2,1.7-3.2,1.2l-15-14.1l-0.6-0.5l-0.1-0.1l-12.6-0.3l-11.4-0.2
	V75.3z"/>
</svg>
