<?xml version="1.0" encoding="utf-8"?>
<!-- Generator: Adobe Illustrator 21.0.0, SVG Export Plug-In . SVG Version: 6.00 Build 0)  -->
<svg version="1.1" id="Vrstva_1" xmlns="http://www.w3.org/2000/svg" xmlns:xlink="http://www.w3.org/1999/xlink" x="0px" y="0px"
	 viewBox="0 0 500 250" style="enable-background:new 0 0 500 250;" xml:space="preserve">
<style type="text/css">
	.st0{fill:#666666;}
	.st1{fill:#666666;stroke:#FFFFFF;stroke-miterlimit:10;}
	.st2{fill:#FFFFFF;}
	.st3{font-family:'KohinoorBangla-Regular';}
	.st4{font-size:13.3668px;}
	.st5{font-size:35px;}
</style>
<rect class="st0" width="500" height="250"/>
<g>
	<path class="st1" d="M209.5,166.7H91.4c-6.3,0-11.5,5.2-11.5,11.5v7.6c0,6.3,5.2,11.5,11.5,11.5h118.1c6.3,0,11.5-5.2,11.5-11.5
		v-7.6C221,171.9,215.8,166.7,209.5,166.7z"/>
	<text transform="matrix(1.0031 0 0 1 107.231 186.3242)" class="st2 st3 st4">Více informací </text>
</g>
<text transform="matrix(1 0 0 1 17.0962 80.1484)"><tspan x="0" y="0" class="st2 st3 st5">Potrubní rozvody</tspan><tspan x="105.3" y="42" class="st2 st3 st5">TZB</tspan></text>
<path class="st2" d="M438,203l-39.5-0.6v-5.2L438,198V203L438,203z M398.5,163.2v-5l39.5,1.1v5.1L398.5,163.2z M398.5,202.4
	l-63.6-0.9c-6.3-0.8-12-6.3-13.8-12.3c-3.7-12.1-3.4-97.6-2.2-118.2h5.8c-1.4,17.1-1.4,81.3-1.4,83.1c-0.1,11-1.2,25.1,4,35.2
	c1.8,3.3,5,6.4,9.1,6.8l62.1,1.2V202.4L398.5,202.4z M398.5,158.2l-32.5-0.9l-1.4-0.5l-0.3-0.1l0.1-85.8h-5.1
	c1.4,20-0.9,83.8,0.1,87.6c0.6,2.2,3.4,3.2,5.3,3.7l33.8,1V158.2z"/>
<path class="st2" d="M341.4,60.7h20.3c2.9,0,5.3,2.4,5.3,5.3v2.7c0,2.9-2.4,5.3-5.3,5.3h-20.3v-4.6h20c0.4-0.1,0.7-0.1,0.9-0.5
	l0.1-2.6c-0.1-0.4-0.1-0.7-0.6-0.9h-20.4V60.7z M321.2,60.7h20.2v4.7h-19.9c-0.4,0-0.7,0.1-0.9,0.5l-0.1,2.5
	c0.1,0.4,0.1,0.7,0.5,0.9l20.4,0.1V74h-20.2c-2.9,0-5.3-2.4-5.3-5.3v-2.7C315.8,63.1,318.3,60.7,321.2,60.7z"/>
<path class="st2" d="M341.4,53.1h13.3c1.9,0,3.5,2.4,3.5,5.3v2.3h-16.8h12.8c0-1.2,0.1-2.4-0.3-3.7h-12.5V53.1z M328.2,53.1h13.2v4
	H329c-0.2,0.5-0.3,0.9-0.3,1.5c0,0.7-0.1,1.4,0,2.2h12.7h-16.7v-2.3C324.7,55.5,326.2,53.1,328.2,53.1z"/>
<path class="st2" d="M449.4,160.4v40.5c0,2.9-2.4,5.3-5.3,5.3h-1.3v-4.6h1.1c0.4-0.1,0.7-0.1,0.9-0.6v-40.2c0-0.4-0.1-0.7-0.5-0.9
	l-1.4-0.1v-4.6h1.3C447,155.2,449.4,157.6,449.4,160.4z M442.8,206.2h-1.4c-2.9,0-5.3-2.4-5.3-5.3v-40.5c0-2.9,2.4-5.3,5.3-5.3h1.4
	v4.6h-1.2c-0.4,0.1-0.6,0.1-0.8,0.5l-0.1,40.3c0.1,0.4,0.1,0.7,0.5,0.9l1.5,0.1V206.2z"/>
<path class="st2" d="M457,167.4V194c0,1.9-2.4,3.4-5.3,3.4h-0.5v-3.9c0.6,0,1.2-0.1,1.9-0.3v-25c-0.6-0.2-0.9-0.3-1.5-0.3
	c-0.1,0-0.2,0-0.4,0v-4h0.5C454.7,164,457,165.5,457,167.4z M451.2,197.4h-1.8V164h1.8v4c-0.6,0-1.2-0.1-1.8,0v25.6
	c0.6,0,1.2,0.1,1.8,0V197.4z"/>
</svg>
