<?xml version="1.0" encoding="utf-8"?>
<!-- Generator: Adobe Illustrator 21.0.0, SVG Export Plug-In . SVG Version: 6.00 Build 0)  -->
<svg version="1.1" id="Vrstva_1" xmlns="http://www.w3.org/2000/svg" xmlns:xlink="http://www.w3.org/1999/xlink" x="0px" y="0px"
	 viewBox="0 0 500 250" style="enable-background:new 0 0 500 250;" xml:space="preserve">
<style type="text/css">
	.st0{fill:#666666;}
	.st1{fill:#666666;stroke:#FFFFFF;stroke-miterlimit:10;}
	.st2{fill:#FFFFFF;}
	.st3{font-family:'KohinoorBangla-Regular';}
	.st4{font-size:13.3668px;}
	.st5{font-size:35px;}
</style>
<rect class="st0" width="500" height="250"/>
<g>
	<path class="st1" d="M209.5,166.7H91.4c-6.3,0-11.5,5.2-11.5,11.5v7.6c0,6.3,5.2,11.5,11.5,11.5h118.1c6.3,0,11.5-5.2,11.5-11.5
		v-7.6C221,171.9,215.8,166.7,209.5,166.7z"/>
	<text transform="matrix(1.0031 0 0 1 107.231 186.3242)" class="st2 st3 st4">Více informací </text>
</g>
<text transform="matrix(1 0 0 1 44.063 80.1484)"><tspan x="0" y="0" class="st2 st3 st5">Klimatizace a </tspan><tspan x="18.7" y="42" class="st2 st3 st5">rekuperace</tspan></text>
<path class="st2" d="M376.7,191c32.4,0.4,65.2,0.8,83.2,0.8c0.1-10.5,0.7-30.2,0.7-40.8c0-12.4-2.6-47.2-2.5-59.6l-81.4-2.1v-4.9
	l87.7,0.8c0.1,13.8,0.1,52.7,0.2,66.5c0.1,11.7,1.8,35.2,0.5,45.5c-19.6,0.1-54.2-0.5-88.4-1.1V191z M292.8,87.1l3.5,103.1
	c17.5,0,48.9,0.4,80.5,0.8v5.1c-33-0.6-65.8-1.1-84.7-0.9l-2.9-111.5l87.6,0.7v4.9L292.8,87.1z"/>
<path class="st2" d="M458,88.9c3.7-2.9,9.5-8.6,11.3-11.2c2.2-0.1,5.2-0.1,5.3,3.2c-0.1,21.9,0,54.8,1.4,76.7l1.8,28.8
	c-2.8,2.1-10.2,8.9-12.5,10.8c-1.5-0.4-1-1.9-2.2-2.4s-1.9-0.9-1.3-2.1l10.5-8l0.6-0.9c0.1-4.3-0.9-8.6-0.8-13
	c0.6-28.9-1.3-57.9-2.2-86.7l-1.9,2c-2.4,2.4-4.4,4.6-6.8,6.5L458,88.9z"/>
<path class="st2" d="M468.5,82.5c-19.6-1.3-39.1-3.5-58.7-3.9l-86.2-1.4l-16.6,0.1l-14.5,8.4c-0.9,1.1-1,1.4-2.1,0.4
	c-1-0.9-1.6-1.7-0.7-2.7c6.6-3.9,16.8-9.8,18.4-9.8L469,77.6c1.4,0.1,2.4,1.4,2.2,2.7C471.1,81.6,469.9,82.7,468.5,82.5z"/>
<path class="st2" d="M321.4,98.5c7.6,12.8,13.8,20.8,10.6,32c-3.1,10.7-27.6,11.6-21.9-6.1C311.1,121.2,320.9,110.6,321.4,98.5z"/>
<path class="st2" d="M417.3,123.3c0.4,5.1,3.3,2.3,5.7,6.6c0.9-2.7,9.6-4.2,7.3-8.6c-8.7-16.8-1.9-19.6-0.2-21.6
	c-4.2,14.6,9,14.7,5.3,29.2c-3.2,12-32,13-25.3-6.9c0.7-2,5.1-6.1,3.2-11.9C418.9,112.1,416.9,117.5,417.3,123.3z"/>
<path class="st2" d="M421.7,107.6c-2.3,7.6-2.4,12.1-1.6,14.6c0.7,2.3,2.3,3,3,4.6C430.5,122.3,421.4,116.1,421.7,107.6z"/>
<path class="st2" d="M308,165.8l3.1-0.1l-1.9-2.1c-0.4-0.4-0.3-1.1,0.1-1.4l0,0c0.4-0.4,1.1-0.4,1.4,0.1l3.2,3.5l8.2-0.1l-5.8-5.8
	l-4.8,0.3c-0.6,0.1-1-0.4-1.1-0.9l0,0c0-0.6,0.4-1,1-1.1l2.9-0.2l-2.2-2.2c-0.4-0.4-0.4-1,0-1.4l0,0c0.4-0.4,1.1-0.4,1.4,0l2.2,2.2
	l0.1-2.9c0-0.6,0.5-1,1.1-1l0,0c0.6,0.1,1,0.5,0.9,1.1l-0.2,4.8l5.8,5.7v-8.2l-3.5-3.1c-0.4-0.4-0.4-1-0.1-1.4l0,0
	c0.4-0.4,1-0.4,1.4-0.1l2.2,1.9v-3.1c0-0.6,0.5-1,1-1l0,0c0.6,0,1.1,0.4,1.1,1v3.1l2.2-1.9c0.4-0.4,1-0.4,1.4,0.1l0,0
	c0.4,0.4,0.3,1-0.1,1.4l-3.5,3.2v8.2l5.8-5.9l-0.2-4.7c-0.1-0.6,0.4-1.1,0.9-1.1l0,0c0.6-0.1,1,0.4,1.1,0.9l0.1,2.9l2.2-2.2
	c0.4-0.4,1.1-0.4,1.5,0l0,0c0.4,0.4,0.4,1.1,0,1.4l-2.2,2.2l2.9,0.1c0.6,0,1,0.5,1,1l0,0c-0.1,0.6-0.5,1-1.1,1l-4.8-0.2l-5.8,5.9
	l8.1-0.1l3.2-3.5c0.4-0.4,1.1-0.4,1.4-0.1l0,0c0.4,0.4,0.5,1,0.1,1.4l-1.9,2.2l3.1-0.1c0.5,0,1,0.5,1,1l0,0c0,0.6-0.5,1.1-1,1.1H338
	l1.9,2.2c0.4,0.4,0.4,1.1-0.1,1.4l0,0c-0.4,0.4-1,0.4-1.4-0.1l-3.2-3.5l-8.1,0.1l5.8,5.8l4.8-0.4c0.6,0,1,0.4,1.1,1l0,0
	c0,0.5-0.4,1-1,1.1l-2.9,0.1l2.2,2.2c0.4,0.4,0.4,1.1,0,1.4l0,0c-0.4,0.4-1.1,0.4-1.5,0.1l-2.2-2.2l-0.1,2.9c-0.1,0.6-0.5,1-1.1,0.9
	l0,0c-0.6,0-1-0.5-0.9-1l0.2-4.8l-5.8-5.8v8.2l3.5,3.2c0.4,0.4,0.4,1,0.1,1.4l0,0c-0.4,0.4-1.1,0.4-1.4,0.1l-2.2-1.9v3.1
	c0,0.6-0.5,1.1-1.1,1.1l0,0c-0.5,0-1-0.4-1-1V180l-2.2,1.9c-0.4,0.4-1.1,0.4-1.4-0.1l0,0c-0.4-0.4-0.3-1.1,0.1-1.4l3.5-3.2v-8.2
	l-5.8,5.8l0.2,4.8c0.1,0.6-0.4,1-0.9,1.1l0,0c-0.6,0-1.1-0.4-1.1-0.9l-0.1-3l-2.2,2.2c-0.4,0.4-1,0.4-1.4,0.1l0,0
	c-0.4-0.4-0.4-1.1,0-1.4l2.2-2.2l-2.9-0.1c-0.6,0-1-0.5-1-1.1l0,0c0.1-0.6,0.5-1,1.1-0.9l4.8,0.1l5.8-5.8l-8.2,0.1l-3.2,3.6
	c-0.4,0.4-1,0.4-1.4,0.1l0,0c-0.4-0.4-0.4-1-0.1-1.4l1.9-2.2H308c-0.6,0-1-0.4-1-1l0,0C307,166.2,307.5,165.8,308,165.8z"/>
<path class="st2" d="M413.6,161.6l4.6,0.2c-0.6-5.8-0.3-8.3,1-10c1.5-2.2,4.3-5,7.1-4.5c2.9,0.6,5.1,3.5,3,6c-1.2,1.3-4.3,1.8-5,2.3
	c-1.4,1.2-2.3,2.2-1.1,5.8c7.5-1.9,15.8-1.5,17.3,3.2c0.4,1.5-1.1,3.6-2.7,4c-3,0.6-4.6-2.4-7.1-3.2c-2.4-0.7-3.3-1-5.8-0.8
	c1.9,2.4,4,4.8,5.7,7.4c1.7,2.6,2.4,9.4,0.1,12.2c-2.3,2.8-7.6,1.4-7.6-1.5c0-1.8,1.9-3,2.2-4.9c0.4-3.9,0.1-7.8-3.5-10.9v-0.1
	c-0.9,2.3-3.4,14-11,14.5c-4.1,0.3-6.2-1.8-5.1-5c0.8-2.4,11.1-3.2,12.5-10.2c-2,0.1-10.2,0.5-13.5-1.7c-2.4-1.7-3.2-7.1,0.1-7.8
	C411.7,155.2,409,161.3,413.6,161.6z"/>
</svg>
