<?xml version="1.0" encoding="utf-8"?>
<!-- Generator: Adobe Illustrator 21.0.0, SVG Export Plug-In . SVG Version: 6.00 Build 0)  -->
<svg version="1.1" id="Vrstva_1" xmlns="http://www.w3.org/2000/svg" xmlns:xlink="http://www.w3.org/1999/xlink" x="0px" y="0px"
	 viewBox="0 0 500 250" style="enable-background:new 0 0 500 250;" xml:space="preserve">
<style type="text/css">
	.st0{fill:#666666;}
	.st1{fill:#666666;stroke:#FFFFFF;stroke-miterlimit:10;}
	.st2{fill:#FFFFFF;}
	.st3{font-family:'KohinoorBangla-Regular';}
	.st4{font-size:13.3668px;}
	.st5{font-size:35px;}
</style>
<rect class="st0" width="500" height="250"/>
<g>
	<path class="st1" d="M209.5,166.7H91.4c-6.3,0-11.5,5.2-11.5,11.5v7.6c0,6.3,5.2,11.5,11.5,11.5h118.1c6.3,0,11.5-5.2,11.5-11.5
		v-7.6C221,171.9,215.8,166.7,209.5,166.7z"/>
	<text transform="matrix(1.0031 0 0 1 107.231 186.3242)" class="st2 st3 st4">Více informací </text>
</g>
<text transform="matrix(1 0 0 1 16.1333 80.1484)"><tspan x="0" y="0" class="st2 st3 st5">Vzduchotechnika</tspan><tspan x="62.2" y="42" class="st2 st3 st5">a komíny</tspan></text>
<path class="st2" d="M433.1,95.2l10.1-6c0-2.2,0.2-5-3.4-5.1c-37.8,0.2-66.1-2.3-104.3-4.6c-2.4,1-17.1,5.7-20.3,7.6l3.1,2.5
	l17.6-5.2c36.1-0.9,63.6,3.5,99.5,4.6l-6.8,3.5L433.1,95.2z"/>
<path class="st2" d="M438.4,87l1,24.6l-9.9,7.1c-1.1,0.9-1.4,1.1-0.4,2.2c1,1.2,1.8,1.7,3,0.8c4.2-3.9,11.2-8.4,11.3-11.2
	c0.1-8-0.6-15.8,0.4-23.8c-0.1-1.5-1.4-2.6-2.9-2.4C439.3,84.2,438.2,85.4,438.4,87z"/>
<path class="st2" d="M340.7,233.5c-0.4-40.5-1.7-81-1.2-121.5c-6.7-0.9-12.7-1.7-19.4-2.4c-0.9-1.5-0.8-13.5-0.8-18.6
	c36.7-0.1,73.7,5,110.3,4.9l0.1,19.3l-25,1l2.7,120.2h4.8l-3.4-113.9l22.3-0.5l4.5-6l0.1-24.5c-35.6,1.2-83.9-4.9-120.5-4.5
	c-0.1,7.7-0.1,15.4-0.1,23.1c0,2.7,1.7,2.6,5.3,3.1c4.6,0.6,9.1,1.2,13.7,1.9c0.6,39.5,1.2,79,1.7,118.4
	C337.5,233.5,339.1,233.5,340.7,233.5z"/>
<polygon class="st2" points="414.3,119.1 417,234.2 421.8,234.2 418.4,120.3 "/>
<path class="st2" d="M407.3,130.5l8-3.4c1-0.5,2.2,0,2.7,1c0.4,1-0.1,2.2-1.1,2.7l-8.2,3.5c-1,0.4-2.2-0.1-2.6-1.2
	C405.7,132.1,406.2,130.9,407.3,130.5z"/>
<path class="st2" d="M407.3,143.1l8-4.2c1-0.4,2.2,0,2.7,1c0.4,1.1-0.1,1.7-1.1,2.2l-8.2,4.8c-1,0.4-2.2-0.1-2.6-1.2
	C405.7,144.7,406.2,143.5,407.3,143.1z"/>
<path class="st2" d="M407.9,157.9l7.9-4.9c1-0.4,2.2,0.1,2.7,1.1c0.4,1-0.1,2.2-1.1,2.7c-2.8,0.9-5.5,2.7-8.1,4.9
	c-1,0.4-2.2-0.1-2.6-1.2C406.4,159.4,406.9,158.2,407.9,157.9z"/>
<path class="st2" d="M408.4,176.7c3.6,0.1,5.5-2.4,8.3-3.6c1-0.4,1.9-0.6,2.4,0.4s0,1.7-1,2.2c-2.7,1.6-5.2,4-8.2,4.8
	c-1,0.4-2.2-0.1-2.6-1.2C406.9,178.2,407.4,177.1,408.4,176.7z"/>
<path class="st2" d="M408.4,191.3c3.6-0.2,5.5-3,8.3-4.5c1-0.6,1.9-0.9,2.4,0.1c0.4,1,0,1.7-1,2.3c-2.7,1.9-5.2,4.7-8.2,5.8
	c-1,0.6-2.2,0.1-2.6-0.9C406.9,193.1,407.4,191.9,408.4,191.3z"/>
<path class="st2" d="M408.9,206.3c3.6-1.9,5.5-4,8.3-5.9c1-0.7,1.9-1.2,2.4-0.3c0.4,0.9,0,1.7-1,2.4c-2.7,2.4-5.1,4.5-8.1,6.1
	c-1,0.7-2.3,1.4-2.7,0.6C407.4,208.3,407.9,207,408.9,206.3z"/>
<path class="st2" d="M409.7,222.3c3.2-0.3,4.8-3,7.2-4.6c0.9-0.6,1.7-0.9,2.2,0.1c0.4,0.9-0.1,1.7-0.9,2.3c-2.4,1.9-4.5,4.7-7.1,5.8
	c-0.9,0.5-1.9,0.1-2.3-0.9C408.4,224,408.9,222.8,409.7,222.3z"/>
<path class="st2" d="M337.5,111.7c22.6,1.3,44.9,1.7,67.4,3c1.1,0.1,1.9,1,1.9,2.2c-0.1,1.1-1,1.7-2.1,1.6c-9-0.9-17.9-1.7-26.9-1.6
	c-13.5,0.2-26.9-0.4-40.5-1.2c-1.2-0.1-1.9-1-1.9-2.2C335.5,112.5,336.4,111.6,337.5,111.7L337.5,111.7z M337,125.5
	c23,1.3,46.8,1.2,69,3.8c1.2,0,2,0.9,2,2c0,1.1-1.2,1.4-2.3,1.4c-8.6-1.4-17.9-2.6-26.9-3c-14-0.4-27.9,0.5-41.9-0.3
	c-1.2,0-2-0.9-2-2.1C335,126.4,335.9,125.5,337,125.5L337,125.5z M337.2,140.4l36.4,1.5l34.4,1.5c1.1,0.4,1.7,1.4,1.3,2.5
	c-0.4,1.1-1.5,1.7-2.6,1.3l-33.1-1.3l-36.5-1.5c-1.2-0.1-2-1-1.9-2.2C335.2,141.2,336.2,140.3,337.2,140.4L337.2,140.4z
	 M346.5,155.3l38.5,0.4l14.2,1.9l6.7-0.4c1.1-0.3,2.2,0.3,2.4,1.4c0.3,1.1-0.3,2.2-1.4,2.5c-4.5,0.5-7.9,0.6-12.4-0.1l-17.8-2.3
	l-33.7-0.5c-1.1-0.1-2-0.9-2-2.1C341.2,155,345.4,155.3,346.5,155.3L346.5,155.3z M407.7,176.3c1.1,0.1,1.9,1,1.9,2.2
	c-0.1,1.1-1.1,1.9-2.2,1.8l-43.8-3.1c-1.2-0.1-1.9-1-1.9-2.1C362.1,173.1,402.8,175.9,407.7,176.3L407.7,176.3z M339.5,174.9l15-0.5
	c1.2,0,3.2,0.8,3.2,1.9c-0.1,1.2-0.9,2-2.1,2l-16.2,0.6c-1.1-0.1-2-0.9-2-2.1C337.5,175.7,338.4,174.8,339.5,174.9L339.5,174.9z
	 M338.8,187.1l68.2,4.1c1.1,0.1,1.9,1.1,1.9,2.2c-0.1,1.1-1,1.9-2.2,1.9l-68.1-4.1c-1.2-0.1-2-1-1.9-2.2
	C336.7,187.9,337.7,187,338.8,187.1L338.8,187.1z M339.4,203.1l10.2,0.6c1.1,0.1,1.9,1.1,1.8,2.2c-0.1,1.1-1.2,1.9-2.2,1.8
	l-10.1-0.6c-1.2-0.1-1.9-1.2-1.8-2.2C337.3,203.8,338.3,203,339.4,203.1L339.4,203.1z M359.8,204l36.7,1.4c3.3,0.1,6.8,1.1,9.9-0.3
	c0.9-0.6,2.2-0.4,2.8,0.5c0.6,0.9,0.4,2.2-0.6,2.8c-4.1,1.9-8.1,1.2-12.6,0.9l-36.6-1.9c-1.2-0.1-2-1-1.9-2.2
	C357.5,204.2,358.8,203.9,359.8,204L359.8,204z M339.2,217.9l70.8,2.8c1.2,0.1,2,1,1.9,2.1c-0.1,1.2-1,2-2.1,1.9l-70.9-3.6
	c-1.2-0.1-2-1-1.9-2.2C337.1,217.9,338.2,217.8,339.2,217.9L339.2,217.9z M340,230.2c10.3,1.9,21.2,4,32.1,3.5
	c5.9-0.3,10.3-1.6,16.1-1.3l21.3,0.9c1.2,0,2,0.6,2,1.5s-0.9,1.6-2,1.6l-20.4-1c-6-0.3-10.6,1.1-16.8,1.4c-11.2,0.6-22.3-1.4-33-3.5
	c-1.1-0.1-1.8-0.9-1.7-1.8S339,230.1,340,230.2z"/>
<path class="st2" d="M355.4,95.7v0.6l0.1,0.3v-0.1v0.1v0.1V97l0,0V97v0.3l0.2,14.9c0,1.1-0.9,2.1-2,2.2c-1.1,0.1-2-0.8-2-1.9
	l-0.1-11V97l0,0l0,0l0,0V95c0.3-0.7,1.1-1.3,1.9-1.3C354.7,93.7,355.5,94.7,355.4,95.7z M351.6,101.5l-0.1-3V98
	c-0.1-0.7-0.1-1.5-0.1-2.3c0-0.2,0.1-0.5,0.2-0.7V97h-0.1h0.1V101.5z"/>
<path class="st2" d="M382.8,97.4l-0.2,16.6c0,1.1-0.9,2-2,2c-1.1-0.1-1.9-0.9-1.9-2.1l0.2-16.6c0-1.2,0.9-2,1.9-2
	C381.9,95.4,382.8,96.3,382.8,97.4z"/>
<path class="st2" d="M408.2,98.9c0.5,4.8,2.8,12.4-0.1,16.9c-1.1,1.7-2.5,2-4.4,1.7c-1.1-0.3-1.7-1.4-1.4-2.4c0.3-1,1.3-1.7,2.4-1.4
	v-0.1l0.1-0.3c0.6-4.8-0.2-9.6-0.7-14.4c0-1.2,0.9-2,2-2C407.2,96.9,408.2,97.8,408.2,98.9z"/>
<path class="st2" d="M366.8,115.9c0,4-0.1,7.3-0.5,11.2c-0.1,1.2-0.8,2.1-1.9,2.2c-1.1,0.1-2.2-0.8-2.2-1.9
	c0.4-4.2,1.4-7.1,1.1-11.5c-0.1-0.7,0.9-2,2-2C366.5,113.9,366.8,114.7,366.8,115.9z"/>
<path class="st2" d="M395.9,117.6l-0.5,11.4c0,1.1-0.9,2-2,2c-1.2-0.1-2-0.9-2-2.1l0.5-11.4c0.1-1.1,0.9-2,2.1-1.9
	C395,115.5,395.9,116.4,395.9,117.6z"/>
<path class="st2" d="M355.2,129.5c0.4,4.3,0.4,7.9,0.5,12.1c0,1.2-0.6,2.2-1.7,2.3c-1.1,0.1-2.3-0.9-2.3-2c0-4.5,0.8-7.6,0.1-12.4
	c-0.1-0.7,0.7-2.2,1.9-2.2C354.7,127.3,355,128.3,355.2,129.5z"/>
<path class="st2" d="M380.5,130.1l0.3,12c0,1.2-0.9,2-1.9,2c-1.2,0-2-0.9-2-2l0.5-11.4c0.1-1.1,0.9-1.9,2.1-1.9
	C380.5,128.6,380.5,128.9,380.5,130.1z"/>
<path class="st2" d="M388.7,146.1c-0.6,4.8-1,7.9,1.8,12.5c1.1,1.7,2.5,1.9,4.4,1.7c1.1-0.3,1.7-0.4,1.4-1.5c-0.6-2-1.7-1.7-2.1-2.7
	c-0.9-4-2.1-5.1-1.5-10c0-1.1-0.9-2-2-2C389.6,144.1,388.7,145.1,388.7,146.1z"/>
<path class="st2" d="M371,144.7c0.3,4,0.4,7.3,0.4,11.2c0,1.1-0.6,2.1-1.7,2.2c-1.2,0.1-2.3-0.8-2.3-1.9c0-4.2,0.8-7.1,0.1-11.5
	c-0.1-0.7,0.7-2,1.9-2C370.5,142.7,370.9,143.5,371,144.7z"/>
<path class="st2" d="M360.3,157.7l0.4,13.9c0,1.3-0.9,2.3-2,2.3c-1.1,0-2-1.1-2-2.4l0.6-13.2c0-1.3,0.9-2.4,2-2.3
	C360.3,156,360.3,156.4,360.3,157.7z"/>
<path class="st2" d="M382.5,159.3c0.4,4.5,0.5,8.3,0.5,12.7c0,1.2-0.6,2.3-1.7,2.4c-1,0.1-2.2-0.9-2.2-2.2c0.1-4.8,0.8-8,0.1-13
	c-0.1-0.8,0.7-2.3,1.8-2.3C382,157,382.4,158,382.5,159.3z"/>
<path class="st2" d="M395.5,178.4c0.1,4.3,0,7.9-0.2,12.1c-0.1,1.2-0.7,2.2-1.9,2.3c-1.1,0.1-2.2-0.8-2.2-2
	c0.3-4.5,1.2-7.6,0.9-12.4c-0.1-0.7,0.8-2.1,1.9-2.2C395.1,176.2,395.5,177.2,395.5,178.4z"/>
<path class="st2" d="M371.6,177.7l0.4,11.8c0,1.1-0.9,2-2.1,2c-3.6-0.1-1.5-11.1-1.4-13.5c0-1.1,0.9-2,2-1.9
	C371.6,176.1,371.6,176.5,371.6,177.7z"/>
<path class="st2" d="M382,193.4c-0.4,4-0.4,7.3-0.5,11.2c0,1.2,0.6,2.1,1.7,2.2c1.1,0.1,2.3-0.8,2.3-1.9c0-4.2-0.8-7.1-0.1-11.5
	c0.1-0.7-0.8-2-1.9-2C382.5,191.4,382.1,192.3,382,193.4z"/>
<path class="st2" d="M352.7,203.6c-0.4-4-0.5-7.3-0.5-11.2c0-1.1,0.6-2.1,1.7-2.2c1.1-0.1,2.3,0.8,2.3,1.9
	c-0.1,4.2-0.8,7.1-0.1,11.5c0.1,0.7-0.8,2-1.9,2C353.1,205.6,352.8,204.7,352.7,203.6z"/>
<path class="st2" d="M371.3,207.5c0.1,4.3,0.1,7.8-0.1,12c-0.1,1.2-0.3,2.2-1.4,2.3c-1.2,0.1-2.3-0.8-2.2-2
	c0.3-4.5,0.6-7.6,0.2-12.3c-0.1-0.7,0.9-2.1,1.9-2.2C370.9,205.3,371.2,206.3,371.3,207.5z"/>
<path class="st2" d="M361.9,221.1l0.4,12.2c0,1.2-0.9,2.1-2,2.1c-1.2-0.1-2-1-2-2.1l0.5-11.7c0.1-1.2,0.9-2.1,2.1-2.1
	C361.9,219.6,361.9,219.9,361.9,221.1z"/>
<path class="st2" d="M382.7,222.5c-0.4,4-0.9,6.7,1.6,10.6c0.9,1.5,2.1,1.7,3.7,1.5c0.9-0.3,1.4-0.4,1.2-1.3
	c-0.5-1.7-1.4-1.4-1.8-2.3c-0.8-3.4-1.8-4.4-1.3-8.5c0-1-0.8-1.7-1.7-1.7S382.7,221.4,382.7,222.5z"/>
<path class="st2" d="M398.4,74.7c2.8-5.3,3.9-8.4,9.6-11c6.3-3,11.5-7.6,13.3-10c0.3-0.5,1,0.5,0.8,0.9c-2.7,4.9-7.3,7.6-14.5,11.5
	c-3.7,2.1-4.9,6.9-5.6,10.4c-0.1,1.1-0.9,0.8-2.1,0.6C398.9,76.9,398.2,75.9,398.4,74.7z"/>
<path class="st2" d="M435.8,33c-0.2,4.2-3.4,6.7-5,9.9c-0.5,0.9-1.4-0.8-0.8-2.1C430.3,39.8,434.6,34.3,435.8,33z"/>
<path class="st2" d="M440.7,20.3c1.7-2.6,1.5-9.6,5.3-10.2c1.1,0,2,0.9,2,2c0,0.9-0.6,1.4-1.2,1.9c-1.7,1.2-5.7,7.2-6.9,8.9
	C439.5,22,440.3,21.4,440.7,20.3z"/>
<path class="st2" d="M385.1,73.3c3.3-6.2,4.3-8.6,11.1-11.7c6.8-3.2,23.2-20.4,31.9-33.6c-3.2,5.8-16.3,28.1-30.7,35.2
	c-4.4,2.2-5.8,8.1-6.6,12.1c-0.2,1.3-2.4,0.9-3.7,0.6C385.8,75.8,384.9,74.6,385.1,73.3z"/>
<path class="st2" d="M357.5,74.9c0.6-5.1,2.4-12,7.7-14.6c5.7-2.9,9.9-4,11.2-6.4c0.2-0.5,0.1,1-0.1,1.4c-1.8,5-6.6,2.9-11.6,11.2
	c-2,3.2-1.8,6.6-1.8,10.1c0,1.1-2.2,1-3.4,0.8C358.4,77,357.5,76,357.5,74.9z"/>
<path class="st2" d="M371,74c0.3-8.6,3-12,11.6-14.5c7.2-2,15.6-10.2,18.1-13.5c0.4-0.6-0.7,1.3-1,1.8c-4.2,6.5-7.7,10.4-16.9,13.8
	c-6.8,2.5-9,7.4-7.6,14.4c-0.5,1.4-2.2,1.4-3.2,1.1C370.9,76.9,370.9,75.4,371,74z"/>
<path class="st2" d="M404.5,41.4c1.5-1.5,3.5-5.5,5.8-5.8c0.6,0,1,0.5,0.8,1.2c-0.1,0.5-0.6,0.8-1.1,1.1c-1.2,0.7-4.7,4.1-5.8,5.1
	C404.2,42.5,404.1,42,404.5,41.4z"/>
</svg>
