<?xml version="1.0" encoding="utf-8"?>
<!-- Generator: Adobe Illustrator 21.0.0, SVG Export Plug-In . SVG Version: 6.00 Build 0)  -->
<svg version="1.1" id="Vrstva_1" xmlns="http://www.w3.org/2000/svg" xmlns:xlink="http://www.w3.org/1999/xlink" x="0px" y="0px"
	 viewBox="0 0 500 250" style="enable-background:new 0 0 500 250;" xml:space="preserve">
<style type="text/css">
	.st0{fill:#666666;}
	.st1{fill:#666666;stroke:#FFFFFF;stroke-miterlimit:10;}
	.st2{fill:#FFFFFF;}
	.st3{font-family:'KohinoorBangla-Regular';}
	.st4{font-size:13.3668px;}
	.st5{font-size:35px;}
</style>
<rect class="st0" width="500" height="250"/>
<g>
	<path class="st1" d="M209.5,166.7H91.4c-6.3,0-11.5,5.2-11.5,11.5v7.6c0,6.3,5.2,11.5,11.5,11.5h118.1c6.3,0,11.5-5.2,11.5-11.5
		v-7.6C221,171.9,215.8,166.7,209.5,166.7z"/>
	<text transform="matrix(1.0031 0 0 1 107.231 186.3242)" class="st2 st3 st4">Více informací </text>
</g>
<text transform="matrix(1 0 0 1 88.5469 78.1484)"><tspan x="0" y="0" class="st2 st3 st5">Tepelná </tspan><tspan x="-6" y="42" class="st2 st3 st5">čerpadla</tspan></text>
<path class="st2" d="M298.4,111.2c3.5-19,5.4-34.8,20.2-49.5c10.3-10.3,16.2-14.8,26.7-19.2c1.2-0.6,2.6-0.1,3.2,1.1
	c0.6,1.2-0.3,1.4-1.4,1.9c-8,1.5-22,13.4-29.4,23.7c-8.8,12.1-12.4,25.8-12.8,42c0,1.3-2.7,2.4-4,2.4
	C299.4,113.5,298.4,112.4,298.4,111.2z"/>
<path class="st2" d="M336.7,37.5c2.4,6.4,4.8,12.8,7.2,19.2c4.9-4.3,10.3-11.1,15.1-15.5C351.8,39.2,343.9,39.5,336.7,37.5z"/>
<path class="st2" d="M406.5,39.2c25.7,15.2,49.8,28.4,53.2,59.5c0.1,1.6,0.3,3.3,0.4,5c0.1,1.3-0.8,2.5-2.1,2.7
	c-1.3,0.1-1.2-0.8-1.4-2.1c0.2-1.7,0.1-3.6-0.2-5.9c-3.9-27.1-28.5-44.9-53.4-54.9C401.7,43.1,403.8,38.2,406.5,39.2z"/>
<path class="st2" d="M467.6,97.5c-6.8,0.1-13.7,0.1-20.5,0.1c2.4,6,8.6,21.1,11,27.1C462.5,118.7,463.1,103.6,467.6,97.5z"/>
<path class="st2" d="M461,143.8c-3,17.4-7.5,28.4-15.2,38.4c-6,7.7-13.6,15.1-26.4,21.3c-1.2,0.6-3.2-0.4-3.8-1.5
	c-0.6-1.1,0.2-1.4,1.4-1.9c21.4-6.9,37.4-33.6,37.6-56.2C454.6,141.8,460.9,140,461,143.8z"/>
<path class="st2" d="M427.4,209.5c-2.5-6.3-5.1-12.7-7.6-18.9c-4.8,4.4-10.1,11.3-14.8,15.7C412.2,208.2,420.1,207.6,427.4,209.5z"
	/>
<path class="st2" d="M364.1,209.8c-13.8-2.2-47.5-16.1-58.8-43c-0.6-1.4-1.1-3.1-1.7-4.8c-0.4-1.3,0.2-2.7,1.4-3.1
	c1.2-0.4,1.3,0.4,1.8,1.7c0.2,1.7,0.7,3.6,1.7,5.7c9.9,21,30,31.9,53.9,37.5C370,205.5,365.6,210.1,364.1,209.8z"/>
<path class="st2" d="M298,170c6.6-1.7,13.2-3.5,19.8-5.3c-3.8-5.3-13.5-18.3-17.4-23.5C297.6,148.2,300.7,163.1,298,170z"/>
<path class="st2" d="M366.3,96c0.4,1.2,0.8,2.7,0.9,4.2v1.4c-0.2,3.8-2,7.3-6.5,6.8c-0.8-0.1-1.6-0.2-2.3-0.3v-5.2
	c1.2,0.3,2.2,0.4,2.7,0.5h0.5c0.4-0.4,0.4-1.2,0.5-1.7c0.1-2.1-0.1-4.4-2.2-5.3c-0.5-0.1-1.1-0.1-1.6,0v-5.1
	C361.2,90.9,364.1,92.1,366.3,96z M358.4,108.1c-5.8-1.1-8.2-3.6-8.7-6.4v-2.2c0.6-3.9,4.5-7.8,8.7-8.3v5.1
	c-1.9,0.5-3.6,2.5-3.8,4.2c0.1,1.2,2,1.9,3.8,2.3V108.1z"/>
<path class="st2" d="M402.6,136.9l3.9,0.1l7.5-0.3l0.1-0.9l-0.1-1.8l-1.2-0.1h-10.2V129h10.6c1.9,0.1,5.3,0.6,5.5,3.2
	c0.1,1.9,1.1,8.5-2.4,9l-13.6,0.2V136.9z M391.4,133.7l-0.1,2.1v0.4l0.2,0.6l1.4-0.1l2.1-0.1l7.6,0.2v4.6l-10.9,0.1
	c-4.5,0.4-5.2-3-5.2-6.3v-0.4c0-0.8,0.1-1.6,0.1-2.3c0-0.3,0.1-0.6,0.1-0.9c0-0.1,0-0.2,0-0.4c0-1.3,1.1-2.4,2.4-2.4l13.5,0.1v4.8
	L391.4,133.7z"/>
<path class="st2" d="M366.7,137.7l1.1-0.1l0.5-0.1l0.1-0.9l-0.1-2.2h-1.5v-5c2.5-0.1,5.3,0,6,2.3c0.4,1.3,0.6,2.6,0.7,3.8v0.9
	c-0.1,3.1-1.7,5.5-5.3,5.8c-0.5,0-1,0.1-1.5,0.1V137.7z M365.2,134.6l-0.1,2.2l-0.1,0.4l0.2,0.6h0.6l0.9-0.1v4.8
	c-2.3,0.2-5,0.1-5.7-2.3c-0.7-2.4-0.6-4.1-0.5-6.8c0-0.3,0-0.6,0.1-0.8c-0.1-0.1-0.1-0.3-0.1-0.4c0-1.4,1.1-2.4,2.4-2.4
	c0.9-0.1,2.3-0.3,3.7-0.4v5L365.2,134.6z"/>
<path class="st2" d="M350.1,137.3l1.5,0.1l0.1-0.6l-0.1-2.4h-1.4v-5c2.6-0.1,5.3,0.3,6,3c0.6,2.2,1.2,8.1-1.7,9.4
	c-0.9,0.4-2.6,0.7-4.4,0.7V137.3z M348.6,134.5v2.4v0.3l1.4,0.1h0.1v5.3c-2.2,0-4.4-0.4-5.3-1.5c-1.7-1.9-0.9-5.8-0.9-7.8
	c0-0.3,0-0.6,0.1-0.8c0-0.1-0.1-0.3-0.1-0.4c0-1.3,1.1-2.4,2.4-2.4c1.1,0,2.4-0.1,3.8-0.1v5H348.6z"/>
<path class="st2" d="M381.1,116.4l18.1-0.2c10.9-0.1,15.5-0.1,24.6-2.4c1.8-0.5,3.8,0.6,4.4,2.4l0.8,18.3
	c0.8,12.5,1.5,25.1,2.2,37.6c-4.3,3.9-35.2,3.2-39.2,3.2l-10.8,0.4v-4.2l1.6-0.2l9.5,0.2l28.5-1.2l2.3-0.4l1.2-0.4l-0.5-11
	l-0.7-10.3l-0.3-13.5l-0.4-13.5v-0.5l-5.9,1.2l-17.4,0.5l-17.9,0.2V116.4z M336.1,117l45.1-0.6v6.3l-43,0.5l0.5,12.4l0.6,15.3
	l0.1,11.1l0.1,11.2l12.8,0.1l13.8,0.1l8.1-1l6.9-0.9v4.2l-14.9,0.6l-28-0.2c-5.8-0.1-3.2-13.5-3.2-14l-1.3-40
	c-0.4-0.6-0.6-1.2-0.7-1.9C333,118.4,334.3,117.1,336.1,117z"/>
<path class="st2" d="M383.1,119.2l1.3,44.6c0.1,1.2,0.5,2.2,1.2,3.1c1.3,1.2,1.5,3.1,0.4,4.4c-1.2,1.3-3.1,1.4-4.4,0.4
	c-3.5-4.3-3.8-9-4-14.5l-0.6-37.7c0-1.7,1.4-3.2,3.1-3.2C381.6,116.1,383.1,117.5,383.1,119.2z"/>
<path class="st2" d="M350.7,171.6l0.1-20.6c0.1-3.7,6.1-2.2,7.8-2.2c0,0,7-0.9,7.5,1.7l0.1,20.5c0,1.3-1.1,2.4-2.4,2.4
	c-1.3,0-2.4-1.1-2.4-2.4l0.1-17.6c-1.9-0.2-4-0.3-5.9-0.1v8.1l-0.1,10.3c0,1.3-1.1,2.4-2.4,2.4C351.8,173.9,350.7,172.9,350.7,171.6
	z"/>
<polygon class="st2" points="353.8,75.4 340.7,101.1 340.1,75.3 "/>
<path class="st2" d="M338.2,72.1l17.6-0.3l-3,4.8l-14.5-0.1c-1.2,0-2.2-0.9-2.2-2.2C336,73.1,337,72.1,338.2,72.1z"/>
<path class="st2" d="M328.4,117.2l15.8-31.1l14.4-34.2c0.7-1.4,3.7-2.9,4.9-1.1c3.2,4.8,3.5,11.1,5.3,16.6
	c3.5,18.2,10.2,32.8,15.3,49.2c1.7,0.5,2.6,2.3,2.1,4c-0.6,1.6-2.3,2.5-4,2l-5.9-11l-6.6-20.2l-6.8-22.2l-3-9.1
	c-0.8,1.9-1.5,3.7-2.3,5.5c0.6,2.6-16.8,37.3-25.3,55.9c-1.2,1.2-2.7,1.2-3.9,0S327.2,118.4,328.4,117.2z"/>
<path class="st2" d="M363.4,50.4l44.1,4.8c0.6,0.1,1.6,0.8,1.8,1.4c6.8,18,7.9,43.5,23.5,57c1.5,0.9,2,2.8,1.2,4.2
	c-0.9,1.5-2.8,2-4.3,1.2c-6.5-5.5-10.4-11.9-13.6-19.9l-2.7-7.5l-4.9-16.3L404.2,61l-17.1-1.7l-25.3-2.9c-1.7-0.4-2.7-2.1-2.3-3.7
	C360,51,361.6,50,363.4,50.4z"/>
<path class="st2" d="M378.1,54.1l17.3,48c1.3,3.3,1.7,9.2,4.8,11.7c1.2,0.3,1.9,1.5,1.7,2.7c-0.3,1.3-1.5,2.1-2.8,1.9
	c-5.5-2-6.4-10.2-8.1-14.8l-17.5-49.5c0-1.3,0.9-2.4,2.3-2.4C377,51.7,378.1,52.8,378.1,54.1z"/>
<path class="st2" d="M392.2,54.3l15.3,44.4c1.3,3.3,4.9,12.9,8,15.3c1.2,0.3,1.9,1.5,1.7,2.7c-0.2,1.3-1.5,2.1-2.8,1.9
	c-5.6-2-6.6-10.2-8.4-14.8l-18.5-49.5c0-1.3,1.1-2.4,2.4-2.4C391.1,51.9,392.2,53,392.2,54.3z"/>
</svg>
