<?xml version="1.0" encoding="utf-8"?>
<!-- Generator: Adobe Illustrator 21.0.0, SVG Export Plug-In . SVG Version: 6.00 Build 0)  -->
<svg version="1.1" id="Vrstva_1" xmlns="http://www.w3.org/2000/svg" xmlns:xlink="http://www.w3.org/1999/xlink" x="0px" y="0px"
	 viewBox="0 0 1700.8 263.3" style="enable-background:new 0 0 1700.8 263.3;" xml:space="preserve">
<style type="text/css">
	.st0{clip-path:url(#SVGID_2_);}
	.st1{clip-path:url(#SVGID_2_);fill:#EA4432;}
	.st2{clip-path:url(#SVGID_2_);fill:#00A1E4;}
	.st3{clip-path:url(#SVGID_2_);fill:#FFFFFF;}
	.st4{fill:#EA4432;}
	.st5{fill:#00A1E4;}
	.st6{clip-path:url(#SVGID_4_);fill:#FFFFFF;}
	.st7{clip-path:url(#SVGID_4_);fill:none;stroke:#FFFFFF;stroke-width:6.35;}
	.st8{clip-path:url(#SVGID_6_);fill:#FFFFFF;}
</style>
<g>
	<defs>
		<rect id="SVGID_1_" y="-37.8" width="1700.8" height="340.2"/>
	</defs>
	<clipPath id="SVGID_2_">
		<use xlink:href="#SVGID_1_"  style="overflow:visible;"/>
	</clipPath>
	<path class="st0" d="M913.6,93.5c-3.1,0-4.5,0.6-5.5,3.4l-14.5,38.3L878.9,97c-1-2.7-2.4-3.4-5.5-3.4h-12.2c-0.8,0-1,0.6-1.1,1.4
		l-6.5,64.2c-0.1,1,0.5,1.4,1.3,1.4h13.3c0.9,0,1.2-0.4,1.3-1.4l3.8-37.3l13.8,35.3c0.3,1,1,1.4,1.8,1.4h9.2c0.8,0,1.4-0.4,1.8-1.4
		l13.8-35.3l3.7,37.3c0.1,1,0.4,1.4,1.3,1.4H932c0.9,0,1.4-0.4,1.3-1.4l-6.5-64.2c-0.1-0.9-0.2-1.4-1-1.4H913.6z"/>
	<path class="st0" d="M821.8,93.1c-8.1,0-16.7,0.3-25,1c-1,0.1-1.3,0.4-1.3,1.2v63.9c0,1.1,0.2,1.4,1.3,1.4H810c1,0,1.3-0.2,1.3-1.4
		v-22.5h5.5l14,22c0.9,1.3,1.5,1.8,3.4,1.8h13.4c1.3,0,1.6-0.7,1-1.7L834,135.6c9.3-2,12.7-7.5,12.7-20.1
		C846.7,98.7,840.3,93.1,821.8,93.1 M820.1,106.8c8.3,0,10.4,2.2,10.4,9.3s-2.2,8.8-10.4,8.8h-8.8v-18.1H820.1z"/>
	<path class="st0" d="M737,93.6c-0.8,0-1.3,0.5-1.3,1.4v64.3c0,1,0.4,1.4,1.3,1.4h44.4c0.9,0,1.4-0.4,1.4-1.3v-11.2
		c0-0.8-0.5-1.3-1.4-1.3h-29.8v-12.9h27.3c0.9,0,1.4-0.4,1.4-1.3v-10.7c0-0.8-0.5-1.3-1.4-1.3h-27.3v-13.3h29.8
		c0.9,0,1.4-0.4,1.4-1.3V94.9c0-0.9-0.5-1.3-1.4-1.3H737z"/>
	<path class="st0" d="M709,93.6c-0.9,0-1.3,0.5-1.3,1.4v25.3h-25.1V94.9c0-0.9-0.4-1.4-1.3-1.4H668c-0.8,0-1.3,0.5-1.3,1.4v64.2
		c0,1,0.5,1.4,1.3,1.4h13.3c0.9,0,1.3-0.4,1.3-1.4v-24.9h25.1v24.9c0,1,0.4,1.4,1.3,1.4h13.2c0.9,0,1.3-0.4,1.3-1.4V94.9
		c0-0.9-0.4-1.4-1.3-1.4H709z"/>
	<path class="st0" d="M608.1,93.6c-0.8,0-0.7,0.5-0.5,1.3l3.2,11.2c0.2,0.8,0.5,1.3,1.3,1.3h13.2v51.8c0,1,0.4,1.4,1.3,1.4h13.2
		c0.9,0,1.3-0.4,1.3-1.4v-51.8h17.2c0.9,0,1.4-0.4,1.4-1.3V94.9c0-0.9-0.5-1.3-1.4-1.3H608.1z"/>
	<path class="st0" d="M582.3,93.1c-11,0-12.8,0.7-15.5,10.3l-15.4,55.8c-0.2,1,0.3,1.4,1.1,1.4h13.2c0.7,0,0.8-0.4,1.1-1.4l4.7-17.3
		H593l4.7,17.3c0.2,1,0.4,1.4,1.2,1.4H612c0.9,0,1.3-0.4,1.1-1.4l-15.2-55.8C595.2,93.9,593.4,93.1,582.3,93.1 M582.2,106.2
		c1.1,0,1.2,0.2,1.5,1.4l5.9,21.4h-14.5l5.8-21.4C581.2,106.5,581.2,106.2,582.2,106.2"/>
	<path class="st0" d="M530.1,93.6c-0.9,0-1.3,0.5-1.3,1.4v36.2l-24.3-34.6c-1.4-2.1-1.9-3-5.5-3h-9.8c-0.9,0-1.3,0.5-1.3,1.4v64.2
		c0,1,0.4,1.4,1.3,1.4h13.3c0.8,0,1.3-0.4,1.3-1.4v-37.3l25.3,36.2c1.3,1.8,2.5,2.5,5,2.5h9.3c0.9,0,1.3-0.4,1.3-1.4V94.9
		c0-0.9-0.4-1.4-1.3-1.4H530.1z"/>
	<path class="st0" d="M451.9,93.1c-8.1,0-16.7,0.3-25.1,1c-1,0.1-1.3,0.4-1.3,1.2v63.9c0,1.1,0.3,1.4,1.3,1.4h13.3
		c1,0,1.3-0.2,1.3-1.4v-22.5h5.5l14,22c0.9,1.3,1.4,1.8,3.4,1.8h13.4c1.3,0,1.7-0.8,1-1.7l-14.5-23.2c9.3-2,12.7-7.5,12.7-20.1
		C476.8,98.7,470.5,93.1,451.9,93.1 M450.3,106.8c8.2,0,10.4,2.2,10.4,9.3s-2.2,8.8-10.4,8.8h-8.8v-18.1H450.3z"/>
	<path class="st0" d="M387.8,93.1c-10.9,0-12.8,0.7-15.5,10.3L357,159.2c-0.2,1,0.2,1.4,1.1,1.4h13.1c0.8,0,0.9-0.4,1.1-1.4
		l4.8-17.3h21.5l4.7,17.3c0.2,1,0.4,1.4,1.2,1.4h13.1c0.9,0,1.3-0.4,1.1-1.4l-15.2-55.8C400.8,93.9,399,93.1,387.8,93.1
		 M387.8,106.2c1.1,0,1.2,0.2,1.6,1.4l5.8,21.4h-14.4l5.7-21.4C386.8,106.5,386.9,106.2,387.8,106.2"/>
	<path class="st0" d="M327.8,93.1c-8.1,0-16.5,0.3-24.9,1c-1,0.1-1.3,0.4-1.3,1.2v63.5c0,0.8,0.3,1.1,1.3,1.2c8.4,0.6,18.5,1,26.6,1
		c17.3,0,24.1-4.6,24.1-18.4c0-9.9-3-14.5-12.1-15.3v-0.3c7.8-1.3,10.7-5.4,10.7-15.3C352.2,98,345.4,93.1,327.8,93.1 M326.2,106.8
		c7.2,0,9.9,1.8,9.9,7.5c0,5.8-2.7,7.2-10.7,7.2h-7.9v-14.7H326.2z M328.1,132.5c6.7,0,9.5,1.8,9.5,7.6c0,5.4-2.6,7.1-9.5,7.1h-10.5
		v-14.7H328.1z"/>
	<path class="st1" d="M212.4,94c-23-15.6-58.2-14.4-69.8,8.2l-0.7,2.1c0.8,0.8,5.6-3.6,10.1-5.8c31-15.4,90.3,5.7,71.5,65.1
		c-13.9,44-66.4,59.6-110.2,38.8c-12.7-6.1-21.9-13.2-32.8-22c8.4,11.4,18.5,20,30.1,26.2c44.5,23.6,102.3,10.8,120.6-38.6
		c6.4-17.2,8.4-44.8-5.6-61.3C220.8,100.9,218.2,98.7,212.4,94"/>
	<path class="st2" d="M257.3,134.5c-9.1-38.7-33.6-66.6-76-65.5c-25.9,0.7-47.2,22.2-51.9,43c-4,17.8,6,37.4,27.3,41
		c10,1.7,16.8-5.7,17.8-4.7c0,1.7-3.3,7.4-7.4,9.4c-9.4,4.7-25,0.9-34.3-6c-14.7-10.9-19-24.3-15.5-41.6
		c6.5-31.7,34.5-49.2,63.4-49.8C225.7,59.4,254.3,90.6,257.3,134.5"/>
	<path class="st2" d="M188.7,48.7c18.1,1.4,36.3,9.1,51.8,23.6c-5.6-2.5-26.6-16.8-52-17.2c-25.5-0.3-42.7,7.3-56,21.7
		c-14.9,16-17.1,40.6-13.6,54.4c5.5,21.5,36,36.8,60.3,22.9c5.4-3.1,10.3-9.4,11.4-9.4c0,4.7-7.9,16.4-14.4,20.8
		C129,197,79.9,126,125.4,71.9C142.1,52.2,170.6,47.3,188.7,48.7"/>
	<path class="st2" d="M201.5,137.5c0-9.8,1.9-15-1.4-24.2c43.3,70.4-99.5,99-105.7,0.2C92,76.5,118.7,51,153,38
		c0.5-0.3-48.2,24.1-48.5,74.4c-0.3,40,35,71.9,76.5,50.2C192.1,156.7,199.3,149.6,201.5,137.5"/>
	<path class="st1" d="M97.1,156.7C89.8,146,82.2,119,87,99.2v-0.3l0.3,0.3C86,118.7,92,138.2,103,153c20.3,27.5,56,40.5,88,17.1
		c26.6-19.4,20.7-68.1-18.8-65.9l-0.3-0.3c9.5-4.4,46.5-1.3,41.7,47.4c-1.5,15.4-20.7,34.5-45.2,39.1
		C146.6,194.5,118.1,186.9,97.1,156.7"/>
	<path class="st1" d="M68.8,127.1h0.3c12.2,36.4,35.6,63.5,75.5,67.1c27.1,2.4,64.2-17.3,66.5-43.8c2.3-27-10-48.4-35.3-52.9
		l-9.8-0.3l-0.3-0.3v-0.3c24.1-12,70.3,9,56.9,60.6c-8,30.4-45.9,50.8-80.2,47.3C98.6,200,77.2,165.7,68.8,127.1"/>
	<path class="st2" d="M206.2,76.9c26.9,10.1,39.9,44.5,33.8,75.3c-1.9-32.2-12.5-51.5-39.3-63C153.7,68.9,118.6,114,133,146
		C101.3,123.9,133,49.4,206.2,76.9"/>
	<path class="st1" d="M239.8,153c-10.8,54.3-50.6,65.6-71.2,71.4c-10,2.9-13.4,4.1-10.8,8.9c1.5,2.9,7.8,2.1,15.4,0
		C197.5,226.7,240.8,200.1,239.8,153"/>
	<path class="st1" d="M249.5,153c-9.1,60.1-36.3,61-36.3,67.9C213.3,232.4,252.9,204.2,249.5,153"/>
	<path class="st3" d="M205.5,128.3c0,21.3-17.3,38.6-38.6,38.6c-21.3,0-38.6-17.2-38.6-38.6s17.3-38.6,38.6-38.6
		C188.2,89.6,205.5,106.9,205.5,128.3"/>
	<path class="st2" d="M88,93.9c7.4-25.3,15.3-38.8,38.5-53.7c2.8-1.8,4.4-3.2,3.9-4.7c-1.3-3.1-4.6-2.7-8.6-0.5
		C102,45.7,87.6,72.7,88,93.9"/>
</g>
<polygon class="st4" points="1149.5,128.3 1220.6,0 1700.8,0 1700.8,128.3 "/>
<polygon class="st5" points="1074.6,263.3 1149.5,128.3 1700.8,128.3 1700.8,263.3 "/>
<g>
	<defs>
		<rect id="SVGID_3_" y="-37.8" width="1700.8" height="340.2"/>
	</defs>
	<clipPath id="SVGID_4_">
		<use xlink:href="#SVGID_3_"  style="overflow:visible;"/>
	</clipPath>
	<path class="st6" d="M1532.5,41.5c-0.6,0-0.9,0.3-0.9,1v44.6c0,0.7,0.3,1,0.9,1h7.6c0.6,0,0.9-0.3,0.9-1V42.4c0-0.7-0.3-1-0.9-1
		H1532.5z M1537.3,28.3c-0.4,0-0.6,0.1-0.7,0.4l-4.4,7.8c-0.2,0.3-0.1,0.6,0.2,0.8l2.6,1.5c0.4,0.2,0.5,0.2,0.8,0l10.6-8.8
		c0.1-0.2,0.3-0.4,0.3-0.7v-0.4c0-0.4-0.2-0.6-0.6-0.6H1537.3z M1514.5,41.5c-0.6,0-0.9,0.3-0.9,1v28.3L1495,43.4
		c-1-1.4-1.3-2-3.7-2h-6c-0.6,0-0.9,0.3-0.9,1v44.6c0,0.7,0.3,1,0.9,1h7.6c0.6,0,0.9-0.3,0.9-1V57.6l19.7,28.9
		c0.8,1.1,1.6,1.5,3,1.5h5.6c0.6,0,0.9-0.3,0.9-1V42.4c0-0.7-0.3-1-0.9-1H1514.5z M1446.3,41.5c-0.6,0-0.9,0.3-0.9,0.9v44.7
		c0,0.7,0.3,1,0.9,1h30.1c0.6,0,0.9-0.3,0.9-0.9v-6.4c0-0.6-0.3-0.9-0.9-0.9h-21.6V69h19.7c0.6,0,1-0.3,1-0.9V62
		c0-0.6-0.4-0.9-1-0.9h-19.7V49.7h21.6c0.6,0,0.9-0.3,0.9-0.9v-6.4c0-0.6-0.3-0.9-0.9-0.9H1446.3z M1468.1,28.5
		c-0.4-0.2-0.7-0.3-1,0l-6.4,4.5l-6.4-4.5c-0.4-0.3-0.7-0.2-1.1,0l-1.9,1c-0.4,0.2-0.5,0.6-0.2,1l5.7,8c0.2,0.3,0.5,0.5,1.2,0.5h5.1
		c0.8,0,1-0.2,1.2-0.5l5.8-8c0.3-0.4,0.2-0.8-0.2-1L1468.1,28.5z M1420.8,49.3c7.2,0,9,1.4,9,7.5c0,6.1-1.9,7.1-9,7.1h-6.5V49.3
		H1420.8z M1421.8,41.1c-4.9,0-10.7,0.2-16,0.7c-0.7,0.1-0.9,0.2-0.9,0.8v44.5c0,0.8,0.2,1,0.9,1h7.6c0.7,0,0.9-0.2,0.9-1V71.2h7.5
		c13.2,0,17.6-2.5,17.6-14.6C1439.4,44.5,1434.9,41.1,1421.8,41.1 M1379.1,49c1.2,0,1.3,0.3,1.7,1.7l4.3,15.9h-11.9l4.4-15.9
		C1378,49.3,1378.1,49,1379.1,49 M1379.1,41.1c-7,0-8.2,0.7-10,7.2l-10.8,38.7c-0.1,0.7,0.1,1,0.8,1h7.6c0.6,0,0.7-0.2,0.8-1
		l3.5-12.5h16.1l3.4,12.5c0.2,0.7,0.2,1,0.8,1h7.7c0.6,0,0.9-0.2,0.8-1l-10.6-38.7C1387.5,41.8,1386.4,41.1,1379.1,41.1
		 M1380.5,28.3c-0.4,0-0.6,0.1-0.7,0.4l-4.4,7.8c-0.2,0.3-0.1,0.6,0.2,0.8l2.6,1.5c0.3,0.2,0.5,0.2,0.8,0l10.5-8.8
		c0.2-0.2,0.3-0.4,0.3-0.7v-0.4c0-0.4-0.2-0.6-0.6-0.6H1380.5z M1321.3,41.5c-0.6,0-0.9,0.3-0.9,0.9v6.4c0,0.6,0.3,0.9,0.9,0.9h12.6
		v37.4c0,0.7,0.3,1,0.9,1h7.6c0.6,0,0.9-0.3,0.9-1V49.7h12.6c0.6,0,1-0.3,1-0.9v-6.4c0-0.6-0.4-0.9-1-0.9H1321.3z M1310.1,41.5
		c-0.9,0-1.3,0.3-1.6,1L1298,63.6l-10.5-21.2c-0.4-0.7-0.7-1-1.6-1h-8.5c-0.8,0-1.2,0.4-0.7,1.3l16.5,30.2v14.1c0,0.7,0.3,1,0.9,1
		h7.6c0.6,0,0.9-0.3,0.9-1v-14l16.5-30.3c0.5-1,0.2-1.3-0.7-1.3H1310.1z M1236.2,41.5c-0.6,0-0.9,0.2-0.7,1l10.2,38.7
		c1.7,6.5,2.9,7.2,9.9,7.2c7.3,0,8.4-0.7,10-7.2l9.9-38.7c0.2-0.7-0.1-1-0.7-1h-7.7c-0.5,0-0.7,0.2-0.8,1l-9.3,36.4
		c-0.4,1.4-0.5,1.8-1.5,1.8c-0.8,0-0.9-0.4-1.3-1.8l-9.4-36.4c-0.2-0.7-0.3-1-0.8-1H1236.2z"/>
	<path class="st6" d="M1528.1,172.7c-0.6,0-0.9,0.3-0.9,0.9v44.5c0,0.7,0.3,1,0.9,1h30c0.6,0,0.9-0.3,0.9-0.9v-6.4
		c0-0.6-0.3-0.9-0.9-0.9h-21.5v-10.7h19.6c0.6,0,1-0.3,1-0.9v-6.1c0-0.6-0.4-0.9-1-0.9h-19.6v-11.3h21.5c0.6,0,0.9-0.3,0.9-0.9v-6.4
		c0-0.6-0.3-0.9-0.9-0.9H1528.1z M1507.7,172.3c-15.3,0-19.2,5.3-19.2,23.5s4,23.5,19.2,23.5c5.3,0,8.9-0.3,11.8-0.9
		c0.9-0.2,1.4-0.6,1.4-1.6V212c0-0.6-0.3-0.9-0.9-0.9h-12.3c-8.3,0-9.7-3.7-9.7-15.3c0-11.7,1.4-15.3,9.7-15.3h12.3
		c0.6,0,0.9-0.3,0.9-0.9v-4.8c0-1-0.5-1.4-1.4-1.6C1516.6,172.7,1513,172.3,1507.7,172.3 M1464.3,180.2c1.2,0,1.3,0.3,1.7,1.7
		l4.3,15.9h-11.9l4.4-15.9C1463.1,180.5,1463.3,180.2,1464.3,180.2 M1464.3,172.3c-6.9,0-8.1,0.7-9.9,7.2l-10.7,38.6
		c-0.1,0.7,0.1,1,0.8,1h7.6c0.6,0,0.7-0.2,0.8-1l3.5-12.5h16l3.4,12.5c0.2,0.7,0.2,1,0.8,1h7.7c0.6,0,0.9-0.2,0.8-1l-10.5-38.6
		C1472.7,173,1471.5,172.3,1464.3,172.3 M1405.3,172.7c-0.7,0-1,0.2-1,0.9l0.1,6.4c0,0.6,0.3,0.9,1,0.9h22.8l-24.1,30.3
		c-0.4,0.5-0.4,0.7-0.4,1.2l0.1,5.7c0,0.7,0.3,1,0.9,1h35.6c0.6,0,1-0.3,1-1v-6.3c0-0.6-0.4-0.9-1-0.9h-24.1l24.1-30.2
		c0.4-0.4,0.4-0.7,0.4-1.2v-5.8c0-0.7-0.3-0.9-0.9-0.9H1405.3z M1389.1,172.7c-0.6,0-0.9,0.3-0.9,1v44.4c0,0.7,0.3,1,0.9,1h7.6
		c0.6,0,0.9-0.3,0.9-1v-44.4c0-0.7-0.3-1-0.9-1H1389.1z M1347.6,172.7c-0.6,0-0.9,0.3-0.9,0.9v6.4c0,0.6,0.3,0.9,0.9,0.9h12.5v37.2
		c0,0.7,0.3,1,0.9,1h7.6c0.6,0,0.9-0.3,0.9-1v-37.2h12.5c0.6,0,1-0.3,1-0.9v-6.4c0-0.6-0.4-0.9-1-0.9H1347.6z M1328.6,180.2
		c1.2,0,1.3,0.3,1.7,1.7l4.3,15.9h-11.9l4.4-15.9C1327.4,180.5,1327.5,180.2,1328.6,180.2 M1328.6,172.3c-6.9,0-8.1,0.7-9.9,7.2
		l-10.7,38.6c-0.1,0.7,0.1,1,0.8,1h7.6c0.6,0,0.7-0.2,0.8-1l3.5-12.5h16l3.4,12.5c0.2,0.7,0.2,1,0.8,1h7.7c0.6,0,0.9-0.2,0.8-1
		l-10.5-38.6C1336.9,173,1335.8,172.3,1328.6,172.3 M1292.5,172.6c-1.9,0-2.7,0.5-3.4,2.4l-11.1,29.2l-11.1-29.2
		c-0.8-1.9-1.5-2.3-3.4-2.3h-7.2c-0.6,0-0.7,0.4-0.8,1l-4.3,44.4c-0.1,0.7,0.3,1,0.9,1h7.6c0.6,0,0.8-0.3,0.9-1l2.6-28.7l10.7,27.4
		c0.3,0.6,0.7,0.9,1.3,0.9h5.7c0.6,0,1-0.3,1.3-0.9l10.8-27.4l2.6,28.7c0.1,0.7,0.3,1,0.9,1h7.6c0.6,0,1-0.3,0.9-1l-4.3-44.5
		c-0.1-0.5-0.2-1-0.8-1H1292.5z M1235.8,172.7c-0.6,0-0.9,0.3-0.9,1v44.4c0,0.7,0.3,1,0.9,1h7.6c0.6,0,0.9-0.3,0.9-1v-44.4
		c0-0.7-0.3-1-0.9-1H1235.8z M1203.8,172.6c-0.6,0-0.9,0.3-0.9,0.9V218c0,0.7,0.3,1,0.9,1h28.1c0.6,0,0.9-0.3,0.9-0.9v-6.4
		c0-0.6-0.3-0.9-0.9-0.9h-19.6v-37.2c0-0.6-0.3-0.9-0.9-0.9H1203.8z M1184.9,172.7c-0.5,0-1,0.2-1.3,0.6l-15,19.3v-19
		c0-0.6-0.3-0.9-0.9-0.9h-7.6c-0.6,0-0.9,0.3-0.9,0.9v44.5c0,0.7,0.3,1,0.9,1h7.6c0.6,0,0.9-0.3,0.9-1v-21.9l16.2,22.2
		c0.2,0.4,0.7,0.7,1.3,0.7h8.4c1.6,0,1.6-0.8,1-1.6l-17.2-23.4l15.6-20.2c0.5-0.7,0.5-1.1-0.5-1.1H1184.9z"/>
	<path class="st6" d="M1654.8,195.8c0-0.9-0.8-1.7-1.7-1.7h-2.4l2.3-2.3c0.7-0.7,0.7-1.7,0-2.4c-0.7-0.7-1.7-0.7-2.4,0l-4.7,4.7h-12
		l8.5-8.5h6.6c0.9,0,1.7-0.8,1.7-1.7c0-0.9-0.8-1.7-1.7-1.7h-3.3l1.7-1.7c0.7-0.7,0.7-1.7,0-2.4c-0.7-0.7-1.7-0.7-2.4,0l-1.7,1.7
		v-3.3c0-0.9-0.8-1.7-1.7-1.7c-0.9,0-1.7,0.8-1.7,1.7v6.6l-8.5,8.5v-12l4.7-4.7c0.7-0.7,0.7-1.7,0-2.4c-0.7-0.7-1.7-0.7-2.4,0
		l-2.3,2.3v-2.4c0-0.9-0.8-1.7-1.7-1.7c-0.9,0-1.7,0.8-1.7,1.7v2.4l-2.3-2.3c-0.7-0.7-1.7-0.7-2.4,0c-0.7,0.7-0.7,1.7,0,2.4l4.7,4.7
		v12l-8.5-8.5v-6.6c0-0.9-0.8-1.7-1.7-1.7c-0.9,0-1.7,0.8-1.7,1.7v3.3l-1.7-1.7c-0.7-0.7-1.7-0.7-2.4,0c-0.7,0.7-0.7,1.7,0,2.4
		l1.7,1.7h-3.3c-0.9,0-1.7,0.8-1.7,1.7c0,0.9,0.8,1.7,1.7,1.7h6.6l8.5,8.5h-12l-4.7-4.7c-0.7-0.7-1.7-0.7-2.4,0
		c-0.7,0.7-0.7,1.7,0,2.4l2.3,2.3h-2.4c-0.9,0-1.7,0.8-1.7,1.7c0,0.9,0.8,1.7,1.7,1.7h2.4l-2.3,2.3c-0.7,0.7-0.7,1.7,0,2.4
		c0.3,0.3,0.8,0.5,1.2,0.5c0.4,0,0.9-0.2,1.2-0.5l4.7-4.7h12l-8.5,8.5h-6.6c-0.9,0-1.7,0.8-1.7,1.7c0,0.9,0.8,1.7,1.7,1.7h3.3
		l-1.7,1.7c-0.7,0.7-0.7,1.7,0,2.4c0.3,0.3,0.8,0.5,1.2,0.5c0.4,0,0.9-0.2,1.2-0.5l1.7-1.7v3.3c0,0.9,0.8,1.7,1.7,1.7
		c0.9,0,1.7-0.8,1.7-1.7v-6.6l8.5-8.5v12l-4.7,4.7c-0.7,0.7-0.7,1.7,0,2.4c0.7,0.7,1.7,0.7,2.4,0l2.3-2.3v2.4c0,0.9,0.8,1.7,1.7,1.7
		s1.7-0.8,1.7-1.7v-2.4l2.3,2.3c0.3,0.3,0.8,0.5,1.2,0.5c0.4,0,0.9-0.2,1.2-0.5c0.7-0.7,0.7-1.7,0-2.4l-4.7-4.7v-12l8.5,8.5v6.6
		c0,0.9,0.8,1.7,1.7,1.7c0.9,0,1.7-0.8,1.7-1.7v-3.3l1.7,1.7c0.3,0.3,0.8,0.5,1.2,0.5c0.4,0,0.9-0.2,1.2-0.5c0.7-0.7,0.7-1.7,0-2.4
		l-1.7-1.7h3.3c0.9,0,1.7-0.8,1.7-1.7c0-0.9-0.8-1.7-1.7-1.7h-6.6l-8.5-8.5h12l4.7,4.7c0.3,0.3,0.8,0.5,1.2,0.5
		c0.4,0,0.9-0.2,1.2-0.5c0.7-0.7,0.7-1.7,0-2.4l-2.3-2.3h2.4C1654.1,197.5,1654.8,196.7,1654.8,195.8"/>
	<circle class="st7" cx="1629.8" cy="195.8" r="33"/>
	<circle class="st7" cx="1628" cy="64.2" r="33"/>
</g>
<g>
	<defs>
		<rect id="SVGID_5_" x="1607.4" y="40.5" width="42.1" height="47.3"/>
	</defs>
	<clipPath id="SVGID_6_">
		<use xlink:href="#SVGID_5_"  style="overflow:visible;"/>
	</clipPath>
	<path class="st8" d="M1637.6,87.8c3.2-6.6,1.5-10.3-1-13.9c-2.7-3.9-3.4-7.7-3.4-7.7s-2.1,2.7-1.3,7c-3.8-4.1-4.5-10.6-3.9-13.1
		c-8.5,5.8-12.2,18.4-7.3,27.8c-26.2-14.4-6.5-36.1-3.1-38.5c-1.1,2.4-1.4,6.6,0.9,8.6c3.9-14.4,13.5-17.4,13.5-17.4
		c-1.1,7.4,4.1,15.6,9.2,21.7c0.2-3,0.4-5,2-7.9c0.4,5.4,4.6,9.8,5.7,15.2C1650.6,76.8,1647.9,82.2,1637.6,87.8"/>
</g>
</svg>
