<svg id="Vrstva_1" data-name="Vrstva 1" xmlns="http://www.w3.org/2000/svg" xmlns:xlink="http://www.w3.org/1999/xlink" viewBox="0 0 1700.8 263.3"><defs><style>.cls-1,.cls-6{fill:none;}.cls-2{clip-path:url(#clip-path);}.cls-3{fill:#ea4432;}.cls-4{fill:#00a1e4;}.cls-5{fill:#fff;}.cls-6{stroke:#fff;stroke-width:6.35px;}.cls-7{clip-path:url(#clip-path-27);}</style><clipPath id="clip-path"><rect class="cls-1" y="-37.8" width="1700.8" height="340.2"/></clipPath><clipPath id="clip-path-27"><rect class="cls-1" x="1607.4" y="40.5" width="42.1" height="47.3"/></clipPath></defs><title>topper_edit</title><g class="cls-2"><path d="M913.6,93.5c-3.1,0-4.5.6-5.5,3.4l-14.5,38.3L878.9,97c-1-2.7-2.4-3.4-5.5-3.4H861.2c-.8,0-1,.6-1.1,1.4l-6.5,64.2a1.16,1.16,0,0,0,1.3,1.4h13.3c.9,0,1.2-.4,1.3-1.4l3.8-37.3,13.8,35.3a1.78,1.78,0,0,0,1.8,1.4h9.2a1.86,1.86,0,0,0,1.8-1.4l13.8-35.3,3.7,37.3c.1,1,.4,1.4,1.3,1.4H932c.9,0,1.4-.4,1.3-1.4L926.8,95c-.1-.9-.2-1.4-1-1.4H913.6Z"/></g><g class="cls-2"><path d="M821.8,93.1c-8.1,0-16.7.3-25,1-1,.1-1.3.4-1.3,1.2v63.9c0,1.1.2,1.4,1.3,1.4H810c1,0,1.3-.2,1.3-1.4V136.7h5.5l14,22a3.35,3.35,0,0,0,3.4,1.8h13.4c1.3,0,1.6-.7,1-1.7L834,135.6c9.3-2,12.7-7.5,12.7-20.1,0-16.8-6.4-22.4-24.9-22.4m-1.7,13.7c8.3,0,10.4,2.2,10.4,9.3s-2.2,8.8-10.4,8.8h-8.8V106.8Z"/></g><g class="cls-2"><path d="M737,93.6a1.24,1.24,0,0,0-1.3,1.4v64.3c0,1,.4,1.4,1.3,1.4h44.4c.9,0,1.4-.4,1.4-1.3V148.2a1.24,1.24,0,0,0-1.4-1.3H751.6V134h27.3c.9,0,1.4-.4,1.4-1.3V122a1.24,1.24,0,0,0-1.4-1.3H751.6V107.4h29.8c.9,0,1.4-.4,1.4-1.3V94.9c0-.9-.5-1.3-1.4-1.3Z"/></g><g class="cls-2"><path d="M709,93.6c-.9,0-1.3.5-1.3,1.4v25.3H682.6V94.9c0-.9-.4-1.4-1.3-1.4H668a1.24,1.24,0,0,0-1.3,1.4v64.2c0,1,.5,1.4,1.3,1.4h13.3c.9,0,1.3-.4,1.3-1.4V134.2h25.1v24.9c0,1,.4,1.4,1.3,1.4h13.2c.9,0,1.3-.4,1.3-1.4V94.9c0-.9-.4-1.4-1.3-1.4H709Z"/></g><g class="cls-2"><path d="M608.1,93.6c-.8,0-.7.5-.5,1.3l3.2,11.2c.2.8.5,1.3,1.3,1.3h13.2v51.8c0,1,.4,1.4,1.3,1.4h13.2c.9,0,1.3-.4,1.3-1.4V107.4h17.2c.9,0,1.4-.4,1.4-1.3V94.9c0-.9-.5-1.3-1.4-1.3Z"/></g><g class="cls-2"><path d="M582.3,93.1c-11,0-12.8.7-15.5,10.3l-15.4,55.8c-.2,1,.3,1.4,1.1,1.4h13.2c.7,0,.8-.4,1.1-1.4l4.7-17.3H593l4.7,17.3c.2,1,.4,1.4,1.2,1.4H612c.9,0,1.3-.4,1.1-1.4l-15.2-55.8c-2.7-9.5-4.5-10.3-15.6-10.3m-.1,13.1c1.1,0,1.2.2,1.5,1.4l5.9,21.4H575.1l5.8-21.4c.3-1.1.3-1.4,1.3-1.4"/></g><g class="cls-2"><path d="M530.1,93.6c-.9,0-1.3.5-1.3,1.4v36.2L504.5,96.6c-1.4-2.1-1.9-3-5.5-3h-9.8c-.9,0-1.3.5-1.3,1.4v64.2c0,1,.4,1.4,1.3,1.4h13.3c.8,0,1.3-.4,1.3-1.4V121.9l25.3,36.2a5.25,5.25,0,0,0,5,2.5h9.3c.9,0,1.3-.4,1.3-1.4V94.9c0-.9-.4-1.4-1.3-1.4H530.1Z"/></g><g class="cls-2"><path d="M451.9,93.1c-8.1,0-16.7.3-25.1,1-1,.1-1.3.4-1.3,1.2v63.9c0,1.1.3,1.4,1.3,1.4h13.3c1,0,1.3-.2,1.3-1.4V136.7h5.5l14,22a3.27,3.27,0,0,0,3.4,1.8h13.4c1.3,0,1.7-.8,1-1.7l-14.5-23.2c9.3-2,12.7-7.5,12.7-20.1-.1-16.8-6.4-22.4-25-22.4m-1.6,13.7c8.2,0,10.4,2.2,10.4,9.3s-2.2,8.8-10.4,8.8h-8.8V106.8Z"/></g><g class="cls-2"><path d="M387.8,93.1c-10.9,0-12.8.7-15.5,10.3L357,159.2c-.2,1,.2,1.4,1.1,1.4h13.1c.8,0,.9-.4,1.1-1.4l4.8-17.3h21.5l4.7,17.3c.2,1,.4,1.4,1.2,1.4h13.1c.9,0,1.3-.4,1.1-1.4l-15.2-55.8c-2.7-9.5-4.5-10.3-15.7-10.3m0,13.1c1.1,0,1.2.2,1.6,1.4l5.8,21.4H380.8l5.7-21.4c.3-1.1.4-1.4,1.3-1.4"/></g><g class="cls-2"><path d="M327.8,93.1c-8.1,0-16.5.3-24.9,1-1,.1-1.3.4-1.3,1.2v63.5c0,.8.3,1.1,1.3,1.2,8.4.6,18.5,1,26.6,1,17.3,0,24.1-4.6,24.1-18.4,0-9.9-3-14.5-12.1-15.3V127c7.8-1.3,10.7-5.4,10.7-15.3,0-13.7-6.8-18.6-24.4-18.6m-1.6,13.7c7.2,0,9.9,1.8,9.9,7.5s-2.7,7.2-10.7,7.2h-7.9V106.8Zm1.9,25.7c6.7,0,9.5,1.8,9.5,7.6,0,5.4-2.6,7.1-9.5,7.1H317.6V132.5h10.5Z"/></g><g class="cls-2"><path class="cls-3" d="M212.4,94c-23-15.6-58.2-14.4-69.8,8.2l-.7,2.1c.8.8,5.6-3.6,10.1-5.8,31-15.4,90.3,5.7,71.5,65.1-13.9,44-66.4,59.6-110.2,38.8-12.7-6.1-21.9-13.2-32.8-22a89.23,89.23,0,0,0,30.1,26.2c44.5,23.6,102.3,10.8,120.6-38.6,6.4-17.2,8.4-44.8-5.6-61.3-4.8-5.8-7.4-8-13.2-12.7"/></g><g class="cls-2"><path class="cls-4" d="M257.3,134.5c-9.1-38.7-33.6-66.6-76-65.5-25.9.7-47.2,22.2-51.9,43-4,17.8,6,37.4,27.3,41,10,1.7,16.8-5.7,17.8-4.7,0,1.7-3.3,7.4-7.4,9.4-9.4,4.7-25,.9-34.3-6-14.7-10.9-19-24.3-15.5-41.6,6.5-31.7,34.5-49.2,63.4-49.8,45-.9,73.6,30.3,76.6,74.2"/></g><g class="cls-2"><path class="cls-4" d="M188.7,48.7c18.1,1.4,36.3,9.1,51.8,23.6-5.6-2.5-26.6-16.8-52-17.2s-42.7,7.3-56,21.7c-14.9,16-17.1,40.6-13.6,54.4,5.5,21.5,36,36.8,60.3,22.9,5.4-3.1,10.3-9.4,11.4-9.4,0,4.7-7.9,16.4-14.4,20.8C129,197,79.9,126,125.4,71.9c16.7-19.7,45.2-24.6,63.3-23.2"/></g><g class="cls-2"><path class="cls-4" d="M201.5,137.5c0-9.8,1.9-15-1.4-24.2,43.3,70.4-99.5,99-105.7.2C92,76.5,118.7,51,153,38c.5-.3-48.2,24.1-48.5,74.4-.3,40,35,71.9,76.5,50.2,11.1-5.9,18.3-13,20.5-25.1"/></g><g class="cls-2"><path class="cls-3" d="M97.1,156.7C89.8,146,82.2,119,87,99.2v-.3l.3.3A82.22,82.22,0,0,0,103,153c20.3,27.5,56,40.5,88,17.1,26.6-19.4,20.7-68.1-18.8-65.9l-.3-.3c9.5-4.4,46.5-1.3,41.7,47.4-1.5,15.4-20.7,34.5-45.2,39.1-21.8,4.1-50.3-3.5-71.3-33.7"/></g><g class="cls-2"><path class="cls-3" d="M68.8,127.1h.3c12.2,36.4,35.6,63.5,75.5,67.1,27.1,2.4,64.2-17.3,66.5-43.8,2.3-27-10-48.4-35.3-52.9l-9.8-.3-.3-.3v-.3c24.1-12,70.3,9,56.9,60.6-8,30.4-45.9,50.8-80.2,47.3-43.8-4.5-65.2-38.8-73.6-77.4"/></g><g class="cls-2"><path class="cls-4" d="M206.2,76.9c26.9,10.1,39.9,44.5,33.8,75.3-1.9-32.2-12.5-51.5-39.3-63C153.7,68.9,118.6,114,133,146c-31.7-22.1,0-96.6,73.2-69.1"/></g><g class="cls-2"><path class="cls-3" d="M239.8,153c-10.8,54.3-50.6,65.6-71.2,71.4-10,2.9-13.4,4.1-10.8,8.9,1.5,2.9,7.8,2.1,15.4,0,24.3-6.6,67.6-33.2,66.6-80.3"/></g><g class="cls-2"><path class="cls-3" d="M249.5,153c-9.1,60.1-36.3,61-36.3,67.9.1,11.5,39.7-16.7,36.3-67.9"/></g><g class="cls-2"><path class="cls-5" d="M205.5,128.3a38.6,38.6,0,1,1-38.6-38.6,38.62,38.62,0,0,1,38.6,38.6"/></g><g class="cls-2"><path class="cls-4" d="M88,93.9c7.4-25.3,15.3-38.8,38.5-53.7,2.8-1.8,4.4-3.2,3.9-4.7-1.3-3.1-4.6-2.7-8.6-.5C102,45.7,87.6,72.7,88,93.9"/></g><path class="cls-3" d="M1149.5,128.3c16-23.34,25.37-40.92,31-53,.68-1.46,5.67-12.22,13.58-25.74,7.31-12.5,11.72-18.14,15.39-22.31a80,80,0,0,1,15.87-14.6A77.86,77.86,0,0,1,1246,2.77,80.37,80.37,0,0,1,1258.36,0c27-3.9,52.25,0,52.25,0,31.54,0,57-1.55,84.47-2.39,39-1.2,63.5-.45,108.18.37S1613.18-.29,1700.8,0V128.3Z"/><path class="cls-4" d="M913,263.3a454,454,0,0,0,86.53-25.62,452.76,452.76,0,0,0,50.53-24.38,355.23,355.23,0,0,0,39.87-26.68,356.89,356.89,0,0,0,59.57-58.32h551.3v135Z"/><g class="cls-2"><path class="cls-5" d="M1532.5,41.5c-.6,0-.9.3-.9,1V87.1c0,.7.3,1,.9,1h7.6c.6,0,.9-.3.9-1V42.4c0-.7-.3-1-.9-1h-7.6Zm4.8-13.2c-.4,0-.6.1-.7.4l-4.4,7.8a.54.54,0,0,0,.2.8l2.6,1.5c.4.2.5.2.8,0l10.6-8.8a1.49,1.49,0,0,0,.3-.7v-.4a.53.53,0,0,0-.6-.6Zm-22.8,13.2c-.6,0-.9.3-.9,1V70.8L1495,43.4c-1-1.4-1.3-2-3.7-2h-6c-.6,0-.9.3-.9,1V87c0,.7.3,1,.9,1h7.6c.6,0,.9-.3.9-1V57.6l19.7,28.9a3.23,3.23,0,0,0,3,1.5h5.6c.6,0,.9-.3.9-1V42.4c0-.7-.3-1-.9-1h-7.6Zm-68.2,0a.8.8,0,0,0-.9.9V87.1c0,.7.3,1,.9,1h30.1a.8.8,0,0,0,.9-.9V80.8a.8.8,0,0,0-.9-.9h-21.6V69h19.7c.6,0,1-.3,1-.9V62c0-.6-.4-.9-1-.9h-19.7V49.7h21.6a.8.8,0,0,0,.9-.9V42.4a.8.8,0,0,0-.9-.9Zm21.8-13c-.4-.2-.7-.3-1,0l-6.4,4.5-6.4-4.5a.9.9,0,0,0-1.1,0l-1.9,1a.61.61,0,0,0-.2,1l5.7,8a1.25,1.25,0,0,0,1.2.5h5.1c.8,0,1-.2,1.2-.5l5.8-8a.61.61,0,0,0-.2-1Zm-47.3,20.8c7.2,0,9,1.4,9,7.5s-1.9,7.1-9,7.1h-6.5V49.3Zm1-8.2c-4.9,0-10.7.2-16,.7-.7.1-.9.2-.9.8V87.1c0,.8.2,1,.9,1h7.6c.7,0,.9-.2.9-1V71.2h7.5c13.2,0,17.6-2.5,17.6-14.6s-4.5-15.5-17.6-15.5M1379.1,49c1.2,0,1.3.3,1.7,1.7l4.3,15.9h-11.9l4.4-15.9c.4-1.4.5-1.7,1.5-1.7m0-7.9c-7,0-8.2.7-10,7.2L1358.3,87c-.1.7.1,1,.8,1h7.6c.6,0,.7-.2.8-1l3.5-12.5h16.1l3.4,12.5c.2.7.2,1,.8,1h7.7c.6,0,.9-.2.8-1l-10.6-38.7c-1.7-6.5-2.8-7.2-10.1-7.2m1.4-12.8c-.4,0-.6.1-.7.4l-4.4,7.8a.54.54,0,0,0,.2.8l2.6,1.5a.61.61,0,0,0,.8,0l10.5-8.8a.91.91,0,0,0,.3-.7v-.4a.53.53,0,0,0-.6-.6Zm-59.2,13.2a.8.8,0,0,0-.9.9v6.4a.8.8,0,0,0,.9.9h12.6V87.1c0,.7.3,1,.9,1h7.6c.6,0,.9-.3.9-1V49.7h12.6c.6,0,1-.3,1-.9V42.4c0-.6-.4-.9-1-.9Zm-11.2,0a1.47,1.47,0,0,0-1.6,1L1298,63.6l-10.5-21.2a1.54,1.54,0,0,0-1.6-1h-8.5c-.8,0-1.2.4-.7,1.3l16.5,30.2V87c0,.7.3,1,.9,1h7.6c.6,0,.9-.3.9-1V73l16.5-30.3c.5-1,.2-1.3-.7-1.3h-8.3Zm-73.9,0c-.6,0-.9.2-.7,1l10.2,38.7c1.7,6.5,2.9,7.2,9.9,7.2,7.3,0,8.4-.7,10-7.2l9.9-38.7c.2-.7-.1-1-.7-1h-7.7c-.5,0-.7.2-.8,1L1257,78.9c-.4,1.4-.5,1.8-1.5,1.8-.8,0-.9-.4-1.3-1.8l-9.4-36.4c-.2-.7-.3-1-.8-1Z"/></g><g class="cls-2"><path class="cls-5" d="M1528.1,172.7a.8.8,0,0,0-.9.9v44.5c0,.7.3,1,.9,1h30a.8.8,0,0,0,.9-.9v-6.4a.8.8,0,0,0-.9-.9h-21.5V200.2h19.6c.6,0,1-.3,1-.9v-6.1c0-.6-.4-.9-1-.9h-19.6V181h21.5a.8.8,0,0,0,.9-.9v-6.4a.8.8,0,0,0-.9-.9h-30Zm-20.4-.4c-15.3,0-19.2,5.3-19.2,23.5s4,23.5,19.2,23.5a58.62,58.62,0,0,0,11.8-.9c.9-.2,1.4-.6,1.4-1.6V212a.8.8,0,0,0-.9-.9h-12.3c-8.3,0-9.7-3.7-9.7-15.3s1.4-15.3,9.7-15.3H1520a.8.8,0,0,0,.9-.9v-4.8c0-1-.5-1.4-1.4-1.6a67.15,67.15,0,0,0-11.8-.9m-43.4,7.9c1.2,0,1.3.3,1.7,1.7l4.3,15.9h-11.9l4.4-15.9c.3-1.4.5-1.7,1.5-1.7m0-7.9c-6.9,0-8.1.7-9.9,7.2l-10.7,38.6c-.1.7.1,1,.8,1h7.6c.6,0,.7-.2.8-1l3.5-12.5h16l3.4,12.5c.2.7.2,1,.8,1h7.7c.6,0,.9-.2.8-1l-10.5-38.6c-1.9-6.5-3.1-7.2-10.3-7.2m-59,.4c-.7,0-1,.2-1,.9l.1,6.4c0,.6.3.9,1,.9h22.8l-24.1,30.3a1.47,1.47,0,0,0-.4,1.2l.1,5.7c0,.7.3,1,.9,1h35.6a.9.9,0,0,0,1-1v-6.3c0-.6-.4-.9-1-.9h-24.1l24.1-30.2a1.37,1.37,0,0,0,.4-1.2v-5.8c0-.7-.3-.9-.9-.9h-34.5Zm-16.2,0c-.6,0-.9.3-.9,1v44.4c0,.7.3,1,.9,1h7.6c.6,0,.9-.3.9-1V173.7c0-.7-.3-1-.9-1h-7.6Zm-41.5,0a.8.8,0,0,0-.9.9V180a.8.8,0,0,0,.9.9h12.5v37.2c0,.7.3,1,.9,1h7.6c.6,0,.9-.3.9-1V180.9H1382c.6,0,1-.3,1-.9v-6.4c0-.6-.4-.9-1-.9Zm-19,7.5c1.2,0,1.3.3,1.7,1.7l4.3,15.9h-11.9l4.4-15.9c.3-1.4.4-1.7,1.5-1.7m0-7.9c-6.9,0-8.1.7-9.9,7.2L1308,218.1c-.1.7.1,1,.8,1h7.6c.6,0,.7-.2.8-1l3.5-12.5h16l3.4,12.5c.2.7.2,1,.8,1h7.7c.6,0,.9-.2.8-1l-10.5-38.6c-2-6.5-3.1-7.2-10.3-7.2m-36.1.3c-1.9,0-2.7.5-3.4,2.4L1278,204.2,1266.9,175c-.8-1.9-1.5-2.3-3.4-2.3h-7.2c-.6,0-.7.4-.8,1l-4.3,44.4c-.1.7.3,1,.9,1h7.6c.6,0,.8-.3.9-1l2.6-28.7,10.7,27.4a1.38,1.38,0,0,0,1.3.9h5.7a1.38,1.38,0,0,0,1.3-.9l10.8-27.4,2.6,28.7c.1.7.3,1,.9,1h7.6c.6,0,1-.3.9-1l-4.3-44.5c-.1-.5-.2-1-.8-1Zm-56.7.1c-.6,0-.9.3-.9,1v44.4c0,.7.3,1,.9,1h7.6c.6,0,.9-.3.9-1V173.7c0-.7-.3-1-.9-1h-7.6Zm-32-.1a.8.8,0,0,0-.9.9V218c0,.7.3,1,.9,1h28.1a.8.8,0,0,0,.9-.9v-6.4a.8.8,0,0,0-.9-.9h-19.6V173.6a.8.8,0,0,0-.9-.9h-7.6Zm-18.9.1a1.61,1.61,0,0,0-1.3.6l-15,19.3v-19a.8.8,0,0,0-.9-.9h-7.6a.8.8,0,0,0-.9.9v44.5c0,.7.3,1,.9,1h7.6c.6,0,.9-.3.9-1V196.2l16.2,22.2a1.43,1.43,0,0,0,1.3.7h8.4c1.6,0,1.6-.8,1-1.6l-17.2-23.4,15.6-20.2c.5-.7.5-1.1-.5-1.1h-8.5Z"/></g><g class="cls-2"><path class="cls-5" d="M1654.8,195.8a1.75,1.75,0,0,0-1.7-1.7h-2.4l2.3-2.3a1.7,1.7,0,0,0-2.4-2.4l-4.7,4.7h-12l8.5-8.5h6.6a1.7,1.7,0,0,0,0-3.4h-3.3l1.7-1.7a1.7,1.7,0,0,0-2.4-2.4l-1.7,1.7v-3.3a1.7,1.7,0,1,0-3.4,0v6.6l-8.5,8.5v-12l4.7-4.7a1.7,1.7,0,1,0-2.4-2.4l-2.3,2.3v-2.4a1.7,1.7,0,1,0-3.4,0v2.4l-2.3-2.3a1.7,1.7,0,1,0-2.4,2.4l4.7,4.7v12l-8.5-8.5v-6.6a1.7,1.7,0,1,0-3.4,0v3.3l-1.7-1.7a1.7,1.7,0,0,0-2.4,2.4l1.7,1.7h-3.3a1.7,1.7,0,0,0,0,3.4h6.6l8.5,8.5h-12l-4.7-4.7a1.7,1.7,0,0,0-2.4,2.4l2.3,2.3h-2.4a1.7,1.7,0,0,0,0,3.4h2.4l-2.3,2.3a1.63,1.63,0,0,0,0,2.4,1.69,1.69,0,0,0,2.4,0l4.7-4.7h12L1617,206h-6.6a1.7,1.7,0,0,0,0,3.4h3.3l-1.7,1.7a1.63,1.63,0,0,0,0,2.4,1.69,1.69,0,0,0,2.4,0l1.7-1.7v3.3a1.7,1.7,0,1,0,3.4,0v-6.6l8.5-8.5v12l-4.7,4.7a1.7,1.7,0,1,0,2.4,2.4l2.3-2.3v2.4a1.7,1.7,0,1,0,3.4,0v-2.4l2.3,2.3a1.69,1.69,0,0,0,2.4,0,1.63,1.63,0,0,0,0-2.4l-4.7-4.7V200l8.5,8.5v6.6a1.7,1.7,0,1,0,3.4,0v-3.3l1.7,1.7a1.69,1.69,0,0,0,2.4,0,1.63,1.63,0,0,0,0-2.4l-1.7-1.7h3.3a1.7,1.7,0,0,0,0-3.4h-6.6l-8.5-8.5h12l4.7,4.7a1.69,1.69,0,0,0,2.4,0,1.63,1.63,0,0,0,0-2.4l-2.3-2.3h2.4a1.69,1.69,0,0,0,1.7-1.7"/></g><g class="cls-2"><circle class="cls-6" cx="1629.8" cy="195.8" r="33"/></g><g class="cls-2"><circle class="cls-6" cx="1628" cy="64.2" r="33"/></g><g class="cls-7"><path class="cls-5" d="M1637.6,87.8c3.2-6.6,1.5-10.3-1-13.9a22.09,22.09,0,0,1-3.4-7.7,9.19,9.19,0,0,0-1.3,7c-3.8-4.1-4.5-10.6-3.9-13.1-8.5,5.8-12.2,18.4-7.3,27.8-26.2-14.4-6.5-36.1-3.1-38.5-1.1,2.4-1.4,6.6.9,8.6,3.9-14.4,13.5-17.4,13.5-17.4-1.1,7.4,4.1,15.6,9.2,21.7.2-3,.4-5,2-7.9.4,5.4,4.6,9.8,5.7,15.2,1.7,7.2-1,12.6-11.3,18.2"/></g></svg>