<svg xmlns="http://www.w3.org/2000/svg" xmlns:xlink="http://www.w3.org/1999/xlink" viewBox="0 0 1061.58 217"><defs><style>.cls-1,.cls-8{fill:none;}.cls-2{clip-path:url(#clip-path);}.cls-3{clip-path:url(#clip-path-2);}.cls-4{fill:#222224;}.cls-5{fill:#ea4f41;}.cls-6{fill:#00a3e4;}.cls-7{fill:#fff;}.cls-8{stroke:#fff;stroke-width:6.35px;}.cls-9{clip-path:url(#clip-path-4);}</style><clipPath id="clip-path" transform="translate(-23.42 0)"><rect class="cls-1" width="1085" height="217"/></clipPath><clipPath id="clip-path-2" transform="translate(-23.42 0)"><rect class="cls-1" width="1085" height="217"/></clipPath><clipPath id="clip-path-4" transform="translate(-23.42 0)"><rect class="cls-1" x="1015" y="29.94" width="37.18" height="42.82"/></clipPath></defs><title>banner-svg</title><g id="Vrstva_2" data-name="Vrstva 2"><g id="Vrstva_1-2" data-name="Vrstva 1"><g class="cls-2"><g class="cls-3"><path class="cls-4" d="M582.8,83.75c-2,0-2.87.41-3.53,2.2L570,110.38,560.7,86c-.67-1.74-1.54-2.2-3.48-2.2h-7.78c-.51,0-.67.41-.72.87l-4.15,40.94c-.05.66.31.92.82.92h8.5c.56,0,.77-.26.82-.92l2.41-23.82,8.8,22.54a1.18,1.18,0,0,0,1.18.87H573a1.22,1.22,0,0,0,1.18-.87l8.8-22.54,2.35,23.82c.05.66.26.92.82.92h8.44c.56,0,.92-.26.82-.92l-4.15-40.94c-.05-.56-.1-.92-.66-.92Z" transform="translate(-23.42 0)"/><path class="cls-4" d="M524.26,83.49c-5.17,0-10.64.2-16,.61-.66.05-.82.26-.82.77v40.79c0,.72.15.87.82.87h8.44c.67,0,.82-.15.82-.87V111.3H521l8.9,14.06a2.19,2.19,0,0,0,2.2,1.18h8.55c.82,0,1-.46.67-1.07L532,110.63c5.94-1.28,8.09-4.8,8.09-12.83,0-10.73-4-14.31-15.86-14.31m-1.07,8.74c5.27,0,6.65,1.43,6.65,5.93s-1.43,5.62-6.65,5.62h-5.63V92.23Z" transform="translate(-23.42 0)"/><path class="cls-4" d="M470.17,83.8a.77.77,0,0,0-.82.87v41c0,.61.26.87.82.87h28.3c.56,0,.87-.26.87-.82v-7.16a.77.77,0,0,0-.87-.82h-19v-8.23h17.4c.56,0,.87-.26.87-.82v-6.8a.77.77,0,0,0-.87-.82h-17.4V92.59h19c.56,0,.87-.26.87-.82V84.62c0-.56-.31-.82-.87-.82Z" transform="translate(-23.42 0)"/><path class="cls-4" d="M452.32,83.8c-.56,0-.82.31-.82.87v16.15h-16V84.67c0-.56-.26-.87-.82-.87h-8.49a.77.77,0,0,0-.82.87v40.94c0,.66.31.92.82.92h8.49c.56,0,.82-.26.82-.92v-15.9h16v15.9c0,.66.26.92.82.92h8.44c.56,0,.82-.26.82-.92V84.67c0-.56-.26-.87-.82-.87Z" transform="translate(-23.42 0)"/><path class="cls-4" d="M387.94,83.8c-.51,0-.46.31-.31.82l2,7.16c.15.51.31.82.82.82h8.39v33.07c0,.61.26.87.82.87h8.44c.56,0,.82-.26.82-.87V92.59h11c.56,0,.87-.26.87-.82V84.62c0-.56-.31-.82-.87-.82Z" transform="translate(-23.42 0)"/><path class="cls-4" d="M371.46,83.49c-7,0-8.19.46-9.88,6.59l-9.82,35.57c-.1.61.2.87.72.87h8.39c.46,0,.51-.26.72-.87l3-11h13.71l3,11c.15.61.26.87.77.87h8.34c.56,0,.82-.26.72-.87l-9.72-35.57c-1.69-6.08-2.81-6.59-9.93-6.59m-.05,8.38c.72,0,.77.15,1,.87l3.74,13.65h-9.26l3.68-13.65c.2-.72.26-.87.87-.87" transform="translate(-23.42 0)"/><path class="cls-4" d="M338.2,83.8c-.56,0-.82.31-.82.87v23.1L321.88,85.69c-.92-1.33-1.23-1.89-3.53-1.89H312.1c-.56,0-.82.31-.82.87v40.94c0,.66.26.92.82.92h8.49c.51,0,.82-.26.82-.92V101.84l16.12,23.1a3.27,3.27,0,0,0,3.17,1.58h5.94c.56,0,.82-.26.82-.92V84.67c0-.56-.26-.87-.82-.87Z" transform="translate(-23.42 0)"/><path class="cls-4" d="M288.31,83.49c-5.17,0-10.64.2-16,.61-.61.05-.82.26-.82.77v40.79c0,.72.2.87.82.87h8.49c.67,0,.82-.15.82-.87V111.3h3.48l8.9,14.06a2.15,2.15,0,0,0,2.2,1.18h8.55c.82,0,1.07-.51.61-1.07l-9.26-14.82c5.94-1.28,8.09-4.8,8.09-12.83,0-10.73-4-14.31-15.86-14.31m-1.07,8.74c5.22,0,6.65,1.43,6.65,5.93s-1.43,5.62-6.65,5.62H281.6V92.23Z" transform="translate(-23.42 0)"/><path class="cls-4" d="M247.42,83.49c-7,0-8.19.46-9.88,6.59l-9.77,35.57c-.1.61.15.87.72.87h8.34c.51,0,.56-.26.72-.87l3.07-11h13.71l3,11c.15.61.26.87.77.87h8.34c.56,0,.82-.26.72-.87L257.4,90.09c-1.69-6.08-2.87-6.59-10-6.59m-.05,8.38c.72,0,.77.15,1,.87l3.68,13.65h-9.21l3.63-13.65c.26-.72.31-.87.87-.87" transform="translate(-23.42 0)"/><path class="cls-4" d="M209.14,83.49c-5.17,0-10.54.2-15.91.61-.61.05-.82.26-.82.77V125.4c0,.51.2.72.82.77,5.37.41,11.82.61,17,.61,11.05,0,15.4-3,15.4-11.75,0-6.34-1.94-9.25-7.73-9.76v-.2c5-.82,6.81-3.48,6.81-9.76,0-8.69-4.35-11.81-15.56-11.81m-1.07,8.74c4.61,0,6.35,1.18,6.35,4.75s-1.74,4.6-6.86,4.6h-5V92.23Zm1.23,16.41c4.25,0,6,1.18,6,4.86,0,3.42-1.69,4.55-6.09,4.55h-6.7v-9.41Z" transform="translate(-23.42 0)"/><path class="cls-5" d="M133.28,75.67c-17.6-12-44.52-11-53.37,6.29l-.51,1.58c.61.61,4.3-2.76,7.73-4.45,23.69-11.76,69.08,4.4,54.7,49.84-10.64,33.63-50.76,45.59-84.33,29.7-9.72-4.65-16.73-10.12-25.07-16.82a68,68,0,0,0,23,20c34,18,78.24,8.28,92.26-29.54,4.91-13.14,6.4-34.25-4.3-46.92a62.73,62.73,0,0,0-10.13-9.71" transform="translate(-23.42 0)"/><path class="cls-6" d="M167.62,106.65c-7-29.59-25.74-51-58.13-50.09-19.8.51-36.08,17-39.71,32.87C66.71,103,74.39,118,90.66,120.8c7.68,1.33,12.84-4.4,13.61-3.63,0,1.33-2.51,5.62-5.63,7.21-7.16,3.63-19.14.66-26.25-4.6C61.13,111.45,57.86,101.18,60.57,88c5-24.23,26.35-37.67,48.51-38.13,34.34-.61,56.24,23.26,58.54,56.79" transform="translate(-23.42 0)"/><path class="cls-6" d="M115.12,41c13.82,1.07,27.74,7,39.61,18-4.25-1.94-20.32-12.88-39.76-13.19S82.32,51.49,72.13,62.48C60.77,74.7,59,93.51,61.75,104.09c4.2,16.46,27.53,28.11,46.16,17.48,4.09-2.35,7.88-7.21,8.75-7.21,0,3.63-6,12.57-11.05,15.95C69.47,154.44,31.91,100.15,66.71,58.8,79.45,43.67,101.25,39.94,115.12,41" transform="translate(-23.42 0)"/><path class="cls-6" d="M124.89,108.95c0-7.46,1.43-11.5-1.07-18.5C157,144.26,47.67,166.19,43,90.6,41.17,62.28,61.59,42.75,87.79,32.84c.41-.2-36.84,18.45-37.1,56.94-.2,30.62,26.76,55,58.49,38.39,8.55-4.5,14-9.92,15.71-19.22" transform="translate(-23.42 0)"/><path class="cls-5" d="M45.06,123.62c-5.63-8.13-11.41-28.78-7.73-44V79.4l.26.26a62.84,62.84,0,0,0,12,41.15c15.51,21.06,42.83,31,67.29,13.08,20.37-14.87,15.81-52.08-14.38-50.4l-.26-.26c7.27-3.37,35.56-1,31.93,36.29-1.18,11.76-15.81,26.38-34.54,29.9-16.73,3.12-38.53-2.71-54.55-25.81" transform="translate(-23.42 0)"/><path class="cls-5" d="M23.42,101h.26C33,128.83,50.9,149.58,81.4,152.29c20.72,1.84,49.07-13.24,50.87-33.48,1.79-20.65-7.68-37-27-40.48l-7.47-.26-.26-.26v-.26c18.42-9.2,53.78,6.85,43.5,46.36C135,147.18,106,162.77,79.71,160.11,46.19,156.79,29.81,130.52,23.42,101" transform="translate(-23.42 0)"/><path class="cls-6" d="M128.53,62.64c20.57,7.72,30.55,34,25.89,57.6-1.48-24.64-9.57-39.36-30-48.2-36-15.59-62.89,19-51.89,43.4-24.2-16.87,0-73.86,56-52.8" transform="translate(-23.42 0)"/><path class="cls-5" d="M154.21,120.8c-8.24,41.5-38.74,50.19-54.5,54.64-7.62,2.2-10.23,3.17-8.24,6.8,1.18,2.2,5.94,1.64,11.77,0,18.58-5.06,51.74-25.4,51-61.44" transform="translate(-23.42 0)"/><path class="cls-5" d="M161.63,120.8c-7,46-27.79,46.67-27.79,51.93.05,8.79,30.4-12.78,27.79-51.93" transform="translate(-23.42 0)"/><path class="cls-7" d="M128,101.89A29.53,29.53,0,1,1,98.44,72.35,29.49,29.49,0,0,1,128,101.89" transform="translate(-23.42 0)"/><path class="cls-6" d="M38.1,75.62c5.68-19.32,11.67-29.7,29.42-41.09,2.15-1.38,3.38-2.45,3-3.58-1-2.4-3.53-2.1-6.6-.41C48.8,38.72,37.75,59.42,38.1,75.62" transform="translate(-23.42 0)"/></g><polygon class="cls-5" points="665.67 0 607.03 105.79 1061.58 105.79 1061.58 0 665.67 0"/><polygon class="cls-6" points="607.4 105.79 545.76 217 1061.58 217 1061.58 105.79 607.4 105.79"/><g class="cls-3"><path class="cls-7" d="M969.7,35.86c-.49,0-.74.25-.74.79v36.5c0,.54.25.79.74.79H976c.49,0,.74-.25.74-.79V36.65c0-.54-.25-.79-.74-.79Zm3.94-10.72a.59.59,0,0,0-.59.29l-3.59,6.4a.49.49,0,0,0,.15.69l2.12,1.23c.29.15.44.2.69,0l8.66-7.18a1.08,1.08,0,0,0,.25-.59v-.34a.44.44,0,0,0-.49-.49ZM955,35.86c-.49,0-.74.25-.74.79V59.77L939,37.48c-.84-1.18-1.08-1.62-3-1.62h-4.87c-.49,0-.74.25-.74.79v36.5c0,.54.25.79.74.79h6.25c.49,0,.74-.25.74-.79V49l16.13,23.66a2.59,2.59,0,0,0,2.46,1.23h4.57c.49,0,.74-.25.74-.79V36.65c0-.54-.25-.79-.74-.79Zm-55.78,0a.65.65,0,0,0-.74.74V73.15c0,.54.25.79.74.79h24.65a.65.65,0,0,0,.74-.74V67.93a.65.65,0,0,0-.74-.74H906.2V58.39h16.13a.69.69,0,0,0,.79-.74v-5a.69.69,0,0,0-.79-.74H906.2V42.6h17.66a.65.65,0,0,0,.74-.74V36.6a.65.65,0,0,0-.74-.74Zm17.86-10.58a.61.61,0,0,0-.84,0L911,29l-5.21-3.69a.67.67,0,0,0-.89,0l-1.52.79a.49.49,0,0,0-.15.84l4.67,6.54a1,1,0,0,0,1,.39h4.18c.64,0,.84-.15,1-.39l4.72-6.54a.51.51,0,0,0-.15-.84Zm-38.71,17c5.85,0,7.38,1.18,7.38,6.1s-1.52,5.8-7.38,5.8H873V42.31Zm.79-6.74c-4,0-8.76.15-13.08.54-.59,0-.74.15-.74.69V73.15c0,.64.15.79.74.79h6.25c.59,0,.74-.15.74-.79v-13h6.1c10.77,0,14.41-2,14.41-12s-3.64-12.64-14.41-12.64m-34.88,6.49c1,0,1,.25,1.38,1.43l3.54,13h-9.74l3.59-13c.3-1.18.39-1.43,1.23-1.43m0-6.49c-5.71,0-6.69.54-8.17,5.9l-8.81,31.68c-.1.59.1.79.64.79h6.25c.49,0,.54-.2.69-.79l2.85-10.23h13.18l2.8,10.23c.15.59.2.79.64.79h6.3c.49,0,.74-.2.64-.79l-8.66-31.68c-1.48-5.36-2.41-5.9-8.36-5.9m1.13-10.43a.6.6,0,0,0-.59.29l-3.59,6.4a.49.49,0,0,0,.15.69l2.12,1.23a.52.52,0,0,0,.69,0l8.61-7.18A.82.82,0,0,0,853,26v-.34a.44.44,0,0,0-.49-.49ZM797,35.86a.65.65,0,0,0-.74.74v5.26a.65.65,0,0,0,.74.74h10.28V73.15c0,.54.25.79.74.79h6.25c.49,0,.74-.25.74-.79V42.6h10.28a.69.69,0,0,0,.79-.74V36.6a.69.69,0,0,0-.79-.74Zm-9.15,0a1.28,1.28,0,0,0-1.33.79L777.9,54l-8.56-17.32a1.32,1.32,0,0,0-1.33-.79h-6.94c-.69,0-1,.3-.54,1.08l13.53,24.69V73.15c0,.54.25.79.74.79h6.25c.49,0,.74-.25.74-.79V61.74l13.53-24.79c.44-.79.15-1.08-.54-1.08Zm-60.41,0c-.49,0-.74.2-.59.79l8.31,31.68c1.43,5.31,2.36,5.85,8.07,5.85,6,0,6.84-.59,8.21-5.85l8.12-31.68c.15-.59-.1-.79-.59-.79h-6.3c-.44,0-.54.2-.69.79L744.4,66.41c-.29,1.13-.44,1.48-1.23,1.48s-.74-.34-1.08-1.48l-7.67-29.76c-.2-.59-.25-.79-.69-.79Z" transform="translate(-23.42 0)"/><path class="cls-7" d="M952.34,142.75a.65.65,0,0,0-.74.74V180c0,.54.25.79.74.79H977a.65.65,0,0,0,.74-.74v-5.26a.65.65,0,0,0-.74-.74H959.32v-8.81h16.13a.69.69,0,0,0,.79-.74v-5a.69.69,0,0,0-.79-.74H959.32v-9.3H977a.65.65,0,0,0,.74-.74v-5.26a.65.65,0,0,0-.74-.74Zm-16.72-.3c-12.54,0-15.79,4.38-15.79,19.28s3.25,19.33,15.79,19.33a48.59,48.59,0,0,0,9.69-.74c.74-.2,1.13-.49,1.13-1.28v-4a.65.65,0,0,0-.74-.74H935.61c-6.79,0-8-3-8-12.59s1.18-12.54,8-12.54H945.7a.65.65,0,0,0,.74-.74v-3.94c0-.84-.39-1.13-1.13-1.33a52.68,52.68,0,0,0-9.69-.74M899.9,149c1,0,1,.25,1.38,1.43l3.54,13h-9.74l3.59-13c.3-1.18.39-1.43,1.23-1.43m0-6.49c-5.71,0-6.69.54-8.17,5.9L882.93,180c-.1.59.1.79.64.79h6.25c.49,0,.54-.2.69-.79l2.85-10.23h13.18l2.8,10.23c.15.59.2.79.64.79h6.3c.49,0,.74-.2.64-.79l-8.66-31.68c-1.48-5.36-2.41-5.9-8.36-5.9m-48.45.3c-.54,0-.79.2-.79.74l0,5.26c0,.49.24.74.79.74h18.74l-19.78,24.89a1.35,1.35,0,0,0-.34,1l0,4.67c0,.54.25.79.74.79h29.22a.7.7,0,0,0,.79-.79v-5.21a.69.69,0,0,0-.79-.74H860.35l19.77-24.84a1.28,1.28,0,0,0,.34-1v-4.77c0-.54-.25-.74-.74-.74Zm-13.28,0c-.49,0-.74.25-.74.79V180c0,.54.25.79.74.79h6.25c.49,0,.74-.25.74-.79v-36.5c0-.54-.25-.79-.74-.79Zm-34.09,0a.65.65,0,0,0-.74.74v5.26a.65.65,0,0,0,.74.74h10.28V180c0,.54.25.79.74.79h6.25c.49,0,.74-.25.74-.79V149.49h10.28a.69.69,0,0,0,.79-.74v-5.26a.69.69,0,0,0-.79-.74ZM788.38,149c1,0,1,.25,1.38,1.43l3.54,13h-9.74l3.59-13c.29-1.18.39-1.43,1.23-1.43m0-6.49c-5.71,0-6.69.54-8.17,5.9L771.41,180c-.1.59.1.79.64.79h6.25c.49,0,.54-.2.69-.79l2.85-10.23H795l2.8,10.23c.15.59.2.79.64.79h6.3c.49,0,.74-.2.64-.79l-8.66-31.68c-1.48-5.36-2.41-5.9-8.36-5.9m-29.61.25a2.46,2.46,0,0,0-2.8,2l-9.15,24-9.15-24c-.64-1.53-1.23-1.92-2.8-1.92h-6c-.49,0-.59.3-.64.79L724.73,180c0,.54.25.79.74.79h6.25c.49,0,.69-.25.74-.79l2.16-23.61,8.8,22.48a1.14,1.14,0,0,0,1,.74h4.67a1,1,0,0,0,1-.74L759,156.43,761.18,180c0,.54.25.79.74.79h6.25c.49,0,.79-.25.74-.79l-3.54-36.55c0-.44-.15-.79-.64-.79Zm-46.59,0c-.49,0-.74.25-.74.79V180c0,.54.25.79.74.79h6.25c.49,0,.74-.25.74-.79v-36.5c0-.54-.25-.79-.74-.79Zm-28.88,0a.65.65,0,0,0-.74.74V180c0,.54.25.79.74.79h23.12a.65.65,0,0,0,.74-.74v-5.26a.65.65,0,0,0-.74-.74H690.29v-30.6a.65.65,0,0,0-.74-.74Zm-13,0a1.31,1.31,0,0,0-1,.49l-12.35,15.89V143.49a.65.65,0,0,0-.74-.74H650a.65.65,0,0,0-.74.74V180c0,.54.25.79.74.79h6.25c.49,0,.74-.25.74-.79V162l13.28,18.25a1.18,1.18,0,0,0,1.08.54h6.89c1.33,0,1.28-.69.84-1.33l-14.12-19.23,12.79-16.58c.39-.54.44-.93-.44-.93Z" transform="translate(-23.42 0)"/><path class="cls-7" d="M1053.57,160.94a1.39,1.39,0,0,0-1.39-1.39h-2l1.89-1.88a1.39,1.39,0,1,0-2-2l-3.85,3.85h-9.85l7-7h5.44a1.39,1.39,0,0,0,0-2.77h-2.67l1.4-1.41a1.39,1.39,0,0,0-2-2l-1.4,1.4v-2.66a1.39,1.39,0,0,0-2.77,0v5.44l-7,7v-9.85l3.85-3.85a1.39,1.39,0,0,0-2-2l-1.89,1.89v-2a1.39,1.39,0,0,0-2.77,0v2l-1.89-1.89a1.39,1.39,0,1,0-2,2l3.85,3.85v9.85l-7-7v-5.44a1.39,1.39,0,0,0-2.77,0v2.66l-1.41-1.41a1.39,1.39,0,0,0-2,2l1.41,1.41h-2.67a1.39,1.39,0,1,0,0,2.77h5.44l7,7h-9.85l-3.85-3.84a1.39,1.39,0,1,0-2,2l1.89,1.88h-2a1.39,1.39,0,1,0,0,2.77h2l-1.89,1.88a1.39,1.39,0,1,0,2,2l3.85-3.85h9.85l-7,7h-5.44a1.39,1.39,0,1,0,0,2.77H1020l-1.41,1.41a1.39,1.39,0,0,0,2,2L1022,174v2.67a1.39,1.39,0,0,0,2.77,0v-5.44l7-7v9.85l-3.85,3.85a1.39,1.39,0,1,0,2,2l1.89-1.89v2a1.39,1.39,0,1,0,2.77,0v-2l1.89,1.89a1.39,1.39,0,0,0,2-2l-3.85-3.85v-9.85l7,7v5.44a1.39,1.39,0,0,0,2.77,0V174l1.4,1.4a1.39,1.39,0,0,0,2-2l-1.4-1.41h2.67a1.39,1.39,0,1,0,0-2.77h-5.44l-7-7h9.85l3.85,3.85a1.39,1.39,0,0,0,2-2l-1.89-1.88h2a1.39,1.39,0,0,0,1.39-1.39" transform="translate(-23.42 0)"/><circle class="cls-8" cx="1009.38" cy="161.17" r="27.99"/><circle class="cls-8" cx="1009.77" cy="53.43" r="27.99"/></g><g class="cls-9"><path class="cls-7" d="M1041.71,72.76c2.85-5.94,1.33-9.34-.86-12.55a20,20,0,0,1-3-7,8.21,8.21,0,0,0-1.13,6.29,15.89,15.89,0,0,1-3.46-11.9c-7.54,5.27-10.76,16.68-6.42,25.13-23.1-13.07-5.74-32.62-2.72-34.83-1,2.2-1.2,5.93.84,7.74,3.44-13.06,12-15.73,12-15.73-1,6.73,3.65,14.1,8.14,19.6a14.55,14.55,0,0,1,1.74-7.11c.32,4.88,4,8.85,5.05,13.74,1.37,6.62-1,11.47-10.11,16.59" transform="translate(-23.42 0)"/></g></g></g></g></svg>